<svg width="334" height="97" viewBox="0 0 334 97" fill="none" xmlns="http://www.w3.org/2000/svg">
<path d="M4.5 59C4.5 55.6863 7.18629 53 10.5 53H21.5C24.8137 53 27.5 55.6863 27.5 59V82H4.5V59Z" fill="#848282"/>
<path d="M31.5 23C31.5 19.6863 34.1863 17 37.5 17H48.5C51.8137 17 54.5 19.6863 54.5 23V82H31.5V23Z" fill="#FF562F" fill-opacity="0.9"/>
<path d="M17.122 89.4V95H16.322V90.056H12.002V95H11.202V89.4H17.122ZM19.0062 94.512C18.5155 94.1227 18.2702 93.5867 18.2702 92.904C18.2702 92.2213 18.5155 91.6853 19.0062 91.296C19.4968 90.9067 20.1528 90.712 20.9742 90.712C21.7955 90.712 22.4515 90.9067 22.9422 91.296C23.4328 91.6853 23.6782 92.2213 23.6782 92.904C23.6782 93.5867 23.4328 94.1227 22.9422 94.512C22.4515 94.9013 21.7955 95.096 20.9742 95.096C20.1528 95.096 19.4968 94.9013 19.0062 94.512ZM19.5502 91.736C19.1982 92.0293 19.0222 92.4187 19.0222 92.904C19.0222 93.3893 19.1982 93.7787 19.5502 94.072C19.9022 94.3653 20.3768 94.512 20.9742 94.512C21.5715 94.512 22.0462 94.3653 22.3982 94.072C22.7502 93.7787 22.9262 93.3893 22.9262 92.904C22.9262 92.4187 22.7502 92.0293 22.3982 91.736C22.0462 91.4427 21.5715 91.296 20.9742 91.296C20.3768 91.296 19.9022 91.4427 19.5502 91.736ZM29.763 95H28.715L26.459 93.176H25.443V95H24.683V90.808H25.443V92.584H26.475L28.651 90.808H29.627L27.059 92.816L29.763 95ZM32.7225 90.712C33.4745 90.712 34.0425 90.856 34.4265 91.144C34.8158 91.4267 35.0105 91.84 35.0105 92.384V95H34.3145V94.04C34.1278 94.3707 33.8345 94.6293 33.4345 94.816C33.0398 95.0027 32.5625 95.096 32.0025 95.096C31.3625 95.096 30.8851 94.9867 30.5705 94.768C30.2611 94.544 30.1065 94.2533 30.1065 93.896C30.1065 93.5067 30.2931 93.2107 30.6665 93.008C31.0398 92.8053 31.6105 92.6773 32.3785 92.624L34.2505 92.504V92.232C34.2505 91.9493 34.1225 91.7147 33.8665 91.528C33.6105 91.3413 33.2291 91.248 32.7225 91.248C32.2905 91.248 31.9331 91.3147 31.6505 91.448C31.3678 91.5813 31.1945 91.776 31.1305 92.032H30.4105C30.4638 91.584 30.6985 91.2533 31.1145 91.04C31.5358 90.8213 32.0718 90.712 32.7225 90.712ZM32.1865 94.56C32.8318 94.56 33.3358 94.4347 33.6985 94.184C34.0665 93.928 34.2505 93.6 34.2505 93.2V92.976L32.4665 93.088C31.3945 93.1627 30.8585 93.4213 30.8585 93.864C30.8585 94.072 30.9678 94.24 31.1865 94.368C31.4105 94.496 31.7438 94.56 32.1865 94.56ZM39.1897 92.832C40.235 92.928 40.7577 93.272 40.7577 93.864C40.7577 94.232 40.5657 94.5307 40.1817 94.76C39.803 94.984 39.195 95.096 38.3577 95.096C36.8003 95.096 35.963 94.64 35.8457 93.728L36.5737 93.704C36.675 94.2587 37.2697 94.536 38.3577 94.536C39.451 94.536 39.9977 94.2907 39.9977 93.8C39.9977 93.336 39.411 93.104 38.2377 93.104H37.4297V92.616H38.1977C38.7363 92.616 39.1417 92.5573 39.4137 92.44C39.6857 92.3173 39.8217 92.1547 39.8217 91.952C39.8217 91.744 39.6857 91.5787 39.4137 91.456C39.147 91.3333 38.795 91.272 38.3577 91.272C37.9043 91.272 37.5337 91.3387 37.2457 91.472C36.963 91.6 36.7977 91.7947 36.7497 92.056L36.0297 92.032C36.083 91.5947 36.3177 91.2667 36.7337 91.048C37.155 90.824 37.6963 90.712 38.3577 90.712C39.0777 90.712 39.627 90.8133 40.0057 91.016C40.3897 91.2187 40.5817 91.488 40.5817 91.824C40.5817 92.0747 40.467 92.2907 40.2377 92.472C40.0083 92.648 39.659 92.768 39.1897 92.832ZM44.2887 92.392C45.6114 92.392 46.2727 92.8267 46.2727 93.696C46.2727 94.5653 45.6114 95 44.2887 95H42.1527H41.7767V90.808H42.5367V92.392H44.2887ZM47.1847 90.808H47.9447V95H47.1847V90.808ZM44.2247 94.44C45.0834 94.44 45.5127 94.1893 45.5127 93.688C45.5127 93.1867 45.0834 92.936 44.2247 92.936H42.5367V94.44H44.2247Z" fill="white"/>
<path d="M17.122 89.4V95H16.322V90.056H12.002V95H11.202V89.4H17.122ZM19.0062 94.512C18.5155 94.1227 18.2702 93.5867 18.2702 92.904C18.2702 92.2213 18.5155 91.6853 19.0062 91.296C19.4968 90.9067 20.1528 90.712 20.9742 90.712C21.7955 90.712 22.4515 90.9067 22.9422 91.296C23.4328 91.6853 23.6782 92.2213 23.6782 92.904C23.6782 93.5867 23.4328 94.1227 22.9422 94.512C22.4515 94.9013 21.7955 95.096 20.9742 95.096C20.1528 95.096 19.4968 94.9013 19.0062 94.512ZM19.5502 91.736C19.1982 92.0293 19.0222 92.4187 19.0222 92.904C19.0222 93.3893 19.1982 93.7787 19.5502 94.072C19.9022 94.3653 20.3768 94.512 20.9742 94.512C21.5715 94.512 22.0462 94.3653 22.3982 94.072C22.7502 93.7787 22.9262 93.3893 22.9262 92.904C22.9262 92.4187 22.7502 92.0293 22.3982 91.736C22.0462 91.4427 21.5715 91.296 20.9742 91.296C20.3768 91.296 19.9022 91.4427 19.5502 91.736ZM29.763 95H28.715L26.459 93.176H25.443V95H24.683V90.808H25.443V92.584H26.475L28.651 90.808H29.627L27.059 92.816L29.763 95ZM32.7225 90.712C33.4745 90.712 34.0425 90.856 34.4265 91.144C34.8158 91.4267 35.0105 91.84 35.0105 92.384V95H34.3145V94.04C34.1278 94.3707 33.8345 94.6293 33.4345 94.816C33.0398 95.0027 32.5625 95.096 32.0025 95.096C31.3625 95.096 30.8851 94.9867 30.5705 94.768C30.2611 94.544 30.1065 94.2533 30.1065 93.896C30.1065 93.5067 30.2931 93.2107 30.6665 93.008C31.0398 92.8053 31.6105 92.6773 32.3785 92.624L34.2505 92.504V92.232C34.2505 91.9493 34.1225 91.7147 33.8665 91.528C33.6105 91.3413 33.2291 91.248 32.7225 91.248C32.2905 91.248 31.9331 91.3147 31.6505 91.448C31.3678 91.5813 31.1945 91.776 31.1305 92.032H30.4105C30.4638 91.584 30.6985 91.2533 31.1145 91.04C31.5358 90.8213 32.0718 90.712 32.7225 90.712ZM32.1865 94.56C32.8318 94.56 33.3358 94.4347 33.6985 94.184C34.0665 93.928 34.2505 93.6 34.2505 93.2V92.976L32.4665 93.088C31.3945 93.1627 30.8585 93.4213 30.8585 93.864C30.8585 94.072 30.9678 94.24 31.1865 94.368C31.4105 94.496 31.7438 94.56 32.1865 94.56ZM39.1897 92.832C40.235 92.928 40.7577 93.272 40.7577 93.864C40.7577 94.232 40.5657 94.5307 40.1817 94.76C39.803 94.984 39.195 95.096 38.3577 95.096C36.8003 95.096 35.963 94.64 35.8457 93.728L36.5737 93.704C36.675 94.2587 37.2697 94.536 38.3577 94.536C39.451 94.536 39.9977 94.2907 39.9977 93.8C39.9977 93.336 39.411 93.104 38.2377 93.104H37.4297V92.616H38.1977C38.7363 92.616 39.1417 92.5573 39.4137 92.44C39.6857 92.3173 39.8217 92.1547 39.8217 91.952C39.8217 91.744 39.6857 91.5787 39.4137 91.456C39.147 91.3333 38.795 91.272 38.3577 91.272C37.9043 91.272 37.5337 91.3387 37.2457 91.472C36.963 91.6 36.7977 91.7947 36.7497 92.056L36.0297 92.032C36.083 91.5947 36.3177 91.2667 36.7337 91.048C37.155 90.824 37.6963 90.712 38.3577 90.712C39.0777 90.712 39.627 90.8133 40.0057 91.016C40.3897 91.2187 40.5817 91.488 40.5817 91.824C40.5817 92.0747 40.467 92.2907 40.2377 92.472C40.0083 92.648 39.659 92.768 39.1897 92.832ZM44.2887 92.392C45.6114 92.392 46.2727 92.8267 46.2727 93.696C46.2727 94.5653 45.6114 95 44.2887 95H42.1527H41.7767V90.808H42.5367V92.392H44.2887ZM47.1847 90.808H47.9447V95H47.1847V90.808ZM44.2247 94.44C45.0834 94.44 45.5127 94.1893 45.5127 93.688C45.5127 93.1867 45.0834 92.936 44.2247 92.936H42.5367V94.44H44.2247Z" fill="#D6D6D6"/>
<path d="M72.5 59C72.5 55.6863 75.1863 53 78.5 53H89.5C92.8137 53 95.5 55.6863 95.5 59V82H72.5V59Z" fill="#848282"/>
<path d="M99.5 23C99.5 19.6863 102.186 17 105.5 17H116.5C119.814 17 122.5 19.6863 122.5 23V82H99.5V23Z" fill="#FF562F" fill-opacity="0.9"/>
<path d="M88.7253 95H87.6693L84.9013 92.48H83.3653V95H82.5653V89.4H83.3653V91.864H84.8933L87.5253 89.4H88.5093L85.5333 92.12L88.7253 95ZM90.3291 90.808H94.2731V95H93.5131V91.432H91.0011C90.9051 92.6373 90.8438 93.3387 90.8171 93.536C90.7158 94.2133 90.5211 94.656 90.2331 94.864C90.0518 94.992 89.8145 95.056 89.5211 95.056C89.4518 95.056 89.3105 95.0453 89.0971 95.024V94.408C89.2145 94.4187 89.3025 94.424 89.3611 94.424C89.7291 94.424 89.9638 94.192 90.0651 93.728C90.1665 93.2587 90.2545 92.2853 90.3291 90.808ZM99.3941 90.808H100.514V95H99.7781V91.304L96.6741 95H95.5541V90.808H96.2901V94.504L99.3941 90.808ZM106.876 95H105.828L103.572 93.176H102.556V95H101.796V90.808H102.556V92.584H103.588L105.764 90.808H106.74L104.172 92.816L106.876 95ZM111.457 90.808H112.577V95H111.841V91.304L108.737 95H107.617V90.808H108.353V94.504L111.457 90.808Z" fill="white"/>
<path d="M88.7253 95H87.6693L84.9013 92.48H83.3653V95H82.5653V89.4H83.3653V91.864H84.8933L87.5253 89.4H88.5093L85.5333 92.12L88.7253 95ZM90.3291 90.808H94.2731V95H93.5131V91.432H91.0011C90.9051 92.6373 90.8438 93.3387 90.8171 93.536C90.7158 94.2133 90.5211 94.656 90.2331 94.864C90.0518 94.992 89.8145 95.056 89.5211 95.056C89.4518 95.056 89.3105 95.0453 89.0971 95.024V94.408C89.2145 94.4187 89.3025 94.424 89.3611 94.424C89.7291 94.424 89.9638 94.192 90.0651 93.728C90.1665 93.2587 90.2545 92.2853 90.3291 90.808ZM99.3941 90.808H100.514V95H99.7781V91.304L96.6741 95H95.5541V90.808H96.2901V94.504L99.3941 90.808ZM106.876 95H105.828L103.572 93.176H102.556V95H101.796V90.808H102.556V92.584H103.588L105.764 90.808H106.74L104.172 92.816L106.876 95ZM111.457 90.808H112.577V95H111.841V91.304L108.737 95H107.617V90.808H108.353V94.504L111.457 90.808Z" fill="#D6D6D6"/>
<path d="M140.5 59C140.5 55.6863 143.186 53 146.5 53H157.5C160.814 53 163.5 55.6863 163.5 59V82H140.5V59Z" fill="#848282"/>
<path d="M167.5 23C167.5 19.6863 170.186 17 173.5 17H184.5C187.814 17 190.5 19.6863 190.5 23V82H167.5V23Z" fill="#FF562F" fill-opacity="0.9"/>
<path d="M155.932 93.104L156.692 93.152C156.596 93.744 156.286 94.216 155.764 94.568C155.241 94.92 154.534 95.096 153.644 95.096C152.566 95.096 151.732 94.832 151.14 94.304C150.553 93.7707 150.26 93.0693 150.26 92.2C150.26 91.336 150.55 90.6373 151.132 90.104C151.713 89.5707 152.526 89.304 153.572 89.304C154.404 89.304 155.094 89.472 155.644 89.808C156.193 90.1387 156.521 90.584 156.628 91.144L155.86 91.2C155.774 90.8267 155.521 90.528 155.1 90.304C154.678 90.0747 154.169 89.96 153.572 89.96C152.777 89.96 152.158 90.1707 151.716 90.592C151.278 91.008 151.06 91.544 151.06 92.2C151.06 92.856 151.284 93.3947 151.732 93.816C152.185 94.232 152.822 94.44 153.644 94.44C154.289 94.44 154.812 94.3147 155.212 94.064C155.612 93.8133 155.852 93.4933 155.932 93.104ZM161.431 89.4C162.039 89.4 162.525 89.5467 162.887 89.84C163.255 90.1333 163.439 90.5573 163.439 91.112C163.439 91.6667 163.261 92.0853 162.903 92.368C162.546 92.6507 162.055 92.792 161.431 92.792H158.607V95H157.807V89.4H158.607H161.431ZM161.383 92.168C161.773 92.168 162.079 92.0773 162.303 91.896C162.527 91.7147 162.639 91.4533 162.639 91.112C162.639 90.7707 162.527 90.5093 162.303 90.328C162.079 90.1467 161.773 90.056 161.383 90.056H158.607V92.168H161.383ZM169.249 95L168.521 93.56H164.673L163.945 95H163.137L166.009 89.4H167.209L170.081 95H169.249ZM164.985 92.944H168.209L166.593 89.752L164.985 92.944ZM170.858 95.944V94.056H171.746V94.624L171.21 95.944H170.858ZM180.778 93.544C180.778 94.0453 180.554 94.4267 180.106 94.688C179.664 94.944 179.042 95.08 178.242 95.096V95.768H177.794V95.088C176.984 95.056 176.36 94.888 175.922 94.584C175.49 94.2747 175.253 93.8453 175.21 93.296L175.922 93.272C175.944 93.624 176.114 93.9093 176.434 94.128C176.754 94.3467 177.208 94.4693 177.794 94.496V92.496L177.114 92.336C176.517 92.2027 176.096 92.0107 175.85 91.76C175.605 91.5093 175.482 91.2133 175.482 90.872C175.482 90.3867 175.696 90.0213 176.122 89.776C176.554 89.5307 177.112 89.4027 177.794 89.392V88.72H178.242V89.4C178.909 89.4427 179.448 89.6053 179.858 89.888C180.274 90.1653 180.506 90.5387 180.554 91.008L179.842 91.056C179.821 90.7733 179.669 90.536 179.386 90.344C179.104 90.1467 178.722 90.0293 178.242 89.992V91.888L179.05 92.072C179.642 92.2107 180.077 92.3947 180.354 92.624C180.637 92.848 180.778 93.1547 180.778 93.544ZM177.434 91.704L177.794 91.784V89.984C177.314 89.9947 176.936 90.0747 176.658 90.224C176.381 90.368 176.242 90.568 176.242 90.824C176.242 91.2293 176.64 91.5227 177.434 91.704ZM178.242 94.504C178.781 94.4933 179.21 94.4133 179.53 94.264C179.85 94.1147 180.01 93.8933 180.01 93.6C180.01 93.1947 179.594 92.8987 178.762 92.712L178.242 92.592V94.504Z" fill="white"/>
<path d="M155.932 93.104L156.692 93.152C156.596 93.744 156.286 94.216 155.764 94.568C155.241 94.92 154.534 95.096 153.644 95.096C152.566 95.096 151.732 94.832 151.14 94.304C150.553 93.7707 150.26 93.0693 150.26 92.2C150.26 91.336 150.55 90.6373 151.132 90.104C151.713 89.5707 152.526 89.304 153.572 89.304C154.404 89.304 155.094 89.472 155.644 89.808C156.193 90.1387 156.521 90.584 156.628 91.144L155.86 91.2C155.774 90.8267 155.521 90.528 155.1 90.304C154.678 90.0747 154.169 89.96 153.572 89.96C152.777 89.96 152.158 90.1707 151.716 90.592C151.278 91.008 151.06 91.544 151.06 92.2C151.06 92.856 151.284 93.3947 151.732 93.816C152.185 94.232 152.822 94.44 153.644 94.44C154.289 94.44 154.812 94.3147 155.212 94.064C155.612 93.8133 155.852 93.4933 155.932 93.104ZM161.431 89.4C162.039 89.4 162.525 89.5467 162.887 89.84C163.255 90.1333 163.439 90.5573 163.439 91.112C163.439 91.6667 163.261 92.0853 162.903 92.368C162.546 92.6507 162.055 92.792 161.431 92.792H158.607V95H157.807V89.4H158.607H161.431ZM161.383 92.168C161.773 92.168 162.079 92.0773 162.303 91.896C162.527 91.7147 162.639 91.4533 162.639 91.112C162.639 90.7707 162.527 90.5093 162.303 90.328C162.079 90.1467 161.773 90.056 161.383 90.056H158.607V92.168H161.383ZM169.249 95L168.521 93.56H164.673L163.945 95H163.137L166.009 89.4H167.209L170.081 95H169.249ZM164.985 92.944H168.209L166.593 89.752L164.985 92.944ZM170.858 95.944V94.056H171.746V94.624L171.21 95.944H170.858ZM180.778 93.544C180.778 94.0453 180.554 94.4267 180.106 94.688C179.664 94.944 179.042 95.08 178.242 95.096V95.768H177.794V95.088C176.984 95.056 176.36 94.888 175.922 94.584C175.49 94.2747 175.253 93.8453 175.21 93.296L175.922 93.272C175.944 93.624 176.114 93.9093 176.434 94.128C176.754 94.3467 177.208 94.4693 177.794 94.496V92.496L177.114 92.336C176.517 92.2027 176.096 92.0107 175.85 91.76C175.605 91.5093 175.482 91.2133 175.482 90.872C175.482 90.3867 175.696 90.0213 176.122 89.776C176.554 89.5307 177.112 89.4027 177.794 89.392V88.72H178.242V89.4C178.909 89.4427 179.448 89.6053 179.858 89.888C180.274 90.1653 180.506 90.5387 180.554 91.008L179.842 91.056C179.821 90.7733 179.669 90.536 179.386 90.344C179.104 90.1467 178.722 90.0293 178.242 89.992V91.888L179.05 92.072C179.642 92.2107 180.077 92.3947 180.354 92.624C180.637 92.848 180.778 93.1547 180.778 93.544ZM177.434 91.704L177.794 91.784V89.984C177.314 89.9947 176.936 90.0747 176.658 90.224C176.381 90.368 176.242 90.568 176.242 90.824C176.242 91.2293 176.64 91.5227 177.434 91.704ZM178.242 94.504C178.781 94.4933 179.21 94.4133 179.53 94.264C179.85 94.1147 180.01 93.8933 180.01 93.6C180.01 93.1947 179.594 92.8987 178.762 92.712L178.242 92.592V94.504Z" fill="#D6D6D6"/>
<path d="M208.5 59C208.5 55.6863 211.186 53 214.5 53H225.5C228.814 53 231.5 55.6863 231.5 59V82H208.5V59Z" fill="#848282"/>
<path d="M235.5 23C235.5 19.6863 238.186 17 241.5 17H252.5C255.814 17 258.5 19.6863 258.5 23V82H235.5V23Z" fill="#FF562F" fill-opacity="0.9"/>
<path d="M212.874 95H211.818L209.05 92.48H207.514V95H206.714V89.4H207.514V91.864H209.042L211.674 89.4H212.658L209.682 92.12L212.874 95ZM213.619 94.512C213.129 94.1227 212.883 93.5867 212.883 92.904C212.883 92.2213 213.129 91.6853 213.619 91.296C214.11 90.9067 214.766 90.712 215.587 90.712C216.409 90.712 217.065 90.9067 217.555 91.296C218.046 91.6853 218.291 92.2213 218.291 92.904C218.291 93.5867 218.046 94.1227 217.555 94.512C217.065 94.9013 216.409 95.096 215.587 95.096C214.766 95.096 214.11 94.9013 213.619 94.512ZM214.163 91.736C213.811 92.0293 213.635 92.4187 213.635 92.904C213.635 93.3893 213.811 93.7787 214.163 94.072C214.515 94.3653 214.99 94.512 215.587 94.512C216.185 94.512 216.659 94.3653 217.011 94.072C217.363 93.7787 217.539 93.3893 217.539 92.904C217.539 92.4187 217.363 92.0293 217.011 91.736C216.659 91.4427 216.185 91.296 215.587 91.296C214.99 91.296 214.515 91.4427 214.163 91.736ZM219.296 95V90.808H220.056V92.552H223.392V90.808H224.152V95H223.392V93.176H220.056V95H219.296ZM228.757 92.832C229.232 92.8747 229.584 92.9787 229.813 93.144C230.048 93.3093 230.165 93.5493 230.165 93.864C230.165 94.1947 230.021 94.4667 229.733 94.68C229.445 94.8933 228.96 95 228.277 95H225.429V90.808H228.149C228.778 90.808 229.24 90.904 229.533 91.096C229.832 91.288 229.981 91.5413 229.981 91.856C229.981 92.4 229.573 92.7253 228.757 92.832ZM226.189 91.352V92.616H228.053C228.837 92.616 229.229 92.4053 229.229 91.984C229.229 91.5627 228.818 91.352 227.997 91.352H226.189ZM228.141 94.456C228.605 94.456 228.93 94.3973 229.117 94.28C229.309 94.1573 229.405 93.9893 229.405 93.776C229.405 93.552 229.304 93.384 229.101 93.272C228.898 93.16 228.557 93.104 228.077 93.104H226.189V94.456H228.141ZM236.171 93.024V93.12H231.651C231.705 93.5893 231.91 93.9467 232.267 94.192C232.625 94.4373 233.091 94.56 233.667 94.56C234.073 94.56 234.419 94.4987 234.707 94.376C235.001 94.2533 235.214 94.088 235.347 93.88L236.075 93.912C235.926 94.2853 235.643 94.576 235.227 94.784C234.817 94.992 234.297 95.096 233.667 95.096C232.809 95.096 232.131 94.912 231.635 94.544C231.139 94.1707 230.891 93.624 230.891 92.904C230.891 92.1893 231.137 91.6453 231.627 91.272C232.123 90.8987 232.777 90.712 233.587 90.712C234.419 90.712 235.057 90.904 235.499 91.288C235.947 91.6667 236.171 92.2453 236.171 93.024ZM233.587 91.248C233.054 91.248 232.614 91.3653 232.267 91.6C231.926 91.8347 231.723 92.1787 231.659 92.632H235.419C235.398 92.2053 235.222 91.8693 234.891 91.624C234.566 91.3733 234.131 91.248 233.587 91.248ZM239.98 90.712C240.716 90.712 241.308 90.9067 241.756 91.296C242.204 91.6853 242.428 92.2213 242.428 92.904C242.428 93.5867 242.204 94.1227 241.756 94.512C241.308 94.9013 240.716 95.096 239.98 95.096C239.51 95.096 239.097 95.0133 238.74 94.848C238.382 94.6773 238.108 94.4347 237.916 94.12V96.6H237.156V90.808H237.852V91.808C238.028 91.4507 238.297 91.1787 238.66 90.992C239.028 90.8053 239.468 90.712 239.98 90.712ZM238.396 94.072C238.737 94.3653 239.198 94.512 239.78 94.512C240.361 94.512 240.822 94.3653 241.164 94.072C241.505 93.7787 241.676 93.3893 241.676 92.904C241.676 92.4187 241.505 92.0293 241.164 91.736C240.822 91.4427 240.361 91.296 239.78 91.296C239.198 91.296 238.737 91.4427 238.396 91.736C238.054 92.0293 237.884 92.4187 237.884 92.904C237.884 93.3893 238.054 93.7787 238.396 94.072ZM248.301 93.568C248.194 94.0533 247.917 94.4293 247.469 94.696C247.026 94.9627 246.477 95.096 245.821 95.096C245 95.096 244.349 94.9067 243.869 94.528C243.394 94.144 243.157 93.6027 243.157 92.904C243.157 92.2053 243.394 91.6667 243.869 91.288C244.344 90.904 244.986 90.712 245.797 90.712C246.432 90.712 246.973 90.84 247.421 91.096C247.874 91.352 248.146 91.7173 248.237 92.192L247.517 92.232C247.426 91.928 247.224 91.696 246.909 91.536C246.594 91.376 246.224 91.296 245.797 91.296C245.232 91.296 244.776 91.44 244.429 91.728C244.088 92.016 243.917 92.408 243.917 92.904C243.917 93.4 244.09 93.792 244.437 94.08C244.784 94.368 245.245 94.512 245.821 94.512C246.258 94.512 246.632 94.4267 246.941 94.256C247.256 94.0853 247.461 93.8427 247.557 93.528L248.301 93.568ZM253.066 90.808H254.186V95H253.45V91.304L250.346 95H249.226V90.808H249.962V94.504L253.066 90.808ZM259.308 90.808H260.428V95H259.692V91.304L256.588 95H255.468V90.808H256.204V94.504L259.308 90.808Z" fill="white"/>
<path d="M212.874 95H211.818L209.05 92.48H207.514V95H206.714V89.4H207.514V91.864H209.042L211.674 89.4H212.658L209.682 92.12L212.874 95ZM213.619 94.512C213.129 94.1227 212.883 93.5867 212.883 92.904C212.883 92.2213 213.129 91.6853 213.619 91.296C214.11 90.9067 214.766 90.712 215.587 90.712C216.409 90.712 217.065 90.9067 217.555 91.296C218.046 91.6853 218.291 92.2213 218.291 92.904C218.291 93.5867 218.046 94.1227 217.555 94.512C217.065 94.9013 216.409 95.096 215.587 95.096C214.766 95.096 214.11 94.9013 213.619 94.512ZM214.163 91.736C213.811 92.0293 213.635 92.4187 213.635 92.904C213.635 93.3893 213.811 93.7787 214.163 94.072C214.515 94.3653 214.99 94.512 215.587 94.512C216.185 94.512 216.659 94.3653 217.011 94.072C217.363 93.7787 217.539 93.3893 217.539 92.904C217.539 92.4187 217.363 92.0293 217.011 91.736C216.659 91.4427 216.185 91.296 215.587 91.296C214.99 91.296 214.515 91.4427 214.163 91.736ZM219.296 95V90.808H220.056V92.552H223.392V90.808H224.152V95H223.392V93.176H220.056V95H219.296ZM228.757 92.832C229.232 92.8747 229.584 92.9787 229.813 93.144C230.048 93.3093 230.165 93.5493 230.165 93.864C230.165 94.1947 230.021 94.4667 229.733 94.68C229.445 94.8933 228.96 95 228.277 95H225.429V90.808H228.149C228.778 90.808 229.24 90.904 229.533 91.096C229.832 91.288 229.981 91.5413 229.981 91.856C229.981 92.4 229.573 92.7253 228.757 92.832ZM226.189 91.352V92.616H228.053C228.837 92.616 229.229 92.4053 229.229 91.984C229.229 91.5627 228.818 91.352 227.997 91.352H226.189ZM228.141 94.456C228.605 94.456 228.93 94.3973 229.117 94.28C229.309 94.1573 229.405 93.9893 229.405 93.776C229.405 93.552 229.304 93.384 229.101 93.272C228.898 93.16 228.557 93.104 228.077 93.104H226.189V94.456H228.141ZM236.171 93.024V93.12H231.651C231.705 93.5893 231.91 93.9467 232.267 94.192C232.625 94.4373 233.091 94.56 233.667 94.56C234.073 94.56 234.419 94.4987 234.707 94.376C235.001 94.2533 235.214 94.088 235.347 93.88L236.075 93.912C235.926 94.2853 235.643 94.576 235.227 94.784C234.817 94.992 234.297 95.096 233.667 95.096C232.809 95.096 232.131 94.912 231.635 94.544C231.139 94.1707 230.891 93.624 230.891 92.904C230.891 92.1893 231.137 91.6453 231.627 91.272C232.123 90.8987 232.777 90.712 233.587 90.712C234.419 90.712 235.057 90.904 235.499 91.288C235.947 91.6667 236.171 92.2453 236.171 93.024ZM233.587 91.248C233.054 91.248 232.614 91.3653 232.267 91.6C231.926 91.8347 231.723 92.1787 231.659 92.632H235.419C235.398 92.2053 235.222 91.8693 234.891 91.624C234.566 91.3733 234.131 91.248 233.587 91.248ZM239.98 90.712C240.716 90.712 241.308 90.9067 241.756 91.296C242.204 91.6853 242.428 92.2213 242.428 92.904C242.428 93.5867 242.204 94.1227 241.756 94.512C241.308 94.9013 240.716 95.096 239.98 95.096C239.51 95.096 239.097 95.0133 238.74 94.848C238.382 94.6773 238.108 94.4347 237.916 94.12V96.6H237.156V90.808H237.852V91.808C238.028 91.4507 238.297 91.1787 238.66 90.992C239.028 90.8053 239.468 90.712 239.98 90.712ZM238.396 94.072C238.737 94.3653 239.198 94.512 239.78 94.512C240.361 94.512 240.822 94.3653 241.164 94.072C241.505 93.7787 241.676 93.3893 241.676 92.904C241.676 92.4187 241.505 92.0293 241.164 91.736C240.822 91.4427 240.361 91.296 239.78 91.296C239.198 91.296 238.737 91.4427 238.396 91.736C238.054 92.0293 237.884 92.4187 237.884 92.904C237.884 93.3893 238.054 93.7787 238.396 94.072ZM248.301 93.568C248.194 94.0533 247.917 94.4293 247.469 94.696C247.026 94.9627 246.477 95.096 245.821 95.096C245 95.096 244.349 94.9067 243.869 94.528C243.394 94.144 243.157 93.6027 243.157 92.904C243.157 92.2053 243.394 91.6667 243.869 91.288C244.344 90.904 244.986 90.712 245.797 90.712C246.432 90.712 246.973 90.84 247.421 91.096C247.874 91.352 248.146 91.7173 248.237 92.192L247.517 92.232C247.426 91.928 247.224 91.696 246.909 91.536C246.594 91.376 246.224 91.296 245.797 91.296C245.232 91.296 244.776 91.44 244.429 91.728C244.088 92.016 243.917 92.408 243.917 92.904C243.917 93.4 244.09 93.792 244.437 94.08C244.784 94.368 245.245 94.512 245.821 94.512C246.258 94.512 246.632 94.4267 246.941 94.256C247.256 94.0853 247.461 93.8427 247.557 93.528L248.301 93.568ZM253.066 90.808H254.186V95H253.45V91.304L250.346 95H249.226V90.808H249.962V94.504L253.066 90.808ZM259.308 90.808H260.428V95H259.692V91.304L256.588 95H255.468V90.808H256.204V94.504L259.308 90.808Z" fill="#D6D6D6"/>
<path d="M276.5 59C276.5 55.6863 279.186 53 282.5 53H293.5C296.814 53 299.5 55.6863 299.5 59V82H276.5V59Z" fill="#848282"/>
<path d="M303.5 23C303.5 19.6863 306.186 17 309.5 17H320.5C323.814 17 326.5 19.6863 326.5 23V82H303.5V23Z" fill="#FF562F" fill-opacity="0.9"/>
<path d="M269.28 90.704C269.28 90.2933 269.438 89.9653 269.752 89.72C270.067 89.4747 270.491 89.352 271.024 89.352C271.558 89.352 271.979 89.4747 272.288 89.72C272.603 89.9653 272.76 90.2933 272.76 90.704C272.76 91.12 272.603 91.4533 272.288 91.704C271.979 91.9493 271.558 92.072 271.024 92.072C270.491 92.072 270.067 91.9493 269.752 91.704C269.438 91.4533 269.28 91.12 269.28 90.704ZM270.256 95L275.592 89.4H276.152L270.816 95H270.256ZM270.16 90.04C269.952 90.2 269.848 90.4213 269.848 90.704C269.848 90.9867 269.952 91.2133 270.16 91.384C270.374 91.5493 270.662 91.632 271.024 91.632C271.382 91.632 271.664 91.5493 271.872 91.384C272.086 91.2133 272.192 90.9867 272.192 90.704C272.192 90.4213 272.086 90.2 271.872 90.04C271.664 89.8747 271.382 89.792 271.024 89.792C270.662 89.792 270.374 89.8747 270.16 90.04ZM273.648 93.688C273.648 93.272 273.803 92.9413 274.112 92.696C274.427 92.4507 274.851 92.328 275.384 92.328C275.918 92.328 276.342 92.4507 276.656 92.696C276.971 92.9413 277.128 93.272 277.128 93.688C277.128 94.0987 276.971 94.4293 276.656 94.68C276.342 94.9253 275.918 95.048 275.384 95.048C274.851 95.048 274.427 94.9253 274.112 94.68C273.803 94.4293 273.648 94.0987 273.648 93.688ZM274.528 93.016C274.32 93.1813 274.216 93.4053 274.216 93.688C274.216 93.9707 274.32 94.1947 274.528 94.36C274.742 94.5253 275.027 94.608 275.384 94.608C275.747 94.608 276.032 94.5253 276.24 94.36C276.454 94.1947 276.56 93.9707 276.56 93.688C276.56 93.4053 276.454 93.1813 276.24 93.016C276.032 92.8507 275.747 92.768 275.384 92.768C275.027 92.768 274.742 92.8507 274.528 93.016ZM285.704 95H284.656L282.4 93.176H281.384V95H280.624V90.808H281.384V92.584H282.416L284.592 90.808H285.568L283 92.816L285.704 95ZM286.557 94.512C286.066 94.1227 285.821 93.5867 285.821 92.904C285.821 92.2213 286.066 91.6853 286.557 91.296C287.048 90.9067 287.704 90.712 288.525 90.712C289.346 90.712 290.002 90.9067 290.493 91.296C290.984 91.6853 291.229 92.2213 291.229 92.904C291.229 93.5867 290.984 94.1227 290.493 94.512C290.002 94.9013 289.346 95.096 288.525 95.096C287.704 95.096 287.048 94.9013 286.557 94.512ZM287.101 91.736C286.749 92.0293 286.573 92.4187 286.573 92.904C286.573 93.3893 286.749 93.7787 287.101 94.072C287.453 94.3653 287.928 94.512 288.525 94.512C289.122 94.512 289.597 94.3653 289.949 94.072C290.301 93.7787 290.477 93.3893 290.477 92.904C290.477 92.4187 290.301 92.0293 289.949 91.736C289.597 91.4427 289.122 91.296 288.525 91.296C287.928 91.296 287.453 91.4427 287.101 91.736ZM292.234 95V90.808H292.994V92.552H296.33V90.808H297.09V95H296.33V93.176H292.994V95H292.234ZM301.695 92.832C302.169 92.8747 302.521 92.9787 302.751 93.144C302.985 93.3093 303.103 93.5493 303.103 93.864C303.103 94.1947 302.959 94.4667 302.671 94.68C302.383 94.8933 301.897 95 301.215 95H298.367V90.808H301.087C301.716 90.808 302.177 90.904 302.471 91.096C302.769 91.288 302.919 91.5413 302.919 91.856C302.919 92.4 302.511 92.7253 301.695 92.832ZM299.127 91.352V92.616H300.991C301.775 92.616 302.167 92.4053 302.167 91.984C302.167 91.5627 301.756 91.352 300.935 91.352H299.127ZM301.079 94.456C301.543 94.456 301.868 94.3973 302.055 94.28C302.247 94.1573 302.343 93.9893 302.343 93.776C302.343 93.552 302.241 93.384 302.039 93.272C301.836 93.16 301.495 93.104 301.015 93.104H299.127V94.456H301.079ZM309.109 93.024V93.12H304.589C304.642 93.5893 304.847 93.9467 305.205 94.192C305.562 94.4373 306.029 94.56 306.605 94.56C307.01 94.56 307.357 94.4987 307.645 94.376C307.938 94.2533 308.151 94.088 308.285 93.88L309.013 93.912C308.863 94.2853 308.581 94.576 308.165 94.784C307.754 94.992 307.234 95.096 306.605 95.096C305.746 95.096 305.069 94.912 304.573 94.544C304.077 94.1707 303.829 93.624 303.829 92.904C303.829 92.1893 304.074 91.6453 304.565 91.272C305.061 90.8987 305.714 90.712 306.525 90.712C307.357 90.712 307.994 90.904 308.437 91.288C308.885 91.6667 309.109 92.2453 309.109 93.024ZM306.525 91.248C305.991 91.248 305.551 91.3653 305.205 91.6C304.863 91.8347 304.661 92.1787 304.597 92.632H308.357C308.335 92.2053 308.159 91.8693 307.829 91.624C307.503 91.3733 307.069 91.248 306.525 91.248ZM312.917 90.712C313.653 90.712 314.245 90.9067 314.693 91.296C315.141 91.6853 315.365 92.2213 315.365 92.904C315.365 93.5867 315.141 94.1227 314.693 94.512C314.245 94.9013 313.653 95.096 312.917 95.096C312.448 95.096 312.034 95.0133 311.677 94.848C311.32 94.6773 311.045 94.4347 310.853 94.12V96.6H310.093V90.808H310.789V91.808C310.965 91.4507 311.234 91.1787 311.597 90.992C311.965 90.8053 312.405 90.712 312.917 90.712ZM311.333 94.072C311.674 94.3653 312.136 94.512 312.717 94.512C313.298 94.512 313.76 94.3653 314.101 94.072C314.442 93.7787 314.613 93.3893 314.613 92.904C314.613 92.4187 314.442 92.0293 314.101 91.736C313.76 91.4427 313.298 91.296 312.717 91.296C312.136 91.296 311.674 91.4427 311.333 91.736C310.992 92.0293 310.821 92.4187 310.821 92.904C310.821 93.3893 310.992 93.7787 311.333 94.072ZM321.238 93.568C321.132 94.0533 320.854 94.4293 320.406 94.696C319.964 94.9627 319.414 95.096 318.758 95.096C317.937 95.096 317.286 94.9067 316.806 94.528C316.332 94.144 316.094 93.6027 316.094 92.904C316.094 92.2053 316.332 91.6667 316.806 91.288C317.281 90.904 317.924 90.712 318.734 90.712C319.369 90.712 319.91 90.84 320.358 91.096C320.812 91.352 321.084 91.7173 321.174 92.192L320.454 92.232C320.364 91.928 320.161 91.696 319.846 91.536C319.532 91.376 319.161 91.296 318.734 91.296C318.169 91.296 317.713 91.44 317.366 91.728C317.025 92.016 316.854 92.408 316.854 92.904C316.854 93.4 317.028 93.792 317.374 94.08C317.721 94.368 318.182 94.512 318.758 94.512C319.196 94.512 319.569 94.4267 319.878 94.256C320.193 94.0853 320.398 93.8427 320.494 93.528L321.238 93.568ZM326.003 90.808H327.123V95H326.387V91.304L323.283 95H322.163V90.808H322.899V94.504L326.003 90.808ZM332.246 90.808H333.366V95H332.63V91.304L329.526 95H328.406V90.808H329.142V94.504L332.246 90.808Z" fill="white"/>
<path d="M269.28 90.704C269.28 90.2933 269.438 89.9653 269.752 89.72C270.067 89.4747 270.491 89.352 271.024 89.352C271.558 89.352 271.979 89.4747 272.288 89.72C272.603 89.9653 272.76 90.2933 272.76 90.704C272.76 91.12 272.603 91.4533 272.288 91.704C271.979 91.9493 271.558 92.072 271.024 92.072C270.491 92.072 270.067 91.9493 269.752 91.704C269.438 91.4533 269.28 91.12 269.28 90.704ZM270.256 95L275.592 89.4H276.152L270.816 95H270.256ZM270.16 90.04C269.952 90.2 269.848 90.4213 269.848 90.704C269.848 90.9867 269.952 91.2133 270.16 91.384C270.374 91.5493 270.662 91.632 271.024 91.632C271.382 91.632 271.664 91.5493 271.872 91.384C272.086 91.2133 272.192 90.9867 272.192 90.704C272.192 90.4213 272.086 90.2 271.872 90.04C271.664 89.8747 271.382 89.792 271.024 89.792C270.662 89.792 270.374 89.8747 270.16 90.04ZM273.648 93.688C273.648 93.272 273.803 92.9413 274.112 92.696C274.427 92.4507 274.851 92.328 275.384 92.328C275.918 92.328 276.342 92.4507 276.656 92.696C276.971 92.9413 277.128 93.272 277.128 93.688C277.128 94.0987 276.971 94.4293 276.656 94.68C276.342 94.9253 275.918 95.048 275.384 95.048C274.851 95.048 274.427 94.9253 274.112 94.68C273.803 94.4293 273.648 94.0987 273.648 93.688ZM274.528 93.016C274.32 93.1813 274.216 93.4053 274.216 93.688C274.216 93.9707 274.32 94.1947 274.528 94.36C274.742 94.5253 275.027 94.608 275.384 94.608C275.747 94.608 276.032 94.5253 276.24 94.36C276.454 94.1947 276.56 93.9707 276.56 93.688C276.56 93.4053 276.454 93.1813 276.24 93.016C276.032 92.8507 275.747 92.768 275.384 92.768C275.027 92.768 274.742 92.8507 274.528 93.016ZM285.704 95H284.656L282.4 93.176H281.384V95H280.624V90.808H281.384V92.584H282.416L284.592 90.808H285.568L283 92.816L285.704 95ZM286.557 94.512C286.066 94.1227 285.821 93.5867 285.821 92.904C285.821 92.2213 286.066 91.6853 286.557 91.296C287.048 90.9067 287.704 90.712 288.525 90.712C289.346 90.712 290.002 90.9067 290.493 91.296C290.984 91.6853 291.229 92.2213 291.229 92.904C291.229 93.5867 290.984 94.1227 290.493 94.512C290.002 94.9013 289.346 95.096 288.525 95.096C287.704 95.096 287.048 94.9013 286.557 94.512ZM287.101 91.736C286.749 92.0293 286.573 92.4187 286.573 92.904C286.573 93.3893 286.749 93.7787 287.101 94.072C287.453 94.3653 287.928 94.512 288.525 94.512C289.122 94.512 289.597 94.3653 289.949 94.072C290.301 93.7787 290.477 93.3893 290.477 92.904C290.477 92.4187 290.301 92.0293 289.949 91.736C289.597 91.4427 289.122 91.296 288.525 91.296C287.928 91.296 287.453 91.4427 287.101 91.736ZM292.234 95V90.808H292.994V92.552H296.33V90.808H297.09V95H296.33V93.176H292.994V95H292.234ZM301.695 92.832C302.169 92.8747 302.521 92.9787 302.751 93.144C302.985 93.3093 303.103 93.5493 303.103 93.864C303.103 94.1947 302.959 94.4667 302.671 94.68C302.383 94.8933 301.897 95 301.215 95H298.367V90.808H301.087C301.716 90.808 302.177 90.904 302.471 91.096C302.769 91.288 302.919 91.5413 302.919 91.856C302.919 92.4 302.511 92.7253 301.695 92.832ZM299.127 91.352V92.616H300.991C301.775 92.616 302.167 92.4053 302.167 91.984C302.167 91.5627 301.756 91.352 300.935 91.352H299.127ZM301.079 94.456C301.543 94.456 301.868 94.3973 302.055 94.28C302.247 94.1573 302.343 93.9893 302.343 93.776C302.343 93.552 302.241 93.384 302.039 93.272C301.836 93.16 301.495 93.104 301.015 93.104H299.127V94.456H301.079ZM309.109 93.024V93.12H304.589C304.642 93.5893 304.847 93.9467 305.205 94.192C305.562 94.4373 306.029 94.56 306.605 94.56C307.01 94.56 307.357 94.4987 307.645 94.376C307.938 94.2533 308.151 94.088 308.285 93.88L309.013 93.912C308.863 94.2853 308.581 94.576 308.165 94.784C307.754 94.992 307.234 95.096 306.605 95.096C305.746 95.096 305.069 94.912 304.573 94.544C304.077 94.1707 303.829 93.624 303.829 92.904C303.829 92.1893 304.074 91.6453 304.565 91.272C305.061 90.8987 305.714 90.712 306.525 90.712C307.357 90.712 307.994 90.904 308.437 91.288C308.885 91.6667 309.109 92.2453 309.109 93.024ZM306.525 91.248C305.991 91.248 305.551 91.3653 305.205 91.6C304.863 91.8347 304.661 92.1787 304.597 92.632H308.357C308.335 92.2053 308.159 91.8693 307.829 91.624C307.503 91.3733 307.069 91.248 306.525 91.248ZM312.917 90.712C313.653 90.712 314.245 90.9067 314.693 91.296C315.141 91.6853 315.365 92.2213 315.365 92.904C315.365 93.5867 315.141 94.1227 314.693 94.512C314.245 94.9013 313.653 95.096 312.917 95.096C312.448 95.096 312.034 95.0133 311.677 94.848C311.32 94.6773 311.045 94.4347 310.853 94.12V96.6H310.093V90.808H310.789V91.808C310.965 91.4507 311.234 91.1787 311.597 90.992C311.965 90.8053 312.405 90.712 312.917 90.712ZM311.333 94.072C311.674 94.3653 312.136 94.512 312.717 94.512C313.298 94.512 313.76 94.3653 314.101 94.072C314.442 93.7787 314.613 93.3893 314.613 92.904C314.613 92.4187 314.442 92.0293 314.101 91.736C313.76 91.4427 313.298 91.296 312.717 91.296C312.136 91.296 311.674 91.4427 311.333 91.736C310.992 92.0293 310.821 92.4187 310.821 92.904C310.821 93.3893 310.992 93.7787 311.333 94.072ZM321.238 93.568C321.132 94.0533 320.854 94.4293 320.406 94.696C319.964 94.9627 319.414 95.096 318.758 95.096C317.937 95.096 317.286 94.9067 316.806 94.528C316.332 94.144 316.094 93.6027 316.094 92.904C316.094 92.2053 316.332 91.6667 316.806 91.288C317.281 90.904 317.924 90.712 318.734 90.712C319.369 90.712 319.91 90.84 320.358 91.096C320.812 91.352 321.084 91.7173 321.174 92.192L320.454 92.232C320.364 91.928 320.161 91.696 319.846 91.536C319.532 91.376 319.161 91.296 318.734 91.296C318.169 91.296 317.713 91.44 317.366 91.728C317.025 92.016 316.854 92.408 316.854 92.904C316.854 93.4 317.028 93.792 317.374 94.08C317.721 94.368 318.182 94.512 318.758 94.512C319.196 94.512 319.569 94.4267 319.878 94.256C320.193 94.0853 320.398 93.8427 320.494 93.528L321.238 93.568ZM326.003 90.808H327.123V95H326.387V91.304L323.283 95H322.163V90.808H322.899V94.504L326.003 90.808ZM332.246 90.808H333.366V95H332.63V91.304L329.526 95H328.406V90.808H329.142V94.504L332.246 90.808Z" fill="#D6D6D6"/>
</svg>
