<svg width="93" height="249" viewBox="0 0 93 249" fill="none" xmlns="http://www.w3.org/2000/svg">
<path d="M10.5238 55.6821C12.4106 62.5186 16.2114 68.6738 21.4786 73.4229C26.7459 78.172 33.2603 81.3174 40.255 82.4888C47.2497 83.6601 54.4335 82.8087 60.9606 80.0346C67.4877 77.2606 73.0863 72.6795 77.0974 66.8306C81.1085 60.9817 83.365 54.1086 83.6014 47.0204C83.8377 39.9323 82.044 32.9241 78.4314 26.8211C74.8188 20.718 69.5377 15.7742 63.2099 12.5715C56.8821 9.36889 49.771 8.0408 42.7138 8.74363L43.9168 20.8229C48.6723 20.3493 53.4642 21.2442 57.7282 23.4023C61.9922 25.5605 65.5509 28.8919 67.9853 33.0045C70.4196 37.1171 71.6284 41.8395 71.4691 46.6159C71.3099 51.3923 69.7893 56.0238 67.0864 59.9651C64.3835 63.9064 60.6108 66.9934 56.2125 68.8627C51.8142 70.732 46.9733 71.3058 42.2599 70.5165C37.5465 69.7272 33.1567 67.6076 29.6073 64.4074C26.058 61.2072 23.4968 57.0595 22.2254 52.4526L10.5238 55.6821Z" fill="#FF562F"/>
<path d="M46.3994 8.56055C39.3073 8.56055 32.3629 10.5868 26.3836 14.4008C20.4043 18.2147 15.6392 23.6576 12.6492 30.0886C9.65916 36.5196 8.56878 43.6711 9.50638 50.7009C10.444 57.7308 13.3706 64.3464 17.9415 69.769C22.5125 75.1916 28.5376 79.1953 35.3074 81.3089C42.0773 83.4224 49.3101 83.5578 56.1543 81.699C62.9985 79.8403 69.1692 76.0648 73.9398 70.817C78.7105 65.5693 81.8826 59.0678 83.0826 52.0779L71.1253 50.0251C70.3164 54.7366 68.1783 59.1188 64.9627 62.656C61.7471 66.1932 57.5878 68.738 52.9746 69.9909C48.3613 71.2437 43.4862 71.1525 38.923 69.7279C34.3599 68.3033 30.2987 65.6046 27.2177 61.9496C24.1367 58.2946 22.1641 53.8354 21.5321 49.097C20.9001 44.3586 21.6351 39.5383 23.6505 35.2035C25.6659 30.8688 28.8777 27.2001 32.908 24.6293C36.9383 22.0586 41.6191 20.6928 46.3994 20.6928V8.56055Z" fill="#777777"/>
<path d="M28.3314 90.1605V98.5605H27.1314V91.1445H20.6514V98.5605H19.4514V90.1605H28.3314ZM31.1577 97.8285C30.4217 97.2445 30.0537 96.4405 30.0537 95.4165C30.0537 94.3925 30.4217 93.5885 31.1577 93.0045C31.8937 92.4205 32.8777 92.1285 34.1097 92.1285C35.3417 92.1285 36.3257 92.4205 37.0617 93.0045C37.7977 93.5885 38.1657 94.3925 38.1657 95.4165C38.1657 96.4405 37.7977 97.2445 37.0617 97.8285C36.3257 98.4125 35.3417 98.7045 34.1097 98.7045C32.8777 98.7045 31.8937 98.4125 31.1577 97.8285ZM31.9737 93.6645C31.4457 94.1045 31.1817 94.6885 31.1817 95.4165C31.1817 96.1445 31.4457 96.7285 31.9737 97.1685C32.5017 97.6085 33.2137 97.8285 34.1097 97.8285C35.0057 97.8285 35.7177 97.6085 36.2457 97.1685C36.7737 96.7285 37.0377 96.1445 37.0377 95.4165C37.0377 94.6885 36.7737 94.1045 36.2457 93.6645C35.7177 93.2245 35.0057 93.0045 34.1097 93.0045C33.2137 93.0045 32.5017 93.2245 31.9737 93.6645ZM47.2929 98.5605H45.7209L42.3369 95.8245H40.8129V98.5605H39.6729V92.2725H40.8129V94.9365H42.3609L45.6249 92.2725H47.0889L43.2369 95.2845L47.2929 98.5605ZM51.7321 92.1285C52.8601 92.1285 53.7121 92.3445 54.2881 92.7765C54.8721 93.2005 55.1641 93.8205 55.1641 94.6365V98.5605H54.1201V97.1205C53.8401 97.6165 53.4001 98.0045 52.8001 98.2845C52.2081 98.5645 51.4921 98.7045 50.6521 98.7045C49.6921 98.7045 48.9761 98.5405 48.5041 98.2125C48.0401 97.8765 47.8081 97.4405 47.8081 96.9045C47.8081 96.3205 48.0881 95.8765 48.6481 95.5725C49.2081 95.2685 50.0641 95.0765 51.2161 94.9965L54.0241 94.8165V94.4085C54.0241 93.9845 53.8321 93.6325 53.4481 93.3525C53.0641 93.0725 52.4921 92.9325 51.7321 92.9325C51.0841 92.9325 50.5481 93.0325 50.1241 93.2325C49.7001 93.4325 49.4401 93.7245 49.3441 94.1085H48.2641C48.3441 93.4365 48.6961 92.9405 49.3201 92.6205C49.9521 92.2925 50.7561 92.1285 51.7321 92.1285ZM50.9281 97.9005C51.8961 97.9005 52.6521 97.7125 53.1961 97.3365C53.7481 96.9525 54.0241 96.4605 54.0241 95.8605V95.5245L51.3481 95.6925C49.7401 95.8045 48.9361 96.1925 48.9361 96.8565C48.9361 97.1685 49.1001 97.4205 49.4281 97.6125C49.7641 97.8045 50.2641 97.9005 50.9281 97.9005ZM61.4329 95.3085C63.0009 95.4525 63.7849 95.9685 63.7849 96.8565C63.7849 97.4085 63.4969 97.8565 62.9209 98.2005C62.3529 98.5365 61.4409 98.7045 60.1849 98.7045C57.8489 98.7045 56.5929 98.0205 56.4169 96.6525L57.5089 96.6165C57.6609 97.4485 58.5529 97.8645 60.1849 97.8645C61.8249 97.8645 62.6449 97.4965 62.6449 96.7605C62.6449 96.0645 61.7649 95.7165 60.0049 95.7165H58.7929V94.9845H59.9449C60.7529 94.9845 61.3609 94.8965 61.7689 94.7205C62.1769 94.5365 62.3809 94.2925 62.3809 93.9885C62.3809 93.6765 62.1769 93.4285 61.7689 93.2445C61.3689 93.0605 60.8409 92.9685 60.1849 92.9685C59.5049 92.9685 58.9489 93.0685 58.5169 93.2685C58.0929 93.4605 57.8449 93.7525 57.7729 94.1445L56.6929 94.1085C56.7729 93.4525 57.1249 92.9605 57.7489 92.6325C58.3809 92.2965 59.1929 92.1285 60.1849 92.1285C61.2649 92.1285 62.0889 92.2805 62.6569 92.5845C63.2329 92.8885 63.5209 93.2925 63.5209 93.7965C63.5209 94.1725 63.3489 94.4965 63.0049 94.7685C62.6609 95.0325 62.1369 95.2125 61.4329 95.3085ZM69.0815 94.6485C71.0655 94.6485 72.0575 95.3005 72.0575 96.6045C72.0575 97.9085 71.0655 98.5605 69.0815 98.5605H65.8775H65.3135V92.2725H66.4535V94.6485H69.0815ZM73.4255 92.2725H74.5655V98.5605H73.4255V92.2725ZM68.9855 97.7205C70.2735 97.7205 70.9175 97.3445 70.9175 96.5925C70.9175 95.8405 70.2735 95.4645 68.9855 95.4645H66.4535V97.7205H68.9855Z" fill="white"/>
<path d="M28.3314 90.1605V98.5605H27.1314V91.1445H20.6514V98.5605H19.4514V90.1605H28.3314ZM31.1577 97.8285C30.4217 97.2445 30.0537 96.4405 30.0537 95.4165C30.0537 94.3925 30.4217 93.5885 31.1577 93.0045C31.8937 92.4205 32.8777 92.1285 34.1097 92.1285C35.3417 92.1285 36.3257 92.4205 37.0617 93.0045C37.7977 93.5885 38.1657 94.3925 38.1657 95.4165C38.1657 96.4405 37.7977 97.2445 37.0617 97.8285C36.3257 98.4125 35.3417 98.7045 34.1097 98.7045C32.8777 98.7045 31.8937 98.4125 31.1577 97.8285ZM31.9737 93.6645C31.4457 94.1045 31.1817 94.6885 31.1817 95.4165C31.1817 96.1445 31.4457 96.7285 31.9737 97.1685C32.5017 97.6085 33.2137 97.8285 34.1097 97.8285C35.0057 97.8285 35.7177 97.6085 36.2457 97.1685C36.7737 96.7285 37.0377 96.1445 37.0377 95.4165C37.0377 94.6885 36.7737 94.1045 36.2457 93.6645C35.7177 93.2245 35.0057 93.0045 34.1097 93.0045C33.2137 93.0045 32.5017 93.2245 31.9737 93.6645ZM47.2929 98.5605H45.7209L42.3369 95.8245H40.8129V98.5605H39.6729V92.2725H40.8129V94.9365H42.3609L45.6249 92.2725H47.0889L43.2369 95.2845L47.2929 98.5605ZM51.7321 92.1285C52.8601 92.1285 53.7121 92.3445 54.2881 92.7765C54.8721 93.2005 55.1641 93.8205 55.1641 94.6365V98.5605H54.1201V97.1205C53.8401 97.6165 53.4001 98.0045 52.8001 98.2845C52.2081 98.5645 51.4921 98.7045 50.6521 98.7045C49.6921 98.7045 48.9761 98.5405 48.5041 98.2125C48.0401 97.8765 47.8081 97.4405 47.8081 96.9045C47.8081 96.3205 48.0881 95.8765 48.6481 95.5725C49.2081 95.2685 50.0641 95.0765 51.2161 94.9965L54.0241 94.8165V94.4085C54.0241 93.9845 53.8321 93.6325 53.4481 93.3525C53.0641 93.0725 52.4921 92.9325 51.7321 92.9325C51.0841 92.9325 50.5481 93.0325 50.1241 93.2325C49.7001 93.4325 49.4401 93.7245 49.3441 94.1085H48.2641C48.3441 93.4365 48.6961 92.9405 49.3201 92.6205C49.9521 92.2925 50.7561 92.1285 51.7321 92.1285ZM50.9281 97.9005C51.8961 97.9005 52.6521 97.7125 53.1961 97.3365C53.7481 96.9525 54.0241 96.4605 54.0241 95.8605V95.5245L51.3481 95.6925C49.7401 95.8045 48.9361 96.1925 48.9361 96.8565C48.9361 97.1685 49.1001 97.4205 49.4281 97.6125C49.7641 97.8045 50.2641 97.9005 50.9281 97.9005ZM61.4329 95.3085C63.0009 95.4525 63.7849 95.9685 63.7849 96.8565C63.7849 97.4085 63.4969 97.8565 62.9209 98.2005C62.3529 98.5365 61.4409 98.7045 60.1849 98.7045C57.8489 98.7045 56.5929 98.0205 56.4169 96.6525L57.5089 96.6165C57.6609 97.4485 58.5529 97.8645 60.1849 97.8645C61.8249 97.8645 62.6449 97.4965 62.6449 96.7605C62.6449 96.0645 61.7649 95.7165 60.0049 95.7165H58.7929V94.9845H59.9449C60.7529 94.9845 61.3609 94.8965 61.7689 94.7205C62.1769 94.5365 62.3809 94.2925 62.3809 93.9885C62.3809 93.6765 62.1769 93.4285 61.7689 93.2445C61.3689 93.0605 60.8409 92.9685 60.1849 92.9685C59.5049 92.9685 58.9489 93.0685 58.5169 93.2685C58.0929 93.4605 57.8449 93.7525 57.7729 94.1445L56.6929 94.1085C56.7729 93.4525 57.1249 92.9605 57.7489 92.6325C58.3809 92.2965 59.1929 92.1285 60.1849 92.1285C61.2649 92.1285 62.0889 92.2805 62.6569 92.5845C63.2329 92.8885 63.5209 93.2925 63.5209 93.7965C63.5209 94.1725 63.3489 94.4965 63.0049 94.7685C62.6609 95.0325 62.1369 95.2125 61.4329 95.3085ZM69.0815 94.6485C71.0655 94.6485 72.0575 95.3005 72.0575 96.6045C72.0575 97.9085 71.0655 98.5605 69.0815 98.5605H65.8775H65.3135V92.2725H66.4535V94.6485H69.0815ZM73.4255 92.2725H74.5655V98.5605H73.4255V92.2725ZM68.9855 97.7205C70.2735 97.7205 70.9175 97.3445 70.9175 96.5925C70.9175 95.8405 70.2735 95.4645 68.9855 95.4645H66.4535V97.7205H68.9855Z" fill="#D6D6D6"/>
<path d="M10.7973 159.243C12.6841 166.079 16.4848 172.234 21.7521 176.983C27.0193 181.733 33.5337 184.878 40.5285 186.049C47.5232 187.221 54.7069 186.369 61.234 183.595C67.7611 180.821 73.3598 176.24 77.3708 170.391C81.3819 164.542 83.6385 157.669 83.8748 150.581C84.1111 143.493 82.3174 136.485 78.7048 130.382C75.0922 124.279 69.8112 119.335 63.4833 116.132C57.1555 112.929 50.0444 111.601 42.9872 112.304L44.1902 124.383C48.9457 123.91 53.7376 124.805 58.0016 126.963C62.2657 129.121 65.8243 132.452 68.2587 136.565C70.6931 140.678 71.9018 145.4 71.7425 150.176C71.5833 154.953 70.0627 159.584 67.3598 163.526C64.6569 167.467 60.8842 170.554 56.4859 172.423C52.0876 174.293 47.2468 174.866 42.5334 174.077C37.8199 173.288 33.4301 171.168 29.8808 167.968C26.3314 164.768 23.7703 160.62 22.4988 156.013L10.7973 159.243Z" fill="#FF562F"/>
<path d="M46.6729 112.121C39.5808 112.121 32.6363 114.147 26.657 117.961C20.6777 121.775 15.9126 127.218 12.9226 133.649C9.9326 140.08 8.84221 147.232 9.77982 154.261C10.7174 161.291 13.644 167.907 18.215 173.33C22.7859 178.752 28.811 182.756 35.5809 184.869C42.3507 186.983 49.5835 187.118 56.4277 185.26C63.2719 183.401 69.4426 179.625 74.2133 174.378C78.9839 169.13 82.156 162.628 83.356 155.638L71.3987 153.586C70.5898 158.297 68.4518 162.679 65.2361 166.217C62.0205 169.754 57.8613 172.299 53.248 173.551C48.6348 174.804 43.7596 174.713 39.1964 173.288C34.6333 171.864 30.5722 169.165 27.4912 165.51C24.4102 161.855 22.4375 157.396 21.8056 152.658C21.1736 147.919 21.9085 143.099 23.9239 138.764C25.9393 134.429 29.1512 130.761 33.1814 128.19C37.2117 125.619 41.8925 124.253 46.6729 124.253V112.121Z" fill="#777777"/>
<path d="M28.6048 193.721V202.121H27.4048V194.705H20.9248V202.121H19.7248V193.721H28.6048ZM31.4311 201.389C30.6951 200.805 30.3271 200.001 30.3271 198.977C30.3271 197.953 30.6951 197.149 31.4311 196.565C32.1671 195.981 33.1511 195.689 34.3831 195.689C35.6151 195.689 36.5991 195.981 37.3351 196.565C38.0711 197.149 38.4391 197.953 38.4391 198.977C38.4391 200.001 38.0711 200.805 37.3351 201.389C36.5991 201.973 35.6151 202.265 34.3831 202.265C33.1511 202.265 32.1671 201.973 31.4311 201.389ZM32.2471 197.225C31.7191 197.665 31.4551 198.249 31.4551 198.977C31.4551 199.705 31.7191 200.289 32.2471 200.729C32.7751 201.169 33.4871 201.389 34.3831 201.389C35.2791 201.389 35.9911 201.169 36.5191 200.729C37.0471 200.289 37.3111 199.705 37.3111 198.977C37.3111 198.249 37.0471 197.665 36.5191 197.225C35.9911 196.785 35.2791 196.565 34.3831 196.565C33.4871 196.565 32.7751 196.785 32.2471 197.225ZM47.5663 202.121H45.9943L42.6103 199.385H41.0863V202.121H39.9463V195.833H41.0863V198.497H42.6343L45.8983 195.833H47.3623L43.5103 198.845L47.5663 202.121ZM52.0056 195.689C53.1336 195.689 53.9856 195.905 54.5616 196.337C55.1456 196.761 55.4376 197.381 55.4376 198.197V202.121H54.3936V200.681C54.1136 201.177 53.6736 201.565 53.0736 201.845C52.4816 202.125 51.7656 202.265 50.9256 202.265C49.9656 202.265 49.2496 202.101 48.7776 201.773C48.3136 201.437 48.0816 201.001 48.0816 200.465C48.0816 199.881 48.3616 199.437 48.9216 199.133C49.4816 198.829 50.3376 198.637 51.4896 198.557L54.2976 198.377V197.969C54.2976 197.545 54.1056 197.193 53.7216 196.913C53.3376 196.633 52.7656 196.493 52.0056 196.493C51.3576 196.493 50.8216 196.593 50.3976 196.793C49.9736 196.993 49.7136 197.285 49.6176 197.669H48.5376C48.6176 196.997 48.9696 196.501 49.5936 196.181C50.2256 195.853 51.0296 195.689 52.0056 195.689ZM51.2016 201.461C52.1696 201.461 52.9256 201.273 53.4696 200.897C54.0216 200.513 54.2976 200.021 54.2976 199.421V199.085L51.6216 199.253C50.0136 199.365 49.2096 199.753 49.2096 200.417C49.2096 200.729 49.3736 200.981 49.7016 201.173C50.0376 201.365 50.5376 201.461 51.2016 201.461ZM61.7064 198.869C63.2744 199.013 64.0584 199.529 64.0584 200.417C64.0584 200.969 63.7704 201.417 63.1944 201.761C62.6264 202.097 61.7144 202.265 60.4584 202.265C58.1224 202.265 56.8664 201.581 56.6904 200.213L57.7824 200.177C57.9344 201.009 58.8264 201.425 60.4584 201.425C62.0984 201.425 62.9184 201.057 62.9184 200.321C62.9184 199.625 62.0384 199.277 60.2784 199.277H59.0664V198.545H60.2184C61.0264 198.545 61.6344 198.457 62.0424 198.281C62.4504 198.097 62.6544 197.853 62.6544 197.549C62.6544 197.237 62.4504 196.989 62.0424 196.805C61.6424 196.621 61.1144 196.529 60.4584 196.529C59.7784 196.529 59.2224 196.629 58.7904 196.829C58.3664 197.021 58.1184 197.313 58.0464 197.705L56.9664 197.669C57.0464 197.013 57.3984 196.521 58.0224 196.193C58.6544 195.857 59.4664 195.689 60.4584 195.689C61.5384 195.689 62.3624 195.841 62.9304 196.145C63.5064 196.449 63.7944 196.853 63.7944 197.357C63.7944 197.733 63.6224 198.057 63.2784 198.329C62.9344 198.593 62.4104 198.773 61.7064 198.869ZM69.355 198.209C71.339 198.209 72.331 198.861 72.331 200.165C72.331 201.469 71.339 202.121 69.355 202.121H66.151H65.587V195.833H66.727V198.209H69.355ZM73.699 195.833H74.839V202.121H73.699V195.833ZM69.259 201.281C70.547 201.281 71.191 200.905 71.191 200.153C71.191 199.401 70.547 199.025 69.259 199.025H66.727V201.281H69.259Z" fill="white"/>
<path d="M28.6048 193.721V202.121H27.4048V194.705H20.9248V202.121H19.7248V193.721H28.6048ZM31.4311 201.389C30.6951 200.805 30.3271 200.001 30.3271 198.977C30.3271 197.953 30.6951 197.149 31.4311 196.565C32.1671 195.981 33.1511 195.689 34.3831 195.689C35.6151 195.689 36.5991 195.981 37.3351 196.565C38.0711 197.149 38.4391 197.953 38.4391 198.977C38.4391 200.001 38.0711 200.805 37.3351 201.389C36.5991 201.973 35.6151 202.265 34.3831 202.265C33.1511 202.265 32.1671 201.973 31.4311 201.389ZM32.2471 197.225C31.7191 197.665 31.4551 198.249 31.4551 198.977C31.4551 199.705 31.7191 200.289 32.2471 200.729C32.7751 201.169 33.4871 201.389 34.3831 201.389C35.2791 201.389 35.9911 201.169 36.5191 200.729C37.0471 200.289 37.3111 199.705 37.3111 198.977C37.3111 198.249 37.0471 197.665 36.5191 197.225C35.9911 196.785 35.2791 196.565 34.3831 196.565C33.4871 196.565 32.7751 196.785 32.2471 197.225ZM47.5663 202.121H45.9943L42.6103 199.385H41.0863V202.121H39.9463V195.833H41.0863V198.497H42.6343L45.8983 195.833H47.3623L43.5103 198.845L47.5663 202.121ZM52.0056 195.689C53.1336 195.689 53.9856 195.905 54.5616 196.337C55.1456 196.761 55.4376 197.381 55.4376 198.197V202.121H54.3936V200.681C54.1136 201.177 53.6736 201.565 53.0736 201.845C52.4816 202.125 51.7656 202.265 50.9256 202.265C49.9656 202.265 49.2496 202.101 48.7776 201.773C48.3136 201.437 48.0816 201.001 48.0816 200.465C48.0816 199.881 48.3616 199.437 48.9216 199.133C49.4816 198.829 50.3376 198.637 51.4896 198.557L54.2976 198.377V197.969C54.2976 197.545 54.1056 197.193 53.7216 196.913C53.3376 196.633 52.7656 196.493 52.0056 196.493C51.3576 196.493 50.8216 196.593 50.3976 196.793C49.9736 196.993 49.7136 197.285 49.6176 197.669H48.5376C48.6176 196.997 48.9696 196.501 49.5936 196.181C50.2256 195.853 51.0296 195.689 52.0056 195.689ZM51.2016 201.461C52.1696 201.461 52.9256 201.273 53.4696 200.897C54.0216 200.513 54.2976 200.021 54.2976 199.421V199.085L51.6216 199.253C50.0136 199.365 49.2096 199.753 49.2096 200.417C49.2096 200.729 49.3736 200.981 49.7016 201.173C50.0376 201.365 50.5376 201.461 51.2016 201.461ZM61.7064 198.869C63.2744 199.013 64.0584 199.529 64.0584 200.417C64.0584 200.969 63.7704 201.417 63.1944 201.761C62.6264 202.097 61.7144 202.265 60.4584 202.265C58.1224 202.265 56.8664 201.581 56.6904 200.213L57.7824 200.177C57.9344 201.009 58.8264 201.425 60.4584 201.425C62.0984 201.425 62.9184 201.057 62.9184 200.321C62.9184 199.625 62.0384 199.277 60.2784 199.277H59.0664V198.545H60.2184C61.0264 198.545 61.6344 198.457 62.0424 198.281C62.4504 198.097 62.6544 197.853 62.6544 197.549C62.6544 197.237 62.4504 196.989 62.0424 196.805C61.6424 196.621 61.1144 196.529 60.4584 196.529C59.7784 196.529 59.2224 196.629 58.7904 196.829C58.3664 197.021 58.1184 197.313 58.0464 197.705L56.9664 197.669C57.0464 197.013 57.3984 196.521 58.0224 196.193C58.6544 195.857 59.4664 195.689 60.4584 195.689C61.5384 195.689 62.3624 195.841 62.9304 196.145C63.5064 196.449 63.7944 196.853 63.7944 197.357C63.7944 197.733 63.6224 198.057 63.2784 198.329C62.9344 198.593 62.4104 198.773 61.7064 198.869ZM69.355 198.209C71.339 198.209 72.331 198.861 72.331 200.165C72.331 201.469 71.339 202.121 69.355 202.121H66.151H65.587V195.833H66.727V198.209H69.355ZM73.699 195.833H74.839V202.121H73.699V195.833ZM69.259 201.281C70.547 201.281 71.191 200.905 71.191 200.153C71.191 199.401 70.547 199.025 69.259 199.025H66.727V201.281H69.259Z" fill="#D6D6D6"/>
<path d="M8.62109 231C8.62109 228.791 10.412 227 12.6211 227C14.8302 227 16.6211 228.791 16.6211 231C16.6211 233.209 14.8302 235 12.6211 235C10.412 235 8.62109 233.209 8.62109 231Z" fill="#FF562F"/>
<path d="M25.0075 230H24.3029C24.2612 229.797 24.1883 229.619 24.0842 229.466C23.9819 229.312 23.8569 229.184 23.7092 229.08C23.5633 228.973 23.4014 228.894 23.2234 228.841C23.0453 228.788 22.8597 228.761 22.6665 228.761C22.3143 228.761 21.9951 228.85 21.7092 229.028C21.4251 229.206 21.1987 229.469 21.0302 229.815C20.8635 230.162 20.7802 230.587 20.7802 231.091C20.7802 231.595 20.8635 232.02 21.0302 232.366C21.1987 232.713 21.4251 232.975 21.7092 233.153C21.9951 233.331 22.3143 233.42 22.6665 233.42C22.8597 233.42 23.0453 233.394 23.2234 233.341C23.4014 233.288 23.5633 233.209 23.7092 233.105C23.8569 232.999 23.9819 232.869 24.0842 232.716C24.1883 232.561 24.2612 232.383 24.3029 232.182H25.0075C24.9544 232.479 24.8578 232.745 24.7177 232.98C24.5775 233.215 24.4033 233.415 24.195 233.58C23.9866 233.742 23.7527 233.866 23.4933 233.952C23.2357 234.037 22.9601 234.08 22.6665 234.08C22.1703 234.08 21.729 233.958 21.3427 233.716C20.9563 233.473 20.6523 233.129 20.4308 232.682C20.2092 232.235 20.0984 231.705 20.0984 231.091C20.0984 230.477 20.2092 229.947 20.4308 229.5C20.6523 229.053 20.9563 228.708 21.3427 228.466C21.729 228.223 22.1703 228.102 22.6665 228.102C22.9601 228.102 23.2357 228.145 23.4933 228.23C23.7527 228.315 23.9866 228.44 24.195 228.605C24.4033 228.768 24.5775 228.967 24.7177 229.202C24.8578 229.435 24.9544 229.701 25.0075 230ZM27.8278 234.091C27.4338 234.091 27.0882 233.997 26.7908 233.81C26.4954 233.622 26.2643 233.36 26.0977 233.023C25.9329 232.686 25.8505 232.292 25.8505 231.841C25.8505 231.386 25.9329 230.99 26.0977 230.651C26.2643 230.312 26.4954 230.048 26.7908 229.861C27.0882 229.673 27.4338 229.58 27.8278 229.58C28.2217 229.58 28.5664 229.673 28.8619 229.861C29.1592 230.048 29.3903 230.312 29.555 230.651C29.7217 230.99 29.805 231.386 29.805 231.841C29.805 232.292 29.7217 232.686 29.555 233.023C29.3903 233.36 29.1592 233.622 28.8619 233.81C28.5664 233.997 28.2217 234.091 27.8278 234.091ZM27.8278 233.489C28.127 233.489 28.3732 233.412 28.5664 233.259C28.7596 233.105 28.9026 232.903 28.9954 232.653C29.0882 232.403 29.1346 232.133 29.1346 231.841C29.1346 231.549 29.0882 231.277 28.9954 231.026C28.9026 230.774 28.7596 230.57 28.5664 230.415C28.3732 230.259 28.127 230.182 27.8278 230.182C27.5285 230.182 27.2823 230.259 27.0891 230.415C26.896 230.57 26.753 230.774 26.6602 231.026C26.5674 231.277 26.521 231.549 26.521 231.841C26.521 232.133 26.5674 232.403 26.6602 232.653C26.753 232.903 26.896 233.105 27.0891 233.259C27.2823 233.412 27.5285 233.489 27.8278 233.489ZM31.4989 228.182V234H30.8285V228.182H31.4989ZM33.3974 228.182V234H32.7269V228.182H33.3974ZM36.4549 234.091C36.0344 234.091 35.6718 233.998 35.3668 233.812C35.0638 233.625 34.8299 233.364 34.6651 233.028C34.5022 232.691 34.4208 232.299 34.4208 231.852C34.4208 231.405 34.5022 231.011 34.6651 230.67C34.8299 230.328 35.0591 230.061 35.3526 229.869C35.6481 229.676 35.9928 229.58 36.3867 229.58C36.614 229.58 36.8384 229.617 37.06 229.693C37.2816 229.769 37.4833 229.892 37.6651 230.062C37.8469 230.231 37.9918 230.455 38.0998 230.733C38.2077 231.011 38.2617 231.354 38.2617 231.761V232.045H34.8981V231.466H37.5799C37.5799 231.22 37.5307 231 37.4322 230.807C37.3356 230.614 37.1973 230.461 37.0174 230.349C36.8394 230.238 36.6291 230.182 36.3867 230.182C36.1197 230.182 35.8886 230.248 35.6935 230.381C35.5004 230.511 35.3517 230.682 35.2475 230.892C35.1433 231.102 35.0913 231.328 35.0913 231.568V231.955C35.0913 232.284 35.1481 232.563 35.2617 232.793C35.3772 233.02 35.5373 233.193 35.7418 233.312C35.9464 233.43 36.1841 233.489 36.4549 233.489C36.631 233.489 36.7901 233.464 36.9322 233.415C37.0761 233.364 37.2002 233.288 37.3043 233.188C37.4085 233.085 37.489 232.958 37.5458 232.807L38.1935 232.989C38.1254 233.208 38.0108 233.402 37.8498 233.568C37.6888 233.733 37.4899 233.862 37.2532 233.955C37.0165 234.045 36.7504 234.091 36.4549 234.091ZM41.0543 234.091C40.6452 234.091 40.293 233.994 39.9975 233.801C39.7021 233.608 39.4748 233.342 39.3157 233.003C39.1566 232.664 39.0771 232.277 39.0771 231.841C39.0771 231.398 39.1585 231.007 39.3214 230.668C39.4862 230.327 39.7153 230.061 40.0089 229.869C40.3043 229.676 40.649 229.58 41.043 229.58C41.3498 229.58 41.6263 229.636 41.8725 229.75C42.1187 229.864 42.3204 230.023 42.4776 230.227C42.6348 230.432 42.7324 230.67 42.7702 230.943H42.0998C42.0487 230.744 41.935 230.568 41.7589 230.415C41.5846 230.259 41.3498 230.182 41.0543 230.182C40.793 230.182 40.5638 230.25 40.3668 230.386C40.1718 230.521 40.0193 230.711 39.9094 230.957C39.8015 231.202 39.7475 231.489 39.7475 231.818C39.7475 232.155 39.8005 232.449 39.9066 232.699C40.0146 232.949 40.1661 233.143 40.3612 233.281C40.5581 233.42 40.7892 233.489 41.0543 233.489C41.2286 233.489 41.3867 233.458 41.5288 233.398C41.6708 233.337 41.7911 233.25 41.8896 233.136C41.988 233.023 42.0581 232.886 42.0998 232.727H42.7702C42.7324 232.985 42.6386 233.217 42.489 233.423C42.3413 233.628 42.1452 233.791 41.9009 233.912C41.6585 234.031 41.3763 234.091 41.0543 234.091ZM45.6481 229.636V230.205H43.3867V229.636H45.6481ZM44.0458 228.591H44.7163V232.75C44.7163 232.939 44.7437 233.081 44.7987 233.176C44.8555 233.269 44.9274 233.331 45.0146 233.364C45.1036 233.394 45.1973 233.409 45.2958 233.409C45.3697 233.409 45.4303 233.405 45.4776 233.398C45.525 233.388 45.5629 233.381 45.5913 233.375L45.7276 233.977C45.6822 233.994 45.6187 234.011 45.5373 234.028C45.4558 234.047 45.3526 234.057 45.2276 234.057C45.0382 234.057 44.8526 234.016 44.6708 233.935C44.4909 233.853 44.3413 233.729 44.2219 233.562C44.1045 233.396 44.0458 233.186 44.0458 232.932V228.591ZM48.4393 234.091C48.0188 234.091 47.6561 233.998 47.3512 233.812C47.0482 233.625 46.8143 233.364 46.6495 233.028C46.4866 232.691 46.4052 232.299 46.4052 231.852C46.4052 231.405 46.4866 231.011 46.6495 230.67C46.8143 230.328 47.0434 230.061 47.337 229.869C47.6325 229.676 47.9772 229.58 48.3711 229.58C48.5984 229.58 48.8228 229.617 49.0444 229.693C49.266 229.769 49.4677 229.892 49.6495 230.062C49.8313 230.231 49.9762 230.455 50.0842 230.733C50.1921 231.011 50.2461 231.354 50.2461 231.761V232.045H46.8825V231.466H49.5643C49.5643 231.22 49.515 231 49.4165 230.807C49.32 230.614 49.1817 230.461 49.0018 230.349C48.8237 230.238 48.6135 230.182 48.3711 230.182C48.104 230.182 47.873 230.248 47.6779 230.381C47.4847 230.511 47.3361 230.682 47.2319 230.892C47.1277 231.102 47.0756 231.328 47.0756 231.568V231.955C47.0756 232.284 47.1325 232.563 47.2461 232.793C47.3616 233.02 47.5217 233.193 47.7262 233.312C47.9308 233.43 48.1684 233.489 48.4393 233.489C48.6154 233.489 48.7745 233.464 48.9165 233.415C49.0605 233.364 49.1845 233.288 49.2887 233.188C49.3929 233.085 49.4734 232.958 49.5302 232.807L50.1779 232.989C50.1097 233.208 49.9951 233.402 49.8342 233.568C49.6732 233.733 49.4743 233.862 49.2376 233.955C49.0008 234.045 48.7347 234.091 48.4393 234.091ZM52.9137 234.091C52.5501 234.091 52.229 233.999 51.9506 233.815C51.6722 233.63 51.4544 233.368 51.2972 233.031C51.14 232.692 51.0614 232.292 51.0614 231.83C51.0614 231.371 51.14 230.973 51.2972 230.636C51.4544 230.299 51.6732 230.039 51.9535 229.855C52.2338 229.671 52.5576 229.58 52.9251 229.58C53.2092 229.58 53.4336 229.627 53.5984 229.722C53.765 229.814 53.8919 229.92 53.979 230.04C54.0681 230.157 54.1372 230.254 54.1864 230.33H54.2433V228.182H54.9137V234H54.266V233.33H54.1864C54.1372 233.409 54.0671 233.509 53.9762 233.631C53.8853 233.75 53.7556 233.857 53.587 233.952C53.4184 234.045 53.194 234.091 52.9137 234.091ZM53.0046 233.489C53.2736 233.489 53.5008 233.419 53.6864 233.278C53.872 233.136 54.0131 232.94 54.1097 232.69C54.2063 232.438 54.2546 232.148 54.2546 231.818C54.2546 231.492 54.2073 231.207 54.1126 230.963C54.0179 230.717 53.8777 230.526 53.6921 230.389C53.5065 230.251 53.2773 230.182 53.0046 230.182C52.7205 230.182 52.4838 230.255 52.2944 230.401C52.1069 230.545 51.9658 230.741 51.8711 230.989C51.7783 231.235 51.7319 231.511 51.7319 231.818C51.7319 232.129 51.7792 232.411 51.8739 232.665C51.9705 232.917 52.1126 233.117 52.3001 233.267C52.4895 233.415 52.7243 233.489 53.0046 233.489ZM59.2802 228.182V234H58.5756V228.182H59.2802ZM61.2724 231.375V234H60.6019V229.636H61.2496V230.318H61.3065C61.4087 230.097 61.564 229.919 61.7724 229.784C61.9807 229.648 62.2496 229.58 62.5792 229.58C62.8746 229.58 63.1332 229.64 63.3548 229.761C63.5763 229.881 63.7487 230.062 63.8718 230.307C63.9949 230.549 64.0565 230.856 64.0565 231.227V234H63.386V231.273C63.386 230.93 63.297 230.663 63.119 230.472C62.9409 230.278 62.6966 230.182 62.386 230.182C62.172 230.182 61.9807 230.228 61.8121 230.321C61.6455 230.414 61.5138 230.549 61.4173 230.727C61.3207 230.905 61.2724 231.121 61.2724 231.375ZM71.4407 228.182H72.1452V232.034C72.1452 232.432 72.0515 232.787 71.864 233.099C71.6784 233.41 71.4161 233.655 71.0771 233.835C70.738 234.013 70.3403 234.102 69.8839 234.102C69.4274 234.102 69.0297 234.013 68.6907 233.835C68.3517 233.655 68.0884 233.41 67.9009 233.099C67.7153 232.787 67.6225 232.432 67.6225 232.034V228.182H68.3271V231.977C68.3271 232.261 68.3896 232.514 68.5146 232.736C68.6396 232.955 68.8176 233.129 69.0487 233.256C69.2816 233.381 69.56 233.443 69.8839 233.443C70.2077 233.443 70.4862 233.381 70.7191 233.256C70.9521 233.129 71.1301 232.955 71.2532 232.736C71.3782 232.514 71.4407 232.261 71.4407 231.977V228.182ZM76.734 229.636C76.6999 229.348 76.5617 229.125 76.3192 228.966C76.0768 228.807 75.7795 228.727 75.4272 228.727C75.1696 228.727 74.9442 228.769 74.7511 228.852C74.5598 228.936 74.4102 229.05 74.3022 229.196C74.1961 229.342 74.1431 229.508 74.1431 229.693C74.1431 229.848 74.18 229.982 74.2539 230.094C74.3297 230.204 74.4263 230.295 74.5437 230.369C74.6611 230.441 74.7842 230.501 74.913 230.548C75.0418 230.594 75.1602 230.631 75.2681 230.659L75.859 230.818C76.0105 230.858 76.1791 230.913 76.3647 230.983C76.5522 231.053 76.7312 231.149 76.9016 231.27C77.074 231.389 77.216 231.543 77.3278 231.73C77.4395 231.918 77.4954 232.148 77.4954 232.42C77.4954 232.735 77.413 233.019 77.2482 233.273C77.0853 233.527 76.8467 233.728 76.5323 233.878C76.2198 234.027 75.8401 234.102 75.3931 234.102C74.9764 234.102 74.6156 234.035 74.3107 233.901C74.0077 233.766 73.7691 233.579 73.5948 233.338C73.4225 233.098 73.3249 232.818 73.3022 232.5H74.0295C74.0484 232.72 74.1223 232.902 74.2511 233.045C74.3817 233.187 74.5465 233.294 74.7454 233.364C74.9461 233.432 75.1621 233.466 75.3931 233.466C75.6621 233.466 75.9035 233.422 76.1175 233.335C76.3316 233.246 76.5011 233.123 76.6261 232.966C76.7511 232.807 76.8136 232.621 76.8136 232.409C76.8136 232.216 76.7596 232.059 76.6516 231.938C76.5437 231.816 76.4016 231.718 76.2255 231.642C76.0494 231.566 75.859 231.5 75.6545 231.443L74.9386 231.239C74.484 231.108 74.1242 230.921 73.859 230.679C73.5939 230.437 73.4613 230.119 73.4613 229.727C73.4613 229.402 73.5494 229.117 73.7255 228.875C73.9035 228.631 74.1422 228.441 74.4414 228.307C74.7425 228.17 75.0787 228.102 75.4499 228.102C75.8249 228.102 76.1583 228.17 76.4499 228.304C76.7416 228.437 76.9727 228.618 77.1431 228.849C77.3155 229.08 77.4064 229.343 77.4158 229.636H76.734ZM80.4492 234H78.6538V228.182H80.5288C81.0932 228.182 81.5761 228.298 81.9776 228.531C82.3791 228.762 82.6869 229.095 82.9009 229.528C83.1149 229.96 83.2219 230.477 83.2219 231.08C83.2219 231.686 83.114 232.207 82.8981 232.645C82.6822 233.08 82.3678 233.416 81.9549 233.651C81.542 233.884 81.0401 234 80.4492 234ZM79.3583 233.375H80.4038C80.8848 233.375 81.2835 233.282 81.5998 233.097C81.9161 232.911 82.1519 232.647 82.3072 232.304C82.4625 231.961 82.5401 231.553 82.5401 231.08C82.5401 230.61 82.4634 230.205 82.31 229.866C82.1566 229.526 81.9274 229.264 81.6225 229.082C81.3176 228.899 80.9379 228.807 80.4833 228.807H79.3583V233.375Z" fill="#888888"/>
<path d="M15.6211 244C15.6211 241.791 17.412 240 19.6211 240C21.8302 240 23.6211 241.791 23.6211 244C23.6211 246.209 21.8302 248 19.6211 248C17.412 248 15.6211 246.209 15.6211 244Z" fill="#777777"/>
<path d="M28.8036 241.182V247H28.0991V241.182H28.8036ZM32.0117 247H30.2163V241.182H32.0913C32.6557 241.182 33.1386 241.298 33.5401 241.531C33.9416 241.762 34.2494 242.095 34.4634 242.528C34.6774 242.96 34.7844 243.477 34.7844 244.08C34.7844 244.686 34.6765 245.207 34.4606 245.645C34.2447 246.08 33.9303 246.416 33.5174 246.651C33.1045 246.884 32.6026 247 32.0117 247ZM30.9208 246.375H31.9663C32.4473 246.375 32.846 246.282 33.1623 246.097C33.4786 245.911 33.7144 245.647 33.8697 245.304C34.025 244.961 34.1026 244.553 34.1026 244.08C34.1026 243.61 34.0259 243.205 33.8725 242.866C33.7191 242.526 33.4899 242.264 33.185 242.082C32.8801 241.899 32.5004 241.807 32.0458 241.807H30.9208V246.375ZM40.8754 244.091C40.8754 244.705 40.7646 245.235 40.543 245.682C40.3214 246.129 40.0174 246.473 39.631 246.716C39.2447 246.958 38.8034 247.08 38.3072 247.08C37.811 247.08 37.3697 246.958 36.9833 246.716C36.5969 246.473 36.293 246.129 36.0714 245.682C35.8498 245.235 35.739 244.705 35.739 244.091C35.739 243.477 35.8498 242.947 36.0714 242.5C36.293 242.053 36.5969 241.708 36.9833 241.466C37.3697 241.223 37.811 241.102 38.3072 241.102C38.8034 241.102 39.2447 241.223 39.631 241.466C40.0174 241.708 40.3214 242.053 40.543 242.5C40.7646 242.947 40.8754 243.477 40.8754 244.091ZM40.1935 244.091C40.1935 243.587 40.1093 243.162 39.9407 242.815C39.774 242.469 39.5477 242.206 39.2617 242.028C38.9776 241.85 38.6594 241.761 38.3072 241.761C37.9549 241.761 37.6358 241.85 37.3498 242.028C37.0657 242.206 36.8394 242.469 36.6708 242.815C36.5041 243.162 36.4208 243.587 36.4208 244.091C36.4208 244.595 36.5041 245.02 36.6708 245.366C36.8394 245.713 37.0657 245.975 37.3498 246.153C37.6358 246.331 37.9549 246.42 38.3072 246.42C38.6594 246.42 38.9776 246.331 39.2617 246.153C39.5477 245.975 39.774 245.713 39.9407 245.366C40.1093 245.02 40.1935 244.595 40.1935 244.091ZM43.7056 240.909L41.8306 247.875H41.217L43.092 240.909H43.7056ZM45.2958 241.182V247H44.5913V241.182H45.2958ZM51.3903 243H50.6857C50.6441 242.797 50.5711 242.619 50.467 242.466C50.3647 242.312 50.2397 242.184 50.092 242.08C49.9461 241.973 49.7842 241.894 49.6062 241.841C49.4281 241.788 49.2425 241.761 49.0494 241.761C48.6971 241.761 48.378 241.85 48.092 242.028C47.8079 242.206 47.5816 242.469 47.413 242.815C47.2463 243.162 47.163 243.587 47.163 244.091C47.163 244.595 47.2463 245.02 47.413 245.366C47.5816 245.713 47.8079 245.975 48.092 246.153C48.378 246.331 48.6971 246.42 49.0494 246.42C49.2425 246.42 49.4281 246.394 49.6062 246.341C49.7842 246.288 49.9461 246.209 50.092 246.105C50.2397 245.999 50.3647 245.869 50.467 245.716C50.5711 245.561 50.6441 245.383 50.6857 245.182H51.3903C51.3372 245.479 51.2406 245.745 51.1005 245.98C50.9603 246.215 50.7861 246.415 50.5778 246.58C50.3694 246.742 50.1355 246.866 49.8761 246.952C49.6185 247.037 49.3429 247.08 49.0494 247.08C48.5531 247.08 48.1119 246.958 47.7255 246.716C47.3391 246.473 47.0352 246.129 46.8136 245.682C46.592 245.235 46.4812 244.705 46.4812 244.091C46.4812 243.477 46.592 242.947 46.8136 242.5C47.0352 242.053 47.3391 241.708 47.7255 241.466C48.1119 241.223 48.5531 241.102 49.0494 241.102C49.3429 241.102 49.6185 241.145 49.8761 241.23C50.1355 241.315 50.3694 241.44 50.5778 241.605C50.7861 241.768 50.9603 241.967 51.1005 242.202C51.2406 242.435 51.3372 242.701 51.3903 243ZM57.4379 244.091C57.4379 244.705 57.3271 245.235 57.1055 245.682C56.8839 246.129 56.5799 246.473 56.1935 246.716C55.8072 246.958 55.3659 247.08 54.8697 247.08C54.3735 247.08 53.9322 246.958 53.5458 246.716C53.1594 246.473 52.8555 246.129 52.6339 245.682C52.4123 245.235 52.3015 244.705 52.3015 244.091C52.3015 243.477 52.4123 242.947 52.6339 242.5C52.8555 242.053 53.1594 241.708 53.5458 241.466C53.9322 241.223 54.3735 241.102 54.8697 241.102C55.3659 241.102 55.8072 241.223 56.1935 241.466C56.5799 241.708 56.8839 242.053 57.1055 242.5C57.3271 242.947 57.4379 243.477 57.4379 244.091ZM56.756 244.091C56.756 243.587 56.6718 243.162 56.5032 242.815C56.3365 242.469 56.1102 242.206 55.8242 242.028C55.5401 241.85 55.2219 241.761 54.8697 241.761C54.5174 241.761 54.1983 241.85 53.9123 242.028C53.6282 242.206 53.4019 242.469 53.2333 242.815C53.0666 243.162 52.9833 243.587 52.9833 244.091C52.9833 244.595 53.0666 245.02 53.2333 245.366C53.4019 245.713 53.6282 245.975 53.9123 246.153C54.1983 246.331 54.5174 246.42 54.8697 246.42C55.2219 246.42 55.5401 246.331 55.8242 246.153C56.1102 245.975 56.3365 245.713 56.5032 245.366C56.6718 245.02 56.756 244.595 56.756 244.091ZM60.2681 240.909L58.3931 247.875H57.7795L59.6545 240.909H60.2681ZM61.8583 241.182V247H61.1538V241.182H61.8583ZM63.271 247V241.182H66.7823V241.807H63.9755V243.773H66.6005V244.398H63.9755V246.375H66.8278V247H63.271ZM72.9613 244.091C72.9613 244.705 72.8505 245.235 72.6289 245.682C72.4073 246.129 72.1033 246.473 71.717 246.716C71.3306 246.958 70.8893 247.08 70.3931 247.08C69.8969 247.08 69.4556 246.958 69.0692 246.716C68.6829 246.473 68.3789 246.129 68.1573 245.682C67.9357 245.235 67.8249 244.705 67.8249 244.091C67.8249 243.477 67.9357 242.947 68.1573 242.5C68.3789 242.053 68.6829 241.708 69.0692 241.466C69.4556 241.223 69.8969 241.102 70.3931 241.102C70.8893 241.102 71.3306 241.223 71.717 241.466C72.1033 241.708 72.4073 242.053 72.6289 242.5C72.8505 242.947 72.9613 243.477 72.9613 244.091ZM72.2795 244.091C72.2795 243.587 72.1952 243.162 72.0266 242.815C71.86 242.469 71.6336 242.206 71.3477 242.028C71.0636 241.85 70.7454 241.761 70.3931 241.761C70.0408 241.761 69.7217 241.85 69.4357 242.028C69.1516 242.206 68.9253 242.469 68.7567 242.815C68.5901 243.162 68.5067 243.587 68.5067 244.091C68.5067 244.595 68.5901 245.02 68.7567 245.366C68.9253 245.713 69.1516 245.975 69.4357 246.153C69.7217 246.331 70.0408 246.42 70.3931 246.42C70.7454 246.42 71.0636 246.331 71.3477 246.153C71.6336 245.975 71.86 245.713 72.0266 245.366C72.1952 245.02 72.2795 244.595 72.2795 244.091ZM77.146 243.614L76.5437 243.784C76.5058 243.684 76.4499 243.586 76.3761 243.491C76.3041 243.395 76.2056 243.315 76.0806 243.253C75.9556 243.19 75.7956 243.159 75.6005 243.159C75.3335 243.159 75.1109 243.221 74.9329 243.344C74.7567 243.465 74.6687 243.619 74.6687 243.807C74.6687 243.973 74.7293 244.105 74.8505 244.202C74.9717 244.298 75.1611 244.379 75.4187 244.443L76.0664 244.602C76.4566 244.697 76.7473 244.842 76.9386 245.037C77.1299 245.23 77.2255 245.479 77.2255 245.784C77.2255 246.034 77.1535 246.258 77.0096 246.455C76.8675 246.652 76.6687 246.807 76.413 246.92C76.1573 247.034 75.86 247.091 75.521 247.091C75.0759 247.091 74.7075 246.994 74.4158 246.801C74.1242 246.608 73.9395 246.326 73.8619 245.955L74.4982 245.795C74.5588 246.03 74.6734 246.206 74.842 246.324C75.0124 246.441 75.235 246.5 75.5096 246.5C75.8221 246.5 76.0702 246.434 76.2539 246.301C76.4395 246.167 76.5323 246.006 76.5323 245.818C76.5323 245.667 76.4793 245.54 76.3732 245.438C76.2672 245.333 76.1043 245.256 75.8846 245.205L75.1573 245.034C74.7577 244.939 74.4641 244.793 74.2766 244.594C74.091 244.393 73.9982 244.142 73.9982 243.841C73.9982 243.595 74.0674 243.377 74.2056 243.188C74.3458 242.998 74.5361 242.849 74.7766 242.741C75.0191 242.634 75.2937 242.58 75.6005 242.58C76.0323 242.58 76.3713 242.674 76.6175 242.864C76.8656 243.053 77.0418 243.303 77.146 243.614Z" fill="#888888"/>
</svg>
