<svg width="461" height="239" viewBox="0 0 461 239" fill="none" xmlns="http://www.w3.org/2000/svg">
<path d="M118 17.5H268.5H435.5C448.755 17.5 459.5 28.2452 459.5 41.5V62.5C459.5 75.7548 448.755 86.5 435.5 86.5H318.5H35C21.7452 86.5 11 97.2452 11 110.5V130C11 143.255 21.7452 154 35 154H268.5H339.5C352.755 154 363.5 164.745 363.5 178V193.5C363.5 206.755 352.755 217.5 339.5 217.5H183.5" stroke="#515151" stroke-width="2" stroke-dasharray="11 11"/>
<rect x="1" y="1" width="279" height="42" rx="21" fill="#282828"/>
<rect x="1" y="1" width="279" height="42" rx="21" stroke="#515151" stroke-width="2"/>
<path d="M32.12 17.2H27.48V29H24.9V17.2H20.28V15H32.12V17.2ZM42.9886 23.72C42.9886 23.8933 42.9753 24.14 42.9486 24.46H34.5686C34.7153 25.2467 35.0953 25.8733 35.7086 26.34C36.3353 26.7933 37.1086 27.02 38.0286 27.02C39.2019 27.02 40.1686 26.6333 40.9286 25.86L42.2686 27.4C41.7886 27.9733 41.1819 28.4067 40.4486 28.7C39.7153 28.9933 38.8886 29.14 37.9686 29.14C36.7953 29.14 35.7619 28.9067 34.8686 28.44C33.9753 27.9733 33.2819 27.3267 32.7886 26.5C32.3086 25.66 32.0686 24.7133 32.0686 23.66C32.0686 22.62 32.3019 21.6867 32.7686 20.86C33.2486 20.02 33.9086 19.3667 34.7486 18.9C35.5886 18.4333 36.5353 18.2 37.5886 18.2C38.6286 18.2 39.5553 18.4333 40.3686 18.9C41.1953 19.3533 41.8353 20 42.2886 20.84C42.7553 21.6667 42.9886 22.6267 42.9886 23.72ZM37.5886 20.2C36.7886 20.2 36.1086 20.44 35.5486 20.92C35.0019 21.3867 34.6686 22.0133 34.5486 22.8H40.6086C40.5019 22.0267 40.1753 21.4 39.6286 20.92C39.0819 20.44 38.4019 20.2 37.5886 20.2ZM50.583 29.14C49.4763 29.14 48.483 28.9067 47.603 28.44C46.723 27.9733 46.0363 27.3267 45.543 26.5C45.0496 25.66 44.803 24.7133 44.803 23.66C44.803 22.6067 45.0496 21.6667 45.543 20.84C46.0363 20.0133 46.7163 19.3667 47.583 18.9C48.463 18.4333 49.463 18.2 50.583 18.2C51.6363 18.2 52.5563 18.4133 53.343 18.84C54.143 19.2667 54.743 19.88 55.143 20.68L53.223 21.8C52.9163 21.3067 52.5296 20.94 52.063 20.7C51.6096 20.4467 51.1096 20.32 50.563 20.32C49.6296 20.32 48.8563 20.6267 48.243 21.24C47.6296 21.84 47.323 22.6467 47.323 23.66C47.323 24.6733 47.623 25.4867 48.223 26.1C48.8363 26.7 49.6163 27 50.563 27C51.1096 27 51.6096 26.88 52.063 26.64C52.5296 26.3867 52.9163 26.0133 53.223 25.52L55.143 26.64C54.7296 27.44 54.123 28.06 53.323 28.5C52.5363 28.9267 51.623 29.14 50.583 29.14ZM65.7064 20.44H61.9664V29H59.4664V20.44H55.7064V18.32H65.7064V20.44ZM67.5198 18.32H70.0198V25.36L75.9198 18.32H78.1998V29H75.6998V21.96L69.8198 29H67.5198V18.32ZM87.4828 18.2C88.5228 18.2 89.4495 18.4267 90.2628 18.88C91.0895 19.3333 91.7361 19.9733 92.2028 20.8C92.6695 21.6267 92.9028 22.58 92.9028 23.66C92.9028 24.74 92.6695 25.7 92.2028 26.54C91.7361 27.3667 91.0895 28.0067 90.2628 28.46C89.4495 28.9133 88.5228 29.14 87.4828 29.14C86.0428 29.14 84.9028 28.66 84.0628 27.7V32.88H81.5628V18.32H83.9428V19.72C84.3561 19.2133 84.8628 18.8333 85.4628 18.58C86.0761 18.3267 86.7495 18.2 87.4828 18.2ZM87.2028 27C88.1228 27 88.8761 26.6933 89.4628 26.08C90.0628 25.4667 90.3628 24.66 90.3628 23.66C90.3628 22.66 90.0628 21.8533 89.4628 21.24C88.8761 20.6267 88.1228 20.32 87.2028 20.32C86.6028 20.32 86.0628 20.46 85.5828 20.74C85.1028 21.0067 84.7228 21.3933 84.4428 21.9C84.1628 22.4067 84.0228 22.9933 84.0228 23.66C84.0228 24.3267 84.1628 24.9133 84.4428 25.42C84.7228 25.9267 85.1028 26.32 85.5828 26.6C86.0628 26.8667 86.6028 27 87.2028 27ZM100.151 29.14C99.0709 29.14 98.0976 28.9067 97.2309 28.44C96.3643 27.9733 95.6843 27.3267 95.1909 26.5C94.7109 25.66 94.4709 24.7133 94.4709 23.66C94.4709 22.6067 94.7109 21.6667 95.1909 20.84C95.6843 20.0133 96.3643 19.3667 97.2309 18.9C98.0976 18.4333 99.0709 18.2 100.151 18.2C101.244 18.2 102.224 18.4333 103.091 18.9C103.958 19.3667 104.631 20.0133 105.111 20.84C105.604 21.6667 105.851 22.6067 105.851 23.66C105.851 24.7133 105.604 25.66 105.111 26.5C104.631 27.3267 103.958 27.9733 103.091 28.44C102.224 28.9067 101.244 29.14 100.151 29.14ZM100.151 27C101.071 27 101.831 26.6933 102.431 26.08C103.031 25.4667 103.331 24.66 103.331 23.66C103.331 22.66 103.031 21.8533 102.431 21.24C101.831 20.6267 101.071 20.32 100.151 20.32C99.2309 20.32 98.4709 20.6267 97.8709 21.24C97.2843 21.8533 96.9909 22.66 96.9909 23.66C96.9909 24.66 97.2843 25.4667 97.8709 26.08C98.4709 26.6933 99.2309 27 100.151 27ZM116.061 23.44C117.381 23.84 118.041 24.6933 118.041 26C118.041 26.96 117.681 27.7 116.961 28.22C116.241 28.74 115.174 29 113.761 29H108.321V18.32H113.541C114.847 18.32 115.867 18.56 116.601 19.04C117.334 19.52 117.701 20.2 117.701 21.08C117.701 21.6267 117.554 22.1 117.261 22.5C116.981 22.9 116.581 23.2133 116.061 23.44ZM110.701 22.78H113.321C114.614 22.78 115.261 22.3333 115.261 21.44C115.261 20.5733 114.614 20.14 113.321 20.14H110.701V22.78ZM113.561 27.18C114.934 27.18 115.621 26.7333 115.621 25.84C115.621 25.3733 115.461 25.0267 115.141 24.8C114.821 24.56 114.321 24.44 113.641 24.44H110.701V27.18H113.561ZM124.683 18.2C126.257 18.2 127.457 18.58 128.283 19.34C129.123 20.0867 129.543 21.22 129.543 22.74V29H127.183V27.7C126.877 28.1667 126.437 28.5267 125.863 28.78C125.303 29.02 124.623 29.14 123.823 29.14C123.023 29.14 122.323 29.0067 121.723 28.74C121.123 28.46 120.657 28.08 120.323 27.6C120.003 27.1067 119.843 26.5533 119.843 25.94C119.843 24.98 120.197 24.2133 120.903 23.64C121.623 23.0533 122.75 22.76 124.283 22.76H127.043V22.6C127.043 21.8533 126.817 21.28 126.363 20.88C125.923 20.48 125.263 20.28 124.383 20.28C123.783 20.28 123.19 20.3733 122.603 20.56C122.03 20.7467 121.543 21.0067 121.143 21.34L120.163 19.52C120.723 19.0933 121.397 18.7667 122.183 18.54C122.97 18.3133 123.803 18.2 124.683 18.2ZM124.343 27.32C124.97 27.32 125.523 27.18 126.003 26.9C126.497 26.6067 126.843 26.1933 127.043 25.66V24.42H124.463C123.023 24.42 122.303 24.8933 122.303 25.84C122.303 26.2933 122.483 26.6533 122.843 26.92C123.203 27.1867 123.703 27.32 124.343 27.32ZM132.637 18.32H135.137V22.66H140.517V18.32H143.017V29H140.517V24.78H135.137V29H132.637V18.32ZM146.368 18.32H148.868V25.36L154.768 18.32H157.048V29H154.548V21.96L148.668 29H146.368V18.32ZM170.41 23.72C170.41 23.8933 170.397 24.14 170.37 24.46H161.99C162.137 25.2467 162.517 25.8733 163.13 26.34C163.757 26.7933 164.53 27.02 165.45 27.02C166.624 27.02 167.59 26.6333 168.35 25.86L169.69 27.4C169.21 27.9733 168.604 28.4067 167.87 28.7C167.137 28.9933 166.31 29.14 165.39 29.14C164.217 29.14 163.184 28.9067 162.29 28.44C161.397 27.9733 160.704 27.3267 160.21 26.5C159.73 25.66 159.49 24.7133 159.49 23.66C159.49 22.62 159.724 21.6867 160.19 20.86C160.67 20.02 161.33 19.3667 162.17 18.9C163.01 18.4333 163.957 18.2 165.01 18.2C166.05 18.2 166.977 18.4333 167.79 18.9C168.617 19.3533 169.257 20 169.71 20.84C170.177 21.6667 170.41 22.6267 170.41 23.72ZM165.01 20.2C164.21 20.2 163.53 20.44 162.97 20.92C162.424 21.3867 162.09 22.0133 161.97 22.8H168.03C167.924 22.0267 167.597 21.4 167.05 20.92C166.504 20.44 165.824 20.2 165.01 20.2ZM186.872 20.44H181.172V29H178.672V18.32H186.872V20.44ZM188.692 18.32H191.192V25.36L197.092 18.32H199.372V29H196.872V21.96L190.992 29H188.692V18.32ZM212.975 18.32V29H210.495V20.44H205.235V29H202.735V18.32H212.975ZM221.108 29.14C220.028 29.14 219.055 28.9067 218.188 28.44C217.321 27.9733 216.641 27.3267 216.148 26.5C215.668 25.66 215.428 24.7133 215.428 23.66C215.428 22.6067 215.668 21.6667 216.148 20.84C216.641 20.0133 217.321 19.3667 218.188 18.9C219.055 18.4333 220.028 18.2 221.108 18.2C222.201 18.2 223.181 18.4333 224.048 18.9C224.915 19.3667 225.588 20.0133 226.068 20.84C226.561 21.6667 226.808 22.6067 226.808 23.66C226.808 24.7133 226.561 25.66 226.068 26.5C225.588 27.3267 224.915 27.9733 224.048 28.44C223.181 28.9067 222.201 29.14 221.108 29.14ZM221.108 27C222.028 27 222.788 26.6933 223.388 26.08C223.988 25.4667 224.288 24.66 224.288 23.66C224.288 22.66 223.988 21.8533 223.388 21.24C222.788 20.6267 222.028 20.32 221.108 20.32C220.188 20.32 219.428 20.6267 218.828 21.24C218.241 21.8533 217.948 22.66 217.948 23.66C217.948 24.66 218.241 25.4667 218.828 26.08C219.428 26.6933 220.188 27 221.108 27ZM237.347 20.44H233.607V29H231.107V20.44H227.347V18.32H237.347V20.44ZM248.692 23.72C248.692 23.8933 248.678 24.14 248.652 24.46H240.272C240.418 25.2467 240.798 25.8733 241.412 26.34C242.038 26.7933 242.812 27.02 243.732 27.02C244.905 27.02 245.872 26.6333 246.632 25.86L247.972 27.4C247.492 27.9733 246.885 28.4067 246.152 28.7C245.418 28.9933 244.592 29.14 243.672 29.14C242.498 29.14 241.465 28.9067 240.572 28.44C239.678 27.9733 238.985 27.3267 238.492 26.5C238.012 25.66 237.772 24.7133 237.772 23.66C237.772 22.62 238.005 21.6867 238.472 20.86C238.952 20.02 239.612 19.3667 240.452 18.9C241.292 18.4333 242.238 18.2 243.292 18.2C244.332 18.2 245.258 18.4333 246.072 18.9C246.898 19.3533 247.538 20 247.992 20.84C248.458 21.6667 248.692 22.6267 248.692 23.72ZM243.292 20.2C242.492 20.2 241.812 20.44 241.252 20.92C240.705 21.3867 240.372 22.0133 240.252 22.8H246.312C246.205 22.0267 245.878 21.4 245.332 20.92C244.785 20.44 244.105 20.2 243.292 20.2ZM257.611 23.44C258.277 23.6267 258.791 23.9333 259.151 24.36C259.524 24.7733 259.711 25.2733 259.711 25.86C259.711 26.5133 259.491 27.0933 259.051 27.6C258.611 28.0933 258.004 28.48 257.231 28.76C256.457 29.04 255.577 29.18 254.591 29.18C253.764 29.18 252.957 29.0867 252.171 28.9C251.384 28.7 250.671 28.42 250.031 28.06L250.751 26.2C251.271 26.4933 251.857 26.72 252.511 26.88C253.164 27.04 253.817 27.12 254.471 27.12C255.311 27.12 255.964 26.9933 256.431 26.74C256.911 26.4733 257.151 26.1133 257.151 25.66C257.151 25.2467 256.964 24.9267 256.591 24.7C256.231 24.4733 255.717 24.36 255.051 24.36H252.971V22.68H254.851C255.477 22.68 255.964 22.5733 256.311 22.36C256.671 22.1467 256.851 21.8467 256.851 21.46C256.851 21.0733 256.637 20.7667 256.211 20.54C255.784 20.3133 255.197 20.2 254.451 20.2C253.384 20.2 252.257 20.46 251.071 20.98L250.431 19.14C251.831 18.4867 253.244 18.16 254.671 18.16C255.577 18.16 256.391 18.2867 257.111 18.54C257.831 18.78 258.391 19.1267 258.791 19.58C259.204 20.02 259.411 20.5267 259.411 21.1C259.411 21.62 259.251 22.0867 258.931 22.5C258.611 22.9 258.171 23.2133 257.611 23.44Z" fill="white"/>
<path d="M32.12 17.2H27.48V29H24.9V17.2H20.28V15H32.12V17.2ZM42.9886 23.72C42.9886 23.8933 42.9753 24.14 42.9486 24.46H34.5686C34.7153 25.2467 35.0953 25.8733 35.7086 26.34C36.3353 26.7933 37.1086 27.02 38.0286 27.02C39.2019 27.02 40.1686 26.6333 40.9286 25.86L42.2686 27.4C41.7886 27.9733 41.1819 28.4067 40.4486 28.7C39.7153 28.9933 38.8886 29.14 37.9686 29.14C36.7953 29.14 35.7619 28.9067 34.8686 28.44C33.9753 27.9733 33.2819 27.3267 32.7886 26.5C32.3086 25.66 32.0686 24.7133 32.0686 23.66C32.0686 22.62 32.3019 21.6867 32.7686 20.86C33.2486 20.02 33.9086 19.3667 34.7486 18.9C35.5886 18.4333 36.5353 18.2 37.5886 18.2C38.6286 18.2 39.5553 18.4333 40.3686 18.9C41.1953 19.3533 41.8353 20 42.2886 20.84C42.7553 21.6667 42.9886 22.6267 42.9886 23.72ZM37.5886 20.2C36.7886 20.2 36.1086 20.44 35.5486 20.92C35.0019 21.3867 34.6686 22.0133 34.5486 22.8H40.6086C40.5019 22.0267 40.1753 21.4 39.6286 20.92C39.0819 20.44 38.4019 20.2 37.5886 20.2ZM50.583 29.14C49.4763 29.14 48.483 28.9067 47.603 28.44C46.723 27.9733 46.0363 27.3267 45.543 26.5C45.0496 25.66 44.803 24.7133 44.803 23.66C44.803 22.6067 45.0496 21.6667 45.543 20.84C46.0363 20.0133 46.7163 19.3667 47.583 18.9C48.463 18.4333 49.463 18.2 50.583 18.2C51.6363 18.2 52.5563 18.4133 53.343 18.84C54.143 19.2667 54.743 19.88 55.143 20.68L53.223 21.8C52.9163 21.3067 52.5296 20.94 52.063 20.7C51.6096 20.4467 51.1096 20.32 50.563 20.32C49.6296 20.32 48.8563 20.6267 48.243 21.24C47.6296 21.84 47.323 22.6467 47.323 23.66C47.323 24.6733 47.623 25.4867 48.223 26.1C48.8363 26.7 49.6163 27 50.563 27C51.1096 27 51.6096 26.88 52.063 26.64C52.5296 26.3867 52.9163 26.0133 53.223 25.52L55.143 26.64C54.7296 27.44 54.123 28.06 53.323 28.5C52.5363 28.9267 51.623 29.14 50.583 29.14ZM65.7064 20.44H61.9664V29H59.4664V20.44H55.7064V18.32H65.7064V20.44ZM67.5198 18.32H70.0198V25.36L75.9198 18.32H78.1998V29H75.6998V21.96L69.8198 29H67.5198V18.32ZM87.4828 18.2C88.5228 18.2 89.4495 18.4267 90.2628 18.88C91.0895 19.3333 91.7361 19.9733 92.2028 20.8C92.6695 21.6267 92.9028 22.58 92.9028 23.66C92.9028 24.74 92.6695 25.7 92.2028 26.54C91.7361 27.3667 91.0895 28.0067 90.2628 28.46C89.4495 28.9133 88.5228 29.14 87.4828 29.14C86.0428 29.14 84.9028 28.66 84.0628 27.7V32.88H81.5628V18.32H83.9428V19.72C84.3561 19.2133 84.8628 18.8333 85.4628 18.58C86.0761 18.3267 86.7495 18.2 87.4828 18.2ZM87.2028 27C88.1228 27 88.8761 26.6933 89.4628 26.08C90.0628 25.4667 90.3628 24.66 90.3628 23.66C90.3628 22.66 90.0628 21.8533 89.4628 21.24C88.8761 20.6267 88.1228 20.32 87.2028 20.32C86.6028 20.32 86.0628 20.46 85.5828 20.74C85.1028 21.0067 84.7228 21.3933 84.4428 21.9C84.1628 22.4067 84.0228 22.9933 84.0228 23.66C84.0228 24.3267 84.1628 24.9133 84.4428 25.42C84.7228 25.9267 85.1028 26.32 85.5828 26.6C86.0628 26.8667 86.6028 27 87.2028 27ZM100.151 29.14C99.0709 29.14 98.0976 28.9067 97.2309 28.44C96.3643 27.9733 95.6843 27.3267 95.1909 26.5C94.7109 25.66 94.4709 24.7133 94.4709 23.66C94.4709 22.6067 94.7109 21.6667 95.1909 20.84C95.6843 20.0133 96.3643 19.3667 97.2309 18.9C98.0976 18.4333 99.0709 18.2 100.151 18.2C101.244 18.2 102.224 18.4333 103.091 18.9C103.958 19.3667 104.631 20.0133 105.111 20.84C105.604 21.6667 105.851 22.6067 105.851 23.66C105.851 24.7133 105.604 25.66 105.111 26.5C104.631 27.3267 103.958 27.9733 103.091 28.44C102.224 28.9067 101.244 29.14 100.151 29.14ZM100.151 27C101.071 27 101.831 26.6933 102.431 26.08C103.031 25.4667 103.331 24.66 103.331 23.66C103.331 22.66 103.031 21.8533 102.431 21.24C101.831 20.6267 101.071 20.32 100.151 20.32C99.2309 20.32 98.4709 20.6267 97.8709 21.24C97.2843 21.8533 96.9909 22.66 96.9909 23.66C96.9909 24.66 97.2843 25.4667 97.8709 26.08C98.4709 26.6933 99.2309 27 100.151 27ZM116.061 23.44C117.381 23.84 118.041 24.6933 118.041 26C118.041 26.96 117.681 27.7 116.961 28.22C116.241 28.74 115.174 29 113.761 29H108.321V18.32H113.541C114.847 18.32 115.867 18.56 116.601 19.04C117.334 19.52 117.701 20.2 117.701 21.08C117.701 21.6267 117.554 22.1 117.261 22.5C116.981 22.9 116.581 23.2133 116.061 23.44ZM110.701 22.78H113.321C114.614 22.78 115.261 22.3333 115.261 21.44C115.261 20.5733 114.614 20.14 113.321 20.14H110.701V22.78ZM113.561 27.18C114.934 27.18 115.621 26.7333 115.621 25.84C115.621 25.3733 115.461 25.0267 115.141 24.8C114.821 24.56 114.321 24.44 113.641 24.44H110.701V27.18H113.561ZM124.683 18.2C126.257 18.2 127.457 18.58 128.283 19.34C129.123 20.0867 129.543 21.22 129.543 22.74V29H127.183V27.7C126.877 28.1667 126.437 28.5267 125.863 28.78C125.303 29.02 124.623 29.14 123.823 29.14C123.023 29.14 122.323 29.0067 121.723 28.74C121.123 28.46 120.657 28.08 120.323 27.6C120.003 27.1067 119.843 26.5533 119.843 25.94C119.843 24.98 120.197 24.2133 120.903 23.64C121.623 23.0533 122.75 22.76 124.283 22.76H127.043V22.6C127.043 21.8533 126.817 21.28 126.363 20.88C125.923 20.48 125.263 20.28 124.383 20.28C123.783 20.28 123.19 20.3733 122.603 20.56C122.03 20.7467 121.543 21.0067 121.143 21.34L120.163 19.52C120.723 19.0933 121.397 18.7667 122.183 18.54C122.97 18.3133 123.803 18.2 124.683 18.2ZM124.343 27.32C124.97 27.32 125.523 27.18 126.003 26.9C126.497 26.6067 126.843 26.1933 127.043 25.66V24.42H124.463C123.023 24.42 122.303 24.8933 122.303 25.84C122.303 26.2933 122.483 26.6533 122.843 26.92C123.203 27.1867 123.703 27.32 124.343 27.32ZM132.637 18.32H135.137V22.66H140.517V18.32H143.017V29H140.517V24.78H135.137V29H132.637V18.32ZM146.368 18.32H148.868V25.36L154.768 18.32H157.048V29H154.548V21.96L148.668 29H146.368V18.32ZM170.41 23.72C170.41 23.8933 170.397 24.14 170.37 24.46H161.99C162.137 25.2467 162.517 25.8733 163.13 26.34C163.757 26.7933 164.53 27.02 165.45 27.02C166.624 27.02 167.59 26.6333 168.35 25.86L169.69 27.4C169.21 27.9733 168.604 28.4067 167.87 28.7C167.137 28.9933 166.31 29.14 165.39 29.14C164.217 29.14 163.184 28.9067 162.29 28.44C161.397 27.9733 160.704 27.3267 160.21 26.5C159.73 25.66 159.49 24.7133 159.49 23.66C159.49 22.62 159.724 21.6867 160.19 20.86C160.67 20.02 161.33 19.3667 162.17 18.9C163.01 18.4333 163.957 18.2 165.01 18.2C166.05 18.2 166.977 18.4333 167.79 18.9C168.617 19.3533 169.257 20 169.71 20.84C170.177 21.6667 170.41 22.6267 170.41 23.72ZM165.01 20.2C164.21 20.2 163.53 20.44 162.97 20.92C162.424 21.3867 162.09 22.0133 161.97 22.8H168.03C167.924 22.0267 167.597 21.4 167.05 20.92C166.504 20.44 165.824 20.2 165.01 20.2ZM186.872 20.44H181.172V29H178.672V18.32H186.872V20.44ZM188.692 18.32H191.192V25.36L197.092 18.32H199.372V29H196.872V21.96L190.992 29H188.692V18.32ZM212.975 18.32V29H210.495V20.44H205.235V29H202.735V18.32H212.975ZM221.108 29.14C220.028 29.14 219.055 28.9067 218.188 28.44C217.321 27.9733 216.641 27.3267 216.148 26.5C215.668 25.66 215.428 24.7133 215.428 23.66C215.428 22.6067 215.668 21.6667 216.148 20.84C216.641 20.0133 217.321 19.3667 218.188 18.9C219.055 18.4333 220.028 18.2 221.108 18.2C222.201 18.2 223.181 18.4333 224.048 18.9C224.915 19.3667 225.588 20.0133 226.068 20.84C226.561 21.6667 226.808 22.6067 226.808 23.66C226.808 24.7133 226.561 25.66 226.068 26.5C225.588 27.3267 224.915 27.9733 224.048 28.44C223.181 28.9067 222.201 29.14 221.108 29.14ZM221.108 27C222.028 27 222.788 26.6933 223.388 26.08C223.988 25.4667 224.288 24.66 224.288 23.66C224.288 22.66 223.988 21.8533 223.388 21.24C222.788 20.6267 222.028 20.32 221.108 20.32C220.188 20.32 219.428 20.6267 218.828 21.24C218.241 21.8533 217.948 22.66 217.948 23.66C217.948 24.66 218.241 25.4667 218.828 26.08C219.428 26.6933 220.188 27 221.108 27ZM237.347 20.44H233.607V29H231.107V20.44H227.347V18.32H237.347V20.44ZM248.692 23.72C248.692 23.8933 248.678 24.14 248.652 24.46H240.272C240.418 25.2467 240.798 25.8733 241.412 26.34C242.038 26.7933 242.812 27.02 243.732 27.02C244.905 27.02 245.872 26.6333 246.632 25.86L247.972 27.4C247.492 27.9733 246.885 28.4067 246.152 28.7C245.418 28.9933 244.592 29.14 243.672 29.14C242.498 29.14 241.465 28.9067 240.572 28.44C239.678 27.9733 238.985 27.3267 238.492 26.5C238.012 25.66 237.772 24.7133 237.772 23.66C237.772 22.62 238.005 21.6867 238.472 20.86C238.952 20.02 239.612 19.3667 240.452 18.9C241.292 18.4333 242.238 18.2 243.292 18.2C244.332 18.2 245.258 18.4333 246.072 18.9C246.898 19.3533 247.538 20 247.992 20.84C248.458 21.6667 248.692 22.6267 248.692 23.72ZM243.292 20.2C242.492 20.2 241.812 20.44 241.252 20.92C240.705 21.3867 240.372 22.0133 240.252 22.8H246.312C246.205 22.0267 245.878 21.4 245.332 20.92C244.785 20.44 244.105 20.2 243.292 20.2ZM257.611 23.44C258.277 23.6267 258.791 23.9333 259.151 24.36C259.524 24.7733 259.711 25.2733 259.711 25.86C259.711 26.5133 259.491 27.0933 259.051 27.6C258.611 28.0933 258.004 28.48 257.231 28.76C256.457 29.04 255.577 29.18 254.591 29.18C253.764 29.18 252.957 29.0867 252.171 28.9C251.384 28.7 250.671 28.42 250.031 28.06L250.751 26.2C251.271 26.4933 251.857 26.72 252.511 26.88C253.164 27.04 253.817 27.12 254.471 27.12C255.311 27.12 255.964 26.9933 256.431 26.74C256.911 26.4733 257.151 26.1133 257.151 25.66C257.151 25.2467 256.964 24.9267 256.591 24.7C256.231 24.4733 255.717 24.36 255.051 24.36H252.971V22.68H254.851C255.477 22.68 255.964 22.5733 256.311 22.36C256.671 22.1467 256.851 21.8467 256.851 21.46C256.851 21.0733 256.637 20.7667 256.211 20.54C255.784 20.3133 255.197 20.2 254.451 20.2C253.384 20.2 252.257 20.46 251.071 20.98L250.431 19.14C251.831 18.4867 253.244 18.16 254.671 18.16C255.577 18.16 256.391 18.2867 257.111 18.54C257.831 18.78 258.391 19.1267 258.791 19.58C259.204 20.02 259.411 20.5267 259.411 21.1C259.411 21.62 259.251 22.0867 258.931 22.5C258.611 22.9 258.171 23.2133 257.611 23.44Z" fill="#D6D6D6"/>
<rect x="157.5" y="66" width="272" height="42" rx="21" fill="#282828"/>
<rect x="157.5" y="66" width="272" height="42" rx="21" stroke="#515151" stroke-width="2"/>
<path d="M187.68 86.72C188.573 86.96 189.253 87.3733 189.72 87.96C190.187 88.5333 190.42 89.2533 190.42 90.12C190.42 91.3467 189.967 92.3 189.06 92.98C188.153 93.66 186.84 94 185.12 94H178.48V80H184.74C186.313 80 187.54 80.3133 188.42 80.94C189.3 81.5667 189.74 82.4533 189.74 83.6C189.74 84.3333 189.56 84.9667 189.2 85.5C188.853 86.0333 188.347 86.44 187.68 86.72ZM181.04 85.98H184.52C185.36 85.98 186 85.8133 186.44 85.48C186.88 85.1467 187.1 84.6533 187.1 84C187.1 83.3467 186.88 82.8533 186.44 82.52C186 82.1733 185.36 82 184.52 82H181.04V85.98ZM185.04 92C186.88 92 187.8 91.3067 187.8 89.92C187.8 88.56 186.88 87.88 185.04 87.88H181.04V92H185.04ZM193.102 83.32H195.602V87.66H200.982V83.32H203.482V94H200.982V89.78H195.602V94H193.102V83.32ZM216.832 88.72C216.832 88.8933 216.819 89.14 216.792 89.46H208.412C208.559 90.2467 208.939 90.8733 209.552 91.34C210.179 91.7933 210.952 92.02 211.872 92.02C213.046 92.02 214.012 91.6333 214.772 90.86L216.112 92.4C215.632 92.9733 215.026 93.4067 214.292 93.7C213.559 93.9933 212.732 94.14 211.812 94.14C210.639 94.14 209.606 93.9067 208.712 93.44C207.819 92.9733 207.126 92.3267 206.632 91.5C206.152 90.66 205.912 89.7133 205.912 88.66C205.912 87.62 206.146 86.6867 206.612 85.86C207.092 85.02 207.752 84.3667 208.592 83.9C209.432 83.4333 210.379 83.2 211.432 83.2C212.472 83.2 213.399 83.4333 214.212 83.9C215.039 84.3533 215.679 85 216.132 85.84C216.599 86.6667 216.832 87.6267 216.832 88.72ZM211.432 85.2C210.632 85.2 209.952 85.44 209.392 85.92C208.846 86.3867 208.512 87.0133 208.392 87.8H214.452C214.346 87.0267 214.019 86.4 213.472 85.92C212.926 85.44 212.246 85.2 211.432 85.2ZM224.427 94.14C223.32 94.14 222.327 93.9067 221.447 93.44C220.567 92.9733 219.88 92.3267 219.387 91.5C218.893 90.66 218.647 89.7133 218.647 88.66C218.647 87.6067 218.893 86.6667 219.387 85.84C219.88 85.0133 220.56 84.3667 221.427 83.9C222.307 83.4333 223.307 83.2 224.427 83.2C225.48 83.2 226.4 83.4133 227.187 83.84C227.987 84.2667 228.587 84.88 228.987 85.68L227.067 86.8C226.76 86.3067 226.373 85.94 225.907 85.7C225.453 85.4467 224.953 85.32 224.407 85.32C223.473 85.32 222.7 85.6267 222.087 86.24C221.473 86.84 221.167 87.6467 221.167 88.66C221.167 89.6733 221.467 90.4867 222.067 91.1C222.68 91.7 223.46 92 224.407 92C224.953 92 225.453 91.88 225.907 91.64C226.373 91.3867 226.76 91.0133 227.067 90.52L228.987 91.64C228.573 92.44 227.967 93.06 227.167 93.5C226.38 93.9267 225.467 94.14 224.427 94.14ZM241.032 88.72C241.032 88.8933 241.018 89.14 240.992 89.46H232.612C232.758 90.2467 233.138 90.8733 233.752 91.34C234.378 91.7933 235.152 92.02 236.072 92.02C237.245 92.02 238.212 91.6333 238.972 90.86L240.312 92.4C239.832 92.9733 239.225 93.4067 238.492 93.7C237.758 93.9933 236.932 94.14 236.012 94.14C234.838 94.14 233.805 93.9067 232.912 93.44C232.018 92.9733 231.325 92.3267 230.832 91.5C230.352 90.66 230.112 89.7133 230.112 88.66C230.112 87.62 230.345 86.6867 230.812 85.86C231.292 85.02 231.952 84.3667 232.792 83.9C233.632 83.4333 234.578 83.2 235.632 83.2C236.672 83.2 237.598 83.4333 238.412 83.9C239.238 84.3533 239.878 85 240.332 85.84C240.798 86.6667 241.032 87.6267 241.032 88.72ZM235.632 85.2C234.832 85.2 234.152 85.44 233.592 85.92C233.045 86.3867 232.712 87.0133 232.592 87.8H238.652C238.545 87.0267 238.218 86.4 237.672 85.92C237.125 85.44 236.445 85.2 235.632 85.2ZM243.766 83.32H246.266V87.66H251.646V83.32H254.146V94H251.646V89.78H246.266V94H243.766V83.32ZM257.496 83.32H259.996V90.36L265.896 83.32H268.176V94H265.676V86.96L259.796 94H257.496V83.32ZM281.539 88.72C281.539 88.8933 281.526 89.14 281.499 89.46H273.119C273.266 90.2467 273.646 90.8733 274.259 91.34C274.886 91.7933 275.659 92.02 276.579 92.02C277.753 92.02 278.719 91.6333 279.479 90.86L280.819 92.4C280.339 92.9733 279.733 93.4067 278.999 93.7C278.266 93.9933 277.439 94.14 276.519 94.14C275.346 94.14 274.313 93.9067 273.419 93.44C272.526 92.9733 271.833 92.3267 271.339 91.5C270.859 90.66 270.619 89.7133 270.619 88.66C270.619 87.62 270.853 86.6867 271.319 85.86C271.799 85.02 272.459 84.3667 273.299 83.9C274.139 83.4333 275.086 83.2 276.139 83.2C277.179 83.2 278.106 83.4333 278.919 83.9C279.746 84.3533 280.386 85 280.839 85.84C281.306 86.6667 281.539 87.6267 281.539 88.72ZM276.139 85.2C275.339 85.2 274.659 85.44 274.099 85.92C273.553 86.3867 273.219 87.0133 273.099 87.8H279.159C279.053 87.0267 278.726 86.4 278.179 85.92C277.633 85.44 276.953 85.2 276.139 85.2ZM289.801 83.32H292.301V90.36L298.201 83.32H300.481V94H297.981V86.96L292.101 94H289.801V83.32ZM310.087 88.44C310.754 88.6267 311.267 88.9333 311.627 89.36C312.001 89.7733 312.187 90.2733 312.187 90.86C312.187 91.5133 311.967 92.0933 311.527 92.6C311.087 93.0933 310.481 93.48 309.707 93.76C308.934 94.04 308.054 94.18 307.067 94.18C306.241 94.18 305.434 94.0867 304.647 93.9C303.861 93.7 303.147 93.42 302.507 93.06L303.227 91.2C303.747 91.4933 304.334 91.72 304.987 91.88C305.641 92.04 306.294 92.12 306.947 92.12C307.787 92.12 308.441 91.9933 308.907 91.74C309.387 91.4733 309.627 91.1133 309.627 90.66C309.627 90.2467 309.441 89.9267 309.067 89.7C308.707 89.4733 308.194 89.36 307.527 89.36H305.447V87.68H307.327C307.954 87.68 308.441 87.5733 308.787 87.36C309.147 87.1467 309.327 86.8467 309.327 86.46C309.327 86.0733 309.114 85.7667 308.687 85.54C308.261 85.3133 307.674 85.2 306.927 85.2C305.861 85.2 304.734 85.46 303.547 85.98L302.907 84.14C304.307 83.4867 305.721 83.16 307.147 83.16C308.054 83.16 308.867 83.2867 309.587 83.54C310.307 83.78 310.867 84.1267 311.267 84.58C311.681 85.02 311.887 85.5267 311.887 86.1C311.887 86.62 311.727 87.0867 311.407 87.5C311.087 87.9 310.647 88.2133 310.087 88.44ZM325.282 94V86.92L321.682 92.88H320.602L317.062 86.9V94H314.782V83.32H317.402L321.202 90L325.182 83.32H327.522L327.542 94H325.282ZM340.895 88.72C340.895 88.8933 340.882 89.14 340.855 89.46H332.475C332.622 90.2467 333.002 90.8733 333.615 91.34C334.242 91.7933 335.015 92.02 335.935 92.02C337.108 92.02 338.075 91.6333 338.835 90.86L340.175 92.4C339.695 92.9733 339.088 93.4067 338.355 93.7C337.622 93.9933 336.795 94.14 335.875 94.14C334.702 94.14 333.668 93.9067 332.775 93.44C331.882 92.9733 331.188 92.3267 330.695 91.5C330.215 90.66 329.975 89.7133 329.975 88.66C329.975 87.62 330.208 86.6867 330.675 85.86C331.155 85.02 331.815 84.3667 332.655 83.9C333.495 83.4333 334.442 83.2 335.495 83.2C336.535 83.2 337.462 83.4333 338.275 83.9C339.102 84.3533 339.742 85 340.195 85.84C340.662 86.6667 340.895 87.6267 340.895 88.72ZM335.495 85.2C334.695 85.2 334.015 85.44 333.455 85.92C332.908 86.3867 332.575 87.0133 332.455 87.8H338.515C338.408 87.0267 338.082 86.4 337.535 85.92C336.988 85.44 336.308 85.2 335.495 85.2ZM343.629 83.32H346.129V87.66H351.509V83.32H354.009V94H351.509V89.78H346.129V94H343.629V83.32ZM367.36 88.72C367.36 88.8933 367.346 89.14 367.32 89.46H358.94C359.086 90.2467 359.466 90.8733 360.08 91.34C360.706 91.7933 361.48 92.02 362.4 92.02C363.573 92.02 364.54 91.6333 365.3 90.86L366.64 92.4C366.16 92.9733 365.553 93.4067 364.82 93.7C364.086 93.9933 363.26 94.14 362.34 94.14C361.166 94.14 360.133 93.9067 359.24 93.44C358.346 92.9733 357.653 92.3267 357.16 91.5C356.68 90.66 356.44 89.7133 356.44 88.66C356.44 87.62 356.673 86.6867 357.14 85.86C357.62 85.02 358.28 84.3667 359.12 83.9C359.96 83.4333 360.906 83.2 361.96 83.2C363 83.2 363.926 83.4333 364.74 83.9C365.566 84.3533 366.206 85 366.66 85.84C367.126 86.6667 367.36 87.6267 367.36 88.72ZM361.96 85.2C361.16 85.2 360.48 85.44 359.92 85.92C359.373 86.3867 359.04 87.0133 358.92 87.8H364.98C364.873 87.0267 364.546 86.4 364 85.92C363.453 85.44 362.773 85.2 361.96 85.2ZM370.094 83.32H372.594V87.66H377.974V83.32H380.474V94H377.974V89.78H372.594V94H370.094V83.32ZM383.825 83.32H386.325V90.36L392.225 83.32H394.505V94H392.005V86.96L386.125 94H383.825V83.32ZM397.868 83.32H400.368V90.36L406.268 83.32H408.548V94H406.048V86.96L400.168 94H397.868V83.32ZM403.048 82.06C401.968 82.06 401.141 81.8133 400.568 81.32C400.008 80.8133 399.721 80.08 399.708 79.12H401.368C401.381 79.6 401.528 79.98 401.808 80.26C402.101 80.54 402.508 80.68 403.028 80.68C403.534 80.68 403.934 80.54 404.228 80.26C404.534 79.98 404.694 79.6 404.708 79.12H406.408C406.394 80.08 406.101 80.8133 405.528 81.32C404.954 81.8133 404.128 82.06 403.048 82.06Z" fill="white"/>
<path d="M187.68 86.72C188.573 86.96 189.253 87.3733 189.72 87.96C190.187 88.5333 190.42 89.2533 190.42 90.12C190.42 91.3467 189.967 92.3 189.06 92.98C188.153 93.66 186.84 94 185.12 94H178.48V80H184.74C186.313 80 187.54 80.3133 188.42 80.94C189.3 81.5667 189.74 82.4533 189.74 83.6C189.74 84.3333 189.56 84.9667 189.2 85.5C188.853 86.0333 188.347 86.44 187.68 86.72ZM181.04 85.98H184.52C185.36 85.98 186 85.8133 186.44 85.48C186.88 85.1467 187.1 84.6533 187.1 84C187.1 83.3467 186.88 82.8533 186.44 82.52C186 82.1733 185.36 82 184.52 82H181.04V85.98ZM185.04 92C186.88 92 187.8 91.3067 187.8 89.92C187.8 88.56 186.88 87.88 185.04 87.88H181.04V92H185.04ZM193.102 83.32H195.602V87.66H200.982V83.32H203.482V94H200.982V89.78H195.602V94H193.102V83.32ZM216.832 88.72C216.832 88.8933 216.819 89.14 216.792 89.46H208.412C208.559 90.2467 208.939 90.8733 209.552 91.34C210.179 91.7933 210.952 92.02 211.872 92.02C213.046 92.02 214.012 91.6333 214.772 90.86L216.112 92.4C215.632 92.9733 215.026 93.4067 214.292 93.7C213.559 93.9933 212.732 94.14 211.812 94.14C210.639 94.14 209.606 93.9067 208.712 93.44C207.819 92.9733 207.126 92.3267 206.632 91.5C206.152 90.66 205.912 89.7133 205.912 88.66C205.912 87.62 206.146 86.6867 206.612 85.86C207.092 85.02 207.752 84.3667 208.592 83.9C209.432 83.4333 210.379 83.2 211.432 83.2C212.472 83.2 213.399 83.4333 214.212 83.9C215.039 84.3533 215.679 85 216.132 85.84C216.599 86.6667 216.832 87.6267 216.832 88.72ZM211.432 85.2C210.632 85.2 209.952 85.44 209.392 85.92C208.846 86.3867 208.512 87.0133 208.392 87.8H214.452C214.346 87.0267 214.019 86.4 213.472 85.92C212.926 85.44 212.246 85.2 211.432 85.2ZM224.427 94.14C223.32 94.14 222.327 93.9067 221.447 93.44C220.567 92.9733 219.88 92.3267 219.387 91.5C218.893 90.66 218.647 89.7133 218.647 88.66C218.647 87.6067 218.893 86.6667 219.387 85.84C219.88 85.0133 220.56 84.3667 221.427 83.9C222.307 83.4333 223.307 83.2 224.427 83.2C225.48 83.2 226.4 83.4133 227.187 83.84C227.987 84.2667 228.587 84.88 228.987 85.68L227.067 86.8C226.76 86.3067 226.373 85.94 225.907 85.7C225.453 85.4467 224.953 85.32 224.407 85.32C223.473 85.32 222.7 85.6267 222.087 86.24C221.473 86.84 221.167 87.6467 221.167 88.66C221.167 89.6733 221.467 90.4867 222.067 91.1C222.68 91.7 223.46 92 224.407 92C224.953 92 225.453 91.88 225.907 91.64C226.373 91.3867 226.76 91.0133 227.067 90.52L228.987 91.64C228.573 92.44 227.967 93.06 227.167 93.5C226.38 93.9267 225.467 94.14 224.427 94.14ZM241.032 88.72C241.032 88.8933 241.018 89.14 240.992 89.46H232.612C232.758 90.2467 233.138 90.8733 233.752 91.34C234.378 91.7933 235.152 92.02 236.072 92.02C237.245 92.02 238.212 91.6333 238.972 90.86L240.312 92.4C239.832 92.9733 239.225 93.4067 238.492 93.7C237.758 93.9933 236.932 94.14 236.012 94.14C234.838 94.14 233.805 93.9067 232.912 93.44C232.018 92.9733 231.325 92.3267 230.832 91.5C230.352 90.66 230.112 89.7133 230.112 88.66C230.112 87.62 230.345 86.6867 230.812 85.86C231.292 85.02 231.952 84.3667 232.792 83.9C233.632 83.4333 234.578 83.2 235.632 83.2C236.672 83.2 237.598 83.4333 238.412 83.9C239.238 84.3533 239.878 85 240.332 85.84C240.798 86.6667 241.032 87.6267 241.032 88.72ZM235.632 85.2C234.832 85.2 234.152 85.44 233.592 85.92C233.045 86.3867 232.712 87.0133 232.592 87.8H238.652C238.545 87.0267 238.218 86.4 237.672 85.92C237.125 85.44 236.445 85.2 235.632 85.2ZM243.766 83.32H246.266V87.66H251.646V83.32H254.146V94H251.646V89.78H246.266V94H243.766V83.32ZM257.496 83.32H259.996V90.36L265.896 83.32H268.176V94H265.676V86.96L259.796 94H257.496V83.32ZM281.539 88.72C281.539 88.8933 281.526 89.14 281.499 89.46H273.119C273.266 90.2467 273.646 90.8733 274.259 91.34C274.886 91.7933 275.659 92.02 276.579 92.02C277.753 92.02 278.719 91.6333 279.479 90.86L280.819 92.4C280.339 92.9733 279.733 93.4067 278.999 93.7C278.266 93.9933 277.439 94.14 276.519 94.14C275.346 94.14 274.313 93.9067 273.419 93.44C272.526 92.9733 271.833 92.3267 271.339 91.5C270.859 90.66 270.619 89.7133 270.619 88.66C270.619 87.62 270.853 86.6867 271.319 85.86C271.799 85.02 272.459 84.3667 273.299 83.9C274.139 83.4333 275.086 83.2 276.139 83.2C277.179 83.2 278.106 83.4333 278.919 83.9C279.746 84.3533 280.386 85 280.839 85.84C281.306 86.6667 281.539 87.6267 281.539 88.72ZM276.139 85.2C275.339 85.2 274.659 85.44 274.099 85.92C273.553 86.3867 273.219 87.0133 273.099 87.8H279.159C279.053 87.0267 278.726 86.4 278.179 85.92C277.633 85.44 276.953 85.2 276.139 85.2ZM289.801 83.32H292.301V90.36L298.201 83.32H300.481V94H297.981V86.96L292.101 94H289.801V83.32ZM310.087 88.44C310.754 88.6267 311.267 88.9333 311.627 89.36C312.001 89.7733 312.187 90.2733 312.187 90.86C312.187 91.5133 311.967 92.0933 311.527 92.6C311.087 93.0933 310.481 93.48 309.707 93.76C308.934 94.04 308.054 94.18 307.067 94.18C306.241 94.18 305.434 94.0867 304.647 93.9C303.861 93.7 303.147 93.42 302.507 93.06L303.227 91.2C303.747 91.4933 304.334 91.72 304.987 91.88C305.641 92.04 306.294 92.12 306.947 92.12C307.787 92.12 308.441 91.9933 308.907 91.74C309.387 91.4733 309.627 91.1133 309.627 90.66C309.627 90.2467 309.441 89.9267 309.067 89.7C308.707 89.4733 308.194 89.36 307.527 89.36H305.447V87.68H307.327C307.954 87.68 308.441 87.5733 308.787 87.36C309.147 87.1467 309.327 86.8467 309.327 86.46C309.327 86.0733 309.114 85.7667 308.687 85.54C308.261 85.3133 307.674 85.2 306.927 85.2C305.861 85.2 304.734 85.46 303.547 85.98L302.907 84.14C304.307 83.4867 305.721 83.16 307.147 83.16C308.054 83.16 308.867 83.2867 309.587 83.54C310.307 83.78 310.867 84.1267 311.267 84.58C311.681 85.02 311.887 85.5267 311.887 86.1C311.887 86.62 311.727 87.0867 311.407 87.5C311.087 87.9 310.647 88.2133 310.087 88.44ZM325.282 94V86.92L321.682 92.88H320.602L317.062 86.9V94H314.782V83.32H317.402L321.202 90L325.182 83.32H327.522L327.542 94H325.282ZM340.895 88.72C340.895 88.8933 340.882 89.14 340.855 89.46H332.475C332.622 90.2467 333.002 90.8733 333.615 91.34C334.242 91.7933 335.015 92.02 335.935 92.02C337.108 92.02 338.075 91.6333 338.835 90.86L340.175 92.4C339.695 92.9733 339.088 93.4067 338.355 93.7C337.622 93.9933 336.795 94.14 335.875 94.14C334.702 94.14 333.668 93.9067 332.775 93.44C331.882 92.9733 331.188 92.3267 330.695 91.5C330.215 90.66 329.975 89.7133 329.975 88.66C329.975 87.62 330.208 86.6867 330.675 85.86C331.155 85.02 331.815 84.3667 332.655 83.9C333.495 83.4333 334.442 83.2 335.495 83.2C336.535 83.2 337.462 83.4333 338.275 83.9C339.102 84.3533 339.742 85 340.195 85.84C340.662 86.6667 340.895 87.6267 340.895 88.72ZM335.495 85.2C334.695 85.2 334.015 85.44 333.455 85.92C332.908 86.3867 332.575 87.0133 332.455 87.8H338.515C338.408 87.0267 338.082 86.4 337.535 85.92C336.988 85.44 336.308 85.2 335.495 85.2ZM343.629 83.32H346.129V87.66H351.509V83.32H354.009V94H351.509V89.78H346.129V94H343.629V83.32ZM367.36 88.72C367.36 88.8933 367.346 89.14 367.32 89.46H358.94C359.086 90.2467 359.466 90.8733 360.08 91.34C360.706 91.7933 361.48 92.02 362.4 92.02C363.573 92.02 364.54 91.6333 365.3 90.86L366.64 92.4C366.16 92.9733 365.553 93.4067 364.82 93.7C364.086 93.9933 363.26 94.14 362.34 94.14C361.166 94.14 360.133 93.9067 359.24 93.44C358.346 92.9733 357.653 92.3267 357.16 91.5C356.68 90.66 356.44 89.7133 356.44 88.66C356.44 87.62 356.673 86.6867 357.14 85.86C357.62 85.02 358.28 84.3667 359.12 83.9C359.96 83.4333 360.906 83.2 361.96 83.2C363 83.2 363.926 83.4333 364.74 83.9C365.566 84.3533 366.206 85 366.66 85.84C367.126 86.6667 367.36 87.6267 367.36 88.72ZM361.96 85.2C361.16 85.2 360.48 85.44 359.92 85.92C359.373 86.3867 359.04 87.0133 358.92 87.8H364.98C364.873 87.0267 364.546 86.4 364 85.92C363.453 85.44 362.773 85.2 361.96 85.2ZM370.094 83.32H372.594V87.66H377.974V83.32H380.474V94H377.974V89.78H372.594V94H370.094V83.32ZM383.825 83.32H386.325V90.36L392.225 83.32H394.505V94H392.005V86.96L386.125 94H383.825V83.32ZM397.868 83.32H400.368V90.36L406.268 83.32H408.548V94H406.048V86.96L400.168 94H397.868V83.32ZM403.048 82.06C401.968 82.06 401.141 81.8133 400.568 81.32C400.008 80.8133 399.721 80.08 399.708 79.12H401.368C401.381 79.6 401.528 79.98 401.808 80.26C402.101 80.54 402.508 80.68 403.028 80.68C403.534 80.68 403.934 80.54 404.228 80.26C404.534 79.98 404.694 79.6 404.708 79.12H406.408C406.394 80.08 406.101 80.8133 405.528 81.32C404.954 81.8133 404.128 82.06 403.048 82.06Z" fill="#D6D6D6"/>
<rect x="56" y="131" width="244" height="42" rx="21" fill="#282828"/>
<rect x="56" y="131" width="244" height="42" rx="21" stroke="#515151" stroke-width="2"/>
<path d="M86.24 155.76H79.24L77.86 159H75.18L81.48 145H84.04L90.36 159H87.64L86.24 155.76ZM85.38 153.72L82.74 147.6L80.12 153.72H85.38ZM92.2269 148.32H94.7269V152.66H100.107V148.32H102.607V159H100.107V154.78H94.7269V159H92.2269V148.32ZM109.937 148.2C111.511 148.2 112.711 148.58 113.537 149.34C114.377 150.087 114.797 151.22 114.797 152.74V159H112.437V157.7C112.131 158.167 111.691 158.527 111.117 158.78C110.557 159.02 109.877 159.14 109.077 159.14C108.277 159.14 107.577 159.007 106.977 158.74C106.377 158.46 105.911 158.08 105.577 157.6C105.257 157.107 105.097 156.553 105.097 155.94C105.097 154.98 105.451 154.213 106.157 153.64C106.877 153.053 108.004 152.76 109.537 152.76H112.297V152.6C112.297 151.853 112.071 151.28 111.617 150.88C111.177 150.48 110.517 150.28 109.637 150.28C109.037 150.28 108.444 150.373 107.857 150.56C107.284 150.747 106.797 151.007 106.397 151.34L105.417 149.52C105.977 149.093 106.651 148.767 107.437 148.54C108.224 148.313 109.057 148.2 109.937 148.2ZM109.597 157.32C110.224 157.32 110.777 157.18 111.257 156.9C111.751 156.607 112.097 156.193 112.297 155.66V154.42H109.717C108.277 154.42 107.557 154.893 107.557 155.84C107.557 156.293 107.737 156.653 108.097 156.92C108.457 157.187 108.957 157.32 109.597 157.32ZM127.571 148.32V159H125.071V150.44H121.071L120.971 152.56C120.904 153.973 120.771 155.16 120.571 156.12C120.384 157.067 120.058 157.82 119.591 158.38C119.138 158.927 118.511 159.2 117.711 159.2C117.338 159.2 116.878 159.127 116.331 158.98L116.451 156.88C116.638 156.92 116.798 156.94 116.931 156.94C117.438 156.94 117.818 156.74 118.071 156.34C118.324 155.927 118.484 155.44 118.551 154.88C118.631 154.307 118.698 153.493 118.751 152.44L118.931 148.32H127.571ZM130.938 148.32H133.438V155.36L139.338 148.32H141.618V159H139.118V151.96L133.238 159H130.938V148.32ZM151.224 153.44C151.891 153.627 152.404 153.933 152.764 154.36C153.137 154.773 153.324 155.273 153.324 155.86C153.324 156.513 153.104 157.093 152.664 157.6C152.224 158.093 151.617 158.48 150.844 158.76C150.071 159.04 149.191 159.18 148.204 159.18C147.377 159.18 146.571 159.087 145.784 158.9C144.997 158.7 144.284 158.42 143.644 158.06L144.364 156.2C144.884 156.493 145.471 156.72 146.124 156.88C146.777 157.04 147.431 157.12 148.084 157.12C148.924 157.12 149.577 156.993 150.044 156.74C150.524 156.473 150.764 156.113 150.764 155.66C150.764 155.247 150.577 154.927 150.204 154.7C149.844 154.473 149.331 154.36 148.664 154.36H146.584V152.68H148.464C149.091 152.68 149.577 152.573 149.924 152.36C150.284 152.147 150.464 151.847 150.464 151.46C150.464 151.073 150.251 150.767 149.824 150.54C149.397 150.313 148.811 150.2 148.064 150.2C146.997 150.2 145.871 150.46 144.684 150.98L144.044 149.14C145.444 148.487 146.857 148.16 148.284 148.16C149.191 148.16 150.004 148.287 150.724 148.54C151.444 148.78 152.004 149.127 152.404 149.58C152.817 150.02 153.024 150.527 153.024 151.1C153.024 151.62 152.864 152.087 152.544 152.5C152.224 152.9 151.784 153.213 151.224 153.44ZM166.306 159.14C165.199 159.14 164.206 158.907 163.326 158.44C162.446 157.973 161.759 157.327 161.266 156.5C160.772 155.66 160.526 154.713 160.526 153.66C160.526 152.607 160.772 151.667 161.266 150.84C161.759 150.013 162.439 149.367 163.306 148.9C164.186 148.433 165.186 148.2 166.306 148.2C167.359 148.2 168.279 148.413 169.066 148.84C169.866 149.267 170.466 149.88 170.866 150.68L168.946 151.8C168.639 151.307 168.252 150.94 167.786 150.7C167.332 150.447 166.832 150.32 166.286 150.32C165.352 150.32 164.579 150.627 163.966 151.24C163.352 151.84 163.046 152.647 163.046 153.66C163.046 154.673 163.346 155.487 163.946 156.1C164.559 156.7 165.339 157 166.286 157C166.832 157 167.332 156.88 167.786 156.64C168.252 156.387 168.639 156.013 168.946 155.52L170.866 156.64C170.452 157.44 169.846 158.06 169.046 158.5C168.259 158.927 167.346 159.14 166.306 159.14ZM181.429 150.44H177.689V159H175.189V150.44H171.429V148.32H181.429V150.44ZM187.223 148.2C188.796 148.2 189.996 148.58 190.823 149.34C191.663 150.087 192.083 151.22 192.083 152.74V159H189.723V157.7C189.416 158.167 188.976 158.527 188.403 158.78C187.843 159.02 187.163 159.14 186.363 159.14C185.563 159.14 184.863 159.007 184.263 158.74C183.663 158.46 183.196 158.08 182.863 157.6C182.543 157.107 182.383 156.553 182.383 155.94C182.383 154.98 182.736 154.213 183.443 153.64C184.163 153.053 185.289 152.76 186.823 152.76H189.583V152.6C189.583 151.853 189.356 151.28 188.903 150.88C188.463 150.48 187.803 150.28 186.923 150.28C186.323 150.28 185.729 150.373 185.143 150.56C184.569 150.747 184.083 151.007 183.683 151.34L182.703 149.52C183.263 149.093 183.936 148.767 184.723 148.54C185.509 148.313 186.343 148.2 187.223 148.2ZM186.883 157.32C187.509 157.32 188.063 157.18 188.543 156.9C189.036 156.607 189.383 156.193 189.583 155.66V154.42H187.003C185.563 154.42 184.843 154.893 184.843 155.84C184.843 156.293 185.023 156.653 185.383 156.92C185.743 157.187 186.243 157.32 186.883 157.32ZM203.636 150.44H199.896V159H197.396V150.44H193.636V148.32H203.636V150.44ZM205.45 148.32H207.95V155.36L213.85 148.32H216.13V159H213.63V151.96L207.75 159H205.45V148.32ZM224.353 159.14C223.246 159.14 222.253 158.907 221.373 158.44C220.493 157.973 219.806 157.327 219.313 156.5C218.819 155.66 218.573 154.713 218.573 153.66C218.573 152.607 218.819 151.667 219.313 150.84C219.806 150.013 220.486 149.367 221.353 148.9C222.233 148.433 223.233 148.2 224.353 148.2C225.406 148.2 226.326 148.413 227.113 148.84C227.913 149.267 228.513 149.88 228.913 150.68L226.993 151.8C226.686 151.307 226.299 150.94 225.833 150.7C225.379 150.447 224.879 150.32 224.333 150.32C223.399 150.32 222.626 150.627 222.013 151.24C221.399 151.84 221.093 152.647 221.093 153.66C221.093 154.673 221.393 155.487 221.993 156.1C222.606 156.7 223.386 157 224.333 157C224.879 157 225.379 156.88 225.833 156.64C226.299 156.387 226.686 156.013 226.993 155.52L228.913 156.64C228.499 157.44 227.893 158.06 227.093 158.5C226.306 158.927 225.393 159.14 224.353 159.14ZM239.476 150.44H235.736V159H233.236V150.44H229.476V148.32H239.476V150.44ZM241.289 148.32H243.789V155.36L249.689 148.32H251.969V159H249.469V151.96L243.589 159H241.289V148.32ZM259.772 154.72H257.832V159H255.332V148.32H257.832V152.64H259.832L262.992 148.32H265.672L261.792 153.46L265.932 159H262.992L259.772 154.72ZM267.696 148.32H270.196V155.36L276.096 148.32H278.376V159H275.876V151.96L269.996 159H267.696V148.32Z" fill="white"/>
<path d="M86.24 155.76H79.24L77.86 159H75.18L81.48 145H84.04L90.36 159H87.64L86.24 155.76ZM85.38 153.72L82.74 147.6L80.12 153.72H85.38ZM92.2269 148.32H94.7269V152.66H100.107V148.32H102.607V159H100.107V154.78H94.7269V159H92.2269V148.32ZM109.937 148.2C111.511 148.2 112.711 148.58 113.537 149.34C114.377 150.087 114.797 151.22 114.797 152.74V159H112.437V157.7C112.131 158.167 111.691 158.527 111.117 158.78C110.557 159.02 109.877 159.14 109.077 159.14C108.277 159.14 107.577 159.007 106.977 158.74C106.377 158.46 105.911 158.08 105.577 157.6C105.257 157.107 105.097 156.553 105.097 155.94C105.097 154.98 105.451 154.213 106.157 153.64C106.877 153.053 108.004 152.76 109.537 152.76H112.297V152.6C112.297 151.853 112.071 151.28 111.617 150.88C111.177 150.48 110.517 150.28 109.637 150.28C109.037 150.28 108.444 150.373 107.857 150.56C107.284 150.747 106.797 151.007 106.397 151.34L105.417 149.52C105.977 149.093 106.651 148.767 107.437 148.54C108.224 148.313 109.057 148.2 109.937 148.2ZM109.597 157.32C110.224 157.32 110.777 157.18 111.257 156.9C111.751 156.607 112.097 156.193 112.297 155.66V154.42H109.717C108.277 154.42 107.557 154.893 107.557 155.84C107.557 156.293 107.737 156.653 108.097 156.92C108.457 157.187 108.957 157.32 109.597 157.32ZM127.571 148.32V159H125.071V150.44H121.071L120.971 152.56C120.904 153.973 120.771 155.16 120.571 156.12C120.384 157.067 120.058 157.82 119.591 158.38C119.138 158.927 118.511 159.2 117.711 159.2C117.338 159.2 116.878 159.127 116.331 158.98L116.451 156.88C116.638 156.92 116.798 156.94 116.931 156.94C117.438 156.94 117.818 156.74 118.071 156.34C118.324 155.927 118.484 155.44 118.551 154.88C118.631 154.307 118.698 153.493 118.751 152.44L118.931 148.32H127.571ZM130.938 148.32H133.438V155.36L139.338 148.32H141.618V159H139.118V151.96L133.238 159H130.938V148.32ZM151.224 153.44C151.891 153.627 152.404 153.933 152.764 154.36C153.137 154.773 153.324 155.273 153.324 155.86C153.324 156.513 153.104 157.093 152.664 157.6C152.224 158.093 151.617 158.48 150.844 158.76C150.071 159.04 149.191 159.18 148.204 159.18C147.377 159.18 146.571 159.087 145.784 158.9C144.997 158.7 144.284 158.42 143.644 158.06L144.364 156.2C144.884 156.493 145.471 156.72 146.124 156.88C146.777 157.04 147.431 157.12 148.084 157.12C148.924 157.12 149.577 156.993 150.044 156.74C150.524 156.473 150.764 156.113 150.764 155.66C150.764 155.247 150.577 154.927 150.204 154.7C149.844 154.473 149.331 154.36 148.664 154.36H146.584V152.68H148.464C149.091 152.68 149.577 152.573 149.924 152.36C150.284 152.147 150.464 151.847 150.464 151.46C150.464 151.073 150.251 150.767 149.824 150.54C149.397 150.313 148.811 150.2 148.064 150.2C146.997 150.2 145.871 150.46 144.684 150.98L144.044 149.14C145.444 148.487 146.857 148.16 148.284 148.16C149.191 148.16 150.004 148.287 150.724 148.54C151.444 148.78 152.004 149.127 152.404 149.58C152.817 150.02 153.024 150.527 153.024 151.1C153.024 151.62 152.864 152.087 152.544 152.5C152.224 152.9 151.784 153.213 151.224 153.44ZM166.306 159.14C165.199 159.14 164.206 158.907 163.326 158.44C162.446 157.973 161.759 157.327 161.266 156.5C160.772 155.66 160.526 154.713 160.526 153.66C160.526 152.607 160.772 151.667 161.266 150.84C161.759 150.013 162.439 149.367 163.306 148.9C164.186 148.433 165.186 148.2 166.306 148.2C167.359 148.2 168.279 148.413 169.066 148.84C169.866 149.267 170.466 149.88 170.866 150.68L168.946 151.8C168.639 151.307 168.252 150.94 167.786 150.7C167.332 150.447 166.832 150.32 166.286 150.32C165.352 150.32 164.579 150.627 163.966 151.24C163.352 151.84 163.046 152.647 163.046 153.66C163.046 154.673 163.346 155.487 163.946 156.1C164.559 156.7 165.339 157 166.286 157C166.832 157 167.332 156.88 167.786 156.64C168.252 156.387 168.639 156.013 168.946 155.52L170.866 156.64C170.452 157.44 169.846 158.06 169.046 158.5C168.259 158.927 167.346 159.14 166.306 159.14ZM181.429 150.44H177.689V159H175.189V150.44H171.429V148.32H181.429V150.44ZM187.223 148.2C188.796 148.2 189.996 148.58 190.823 149.34C191.663 150.087 192.083 151.22 192.083 152.74V159H189.723V157.7C189.416 158.167 188.976 158.527 188.403 158.78C187.843 159.02 187.163 159.14 186.363 159.14C185.563 159.14 184.863 159.007 184.263 158.74C183.663 158.46 183.196 158.08 182.863 157.6C182.543 157.107 182.383 156.553 182.383 155.94C182.383 154.98 182.736 154.213 183.443 153.64C184.163 153.053 185.289 152.76 186.823 152.76H189.583V152.6C189.583 151.853 189.356 151.28 188.903 150.88C188.463 150.48 187.803 150.28 186.923 150.28C186.323 150.28 185.729 150.373 185.143 150.56C184.569 150.747 184.083 151.007 183.683 151.34L182.703 149.52C183.263 149.093 183.936 148.767 184.723 148.54C185.509 148.313 186.343 148.2 187.223 148.2ZM186.883 157.32C187.509 157.32 188.063 157.18 188.543 156.9C189.036 156.607 189.383 156.193 189.583 155.66V154.42H187.003C185.563 154.42 184.843 154.893 184.843 155.84C184.843 156.293 185.023 156.653 185.383 156.92C185.743 157.187 186.243 157.32 186.883 157.32ZM203.636 150.44H199.896V159H197.396V150.44H193.636V148.32H203.636V150.44ZM205.45 148.32H207.95V155.36L213.85 148.32H216.13V159H213.63V151.96L207.75 159H205.45V148.32ZM224.353 159.14C223.246 159.14 222.253 158.907 221.373 158.44C220.493 157.973 219.806 157.327 219.313 156.5C218.819 155.66 218.573 154.713 218.573 153.66C218.573 152.607 218.819 151.667 219.313 150.84C219.806 150.013 220.486 149.367 221.353 148.9C222.233 148.433 223.233 148.2 224.353 148.2C225.406 148.2 226.326 148.413 227.113 148.84C227.913 149.267 228.513 149.88 228.913 150.68L226.993 151.8C226.686 151.307 226.299 150.94 225.833 150.7C225.379 150.447 224.879 150.32 224.333 150.32C223.399 150.32 222.626 150.627 222.013 151.24C221.399 151.84 221.093 152.647 221.093 153.66C221.093 154.673 221.393 155.487 221.993 156.1C222.606 156.7 223.386 157 224.333 157C224.879 157 225.379 156.88 225.833 156.64C226.299 156.387 226.686 156.013 226.993 155.52L228.913 156.64C228.499 157.44 227.893 158.06 227.093 158.5C226.306 158.927 225.393 159.14 224.353 159.14ZM239.476 150.44H235.736V159H233.236V150.44H229.476V148.32H239.476V150.44ZM241.289 148.32H243.789V155.36L249.689 148.32H251.969V159H249.469V151.96L243.589 159H241.289V148.32ZM259.772 154.72H257.832V159H255.332V148.32H257.832V152.64H259.832L262.992 148.32H265.672L261.792 153.46L265.932 159H262.992L259.772 154.72ZM267.696 148.32H270.196V155.36L276.096 148.32H278.376V159H275.876V151.96L269.996 159H267.696V148.32Z" fill="#D6D6D6"/>
<rect x="139" y="196" width="161" height="42" rx="21" fill="#282828"/>
<rect x="139" y="196" width="161" height="42" rx="21" stroke="#D4DEEF" stroke-width="2"/>
<path d="M166.44 224.2C165.013 224.2 163.727 223.893 162.58 223.28C161.433 222.653 160.533 221.793 159.88 220.7C159.227 219.593 158.9 218.36 158.9 217C158.9 215.64 159.227 214.413 159.88 213.32C160.533 212.213 161.433 211.353 162.58 210.74C163.727 210.113 165.013 209.8 166.44 209.8C167.867 209.8 169.153 210.113 170.3 210.74C171.447 211.353 172.347 212.207 173 213.3C173.653 214.393 173.98 215.627 173.98 217C173.98 218.373 173.653 219.607 173 220.7C172.347 221.793 171.447 222.653 170.3 223.28C169.153 223.893 167.867 224.2 166.44 224.2ZM166.44 221.92C167.373 221.92 168.213 221.713 168.96 221.3C169.707 220.873 170.293 220.287 170.72 219.54C171.147 218.78 171.36 217.933 171.36 217C171.36 216.067 171.147 215.227 170.72 214.48C170.293 213.72 169.707 213.133 168.96 212.72C168.213 212.293 167.373 212.08 166.44 212.08C165.507 212.08 164.667 212.293 163.92 212.72C163.173 213.133 162.587 213.72 162.16 214.48C161.733 215.227 161.52 216.067 161.52 217C161.52 217.933 161.733 218.78 162.16 219.54C162.587 220.287 163.173 220.873 163.92 221.3C164.667 221.713 165.507 221.92 166.44 221.92ZM184.839 215.44H181.099V224H178.599V215.44H174.839V213.32H184.839V215.44ZM195.713 213.32V224H193.213V219.86C192.186 220.353 191.113 220.6 189.993 220.6C188.619 220.6 187.566 220.287 186.833 219.66C186.099 219.02 185.733 218.047 185.733 216.74V213.32H188.233V216.58C188.233 217.26 188.433 217.767 188.833 218.1C189.233 218.433 189.799 218.6 190.533 218.6C191.466 218.6 192.359 218.4 193.213 218V213.32H195.713ZM209.075 218.72C209.075 218.893 209.061 219.14 209.035 219.46H200.655C200.801 220.247 201.181 220.873 201.795 221.34C202.421 221.793 203.195 222.02 204.115 222.02C205.288 222.02 206.255 221.633 207.015 220.86L208.355 222.4C207.875 222.973 207.268 223.407 206.535 223.7C205.801 223.993 204.975 224.14 204.055 224.14C202.881 224.14 201.848 223.907 200.955 223.44C200.061 222.973 199.368 222.327 198.875 221.5C198.395 220.66 198.155 219.713 198.155 218.66C198.155 217.62 198.388 216.687 198.855 215.86C199.335 215.02 199.995 214.367 200.835 213.9C201.675 213.433 202.621 213.2 203.675 213.2C204.715 213.2 205.641 213.433 206.455 213.9C207.281 214.353 207.921 215 208.375 215.84C208.841 216.667 209.075 217.627 209.075 218.72ZM203.675 215.2C202.875 215.2 202.195 215.44 201.635 215.92C201.088 216.387 200.755 217.013 200.635 217.8H206.695C206.588 217.027 206.261 216.4 205.715 215.92C205.168 215.44 204.488 215.2 203.675 215.2ZM201.675 211.64C201.328 211.64 201.041 211.527 200.815 211.3C200.588 211.073 200.475 210.787 200.475 210.44C200.475 210.08 200.588 209.787 200.815 209.56C201.041 209.333 201.328 209.22 201.675 209.22C202.021 209.22 202.308 209.333 202.535 209.56C202.761 209.787 202.875 210.08 202.875 210.44C202.875 210.787 202.761 211.073 202.535 211.3C202.308 211.527 202.021 211.64 201.675 211.64ZM205.555 211.64C205.208 211.64 204.921 211.527 204.695 211.3C204.468 211.073 204.355 210.787 204.355 210.44C204.355 210.08 204.468 209.787 204.695 209.56C204.921 209.333 205.208 209.22 205.555 209.22C205.901 209.22 206.188 209.333 206.415 209.56C206.641 209.787 206.755 210.08 206.755 210.44C206.755 210.787 206.641 211.073 206.415 211.3C206.188 211.527 205.901 211.64 205.555 211.64ZM219.878 215.44H216.138V224H213.638V215.44H209.878V213.32H219.878V215.44ZM221.692 213.32H224.192V217.66H229.572V213.32H232.072V224H229.572V219.78H224.192V224H221.692V213.32ZM240.182 224.14C239.102 224.14 238.129 223.907 237.262 223.44C236.396 222.973 235.716 222.327 235.222 221.5C234.742 220.66 234.502 219.713 234.502 218.66C234.502 217.607 234.742 216.667 235.222 215.84C235.716 215.013 236.396 214.367 237.262 213.9C238.129 213.433 239.102 213.2 240.182 213.2C241.276 213.2 242.256 213.433 243.122 213.9C243.989 214.367 244.662 215.013 245.142 215.84C245.636 216.667 245.882 217.607 245.882 218.66C245.882 219.713 245.636 220.66 245.142 221.5C244.662 222.327 243.989 222.973 243.122 223.44C242.256 223.907 241.276 224.14 240.182 224.14ZM240.182 222C241.102 222 241.862 221.693 242.462 221.08C243.062 220.467 243.362 219.66 243.362 218.66C243.362 217.66 243.062 216.853 242.462 216.24C241.862 215.627 241.102 215.32 240.182 215.32C239.262 215.32 238.502 215.627 237.902 216.24C237.316 216.853 237.022 217.66 237.022 218.66C237.022 219.66 237.316 220.467 237.902 221.08C238.502 221.693 239.262 222 240.182 222ZM253.212 224.14C252.105 224.14 251.112 223.907 250.232 223.44C249.352 222.973 248.665 222.327 248.172 221.5C247.679 220.66 247.432 219.713 247.432 218.66C247.432 217.607 247.679 216.667 248.172 215.84C248.665 215.013 249.345 214.367 250.212 213.9C251.092 213.433 252.092 213.2 253.212 213.2C254.265 213.2 255.185 213.413 255.972 213.84C256.772 214.267 257.372 214.88 257.772 215.68L255.852 216.8C255.545 216.307 255.159 215.94 254.692 215.7C254.239 215.447 253.739 215.32 253.192 215.32C252.259 215.32 251.485 215.627 250.872 216.24C250.259 216.84 249.952 217.647 249.952 218.66C249.952 219.673 250.252 220.487 250.852 221.1C251.465 221.7 252.245 222 253.192 222C253.739 222 254.239 221.88 254.692 221.64C255.159 221.387 255.545 221.013 255.852 220.52L257.772 221.64C257.359 222.44 256.752 223.06 255.952 223.5C255.165 223.927 254.252 224.14 253.212 224.14ZM268.335 215.44H264.595V224H262.095V215.44H258.335V213.32H268.335V215.44ZM275.509 216.84C276.869 216.84 277.909 217.147 278.629 217.76C279.362 218.373 279.729 219.24 279.729 220.36C279.729 221.533 279.329 222.44 278.529 223.08C277.729 223.72 276.602 224.033 275.149 224.02L270.149 224V213.32H272.649V216.82L275.509 216.84ZM274.929 222.18C275.662 222.193 276.222 222.04 276.609 221.72C276.995 221.4 277.189 220.933 277.189 220.32C277.189 219.72 277.002 219.28 276.629 219C276.255 218.72 275.689 218.573 274.929 218.56L272.649 218.54V222.16L274.929 222.18Z" fill="white"/>
<path d="M166.44 224.2C165.013 224.2 163.727 223.893 162.58 223.28C161.433 222.653 160.533 221.793 159.88 220.7C159.227 219.593 158.9 218.36 158.9 217C158.9 215.64 159.227 214.413 159.88 213.32C160.533 212.213 161.433 211.353 162.58 210.74C163.727 210.113 165.013 209.8 166.44 209.8C167.867 209.8 169.153 210.113 170.3 210.74C171.447 211.353 172.347 212.207 173 213.3C173.653 214.393 173.98 215.627 173.98 217C173.98 218.373 173.653 219.607 173 220.7C172.347 221.793 171.447 222.653 170.3 223.28C169.153 223.893 167.867 224.2 166.44 224.2ZM166.44 221.92C167.373 221.92 168.213 221.713 168.96 221.3C169.707 220.873 170.293 220.287 170.72 219.54C171.147 218.78 171.36 217.933 171.36 217C171.36 216.067 171.147 215.227 170.72 214.48C170.293 213.72 169.707 213.133 168.96 212.72C168.213 212.293 167.373 212.08 166.44 212.08C165.507 212.08 164.667 212.293 163.92 212.72C163.173 213.133 162.587 213.72 162.16 214.48C161.733 215.227 161.52 216.067 161.52 217C161.52 217.933 161.733 218.78 162.16 219.54C162.587 220.287 163.173 220.873 163.92 221.3C164.667 221.713 165.507 221.92 166.44 221.92ZM184.839 215.44H181.099V224H178.599V215.44H174.839V213.32H184.839V215.44ZM195.713 213.32V224H193.213V219.86C192.186 220.353 191.113 220.6 189.993 220.6C188.619 220.6 187.566 220.287 186.833 219.66C186.099 219.02 185.733 218.047 185.733 216.74V213.32H188.233V216.58C188.233 217.26 188.433 217.767 188.833 218.1C189.233 218.433 189.799 218.6 190.533 218.6C191.466 218.6 192.359 218.4 193.213 218V213.32H195.713ZM209.075 218.72C209.075 218.893 209.061 219.14 209.035 219.46H200.655C200.801 220.247 201.181 220.873 201.795 221.34C202.421 221.793 203.195 222.02 204.115 222.02C205.288 222.02 206.255 221.633 207.015 220.86L208.355 222.4C207.875 222.973 207.268 223.407 206.535 223.7C205.801 223.993 204.975 224.14 204.055 224.14C202.881 224.14 201.848 223.907 200.955 223.44C200.061 222.973 199.368 222.327 198.875 221.5C198.395 220.66 198.155 219.713 198.155 218.66C198.155 217.62 198.388 216.687 198.855 215.86C199.335 215.02 199.995 214.367 200.835 213.9C201.675 213.433 202.621 213.2 203.675 213.2C204.715 213.2 205.641 213.433 206.455 213.9C207.281 214.353 207.921 215 208.375 215.84C208.841 216.667 209.075 217.627 209.075 218.72ZM203.675 215.2C202.875 215.2 202.195 215.44 201.635 215.92C201.088 216.387 200.755 217.013 200.635 217.8H206.695C206.588 217.027 206.261 216.4 205.715 215.92C205.168 215.44 204.488 215.2 203.675 215.2ZM201.675 211.64C201.328 211.64 201.041 211.527 200.815 211.3C200.588 211.073 200.475 210.787 200.475 210.44C200.475 210.08 200.588 209.787 200.815 209.56C201.041 209.333 201.328 209.22 201.675 209.22C202.021 209.22 202.308 209.333 202.535 209.56C202.761 209.787 202.875 210.08 202.875 210.44C202.875 210.787 202.761 211.073 202.535 211.3C202.308 211.527 202.021 211.64 201.675 211.64ZM205.555 211.64C205.208 211.64 204.921 211.527 204.695 211.3C204.468 211.073 204.355 210.787 204.355 210.44C204.355 210.08 204.468 209.787 204.695 209.56C204.921 209.333 205.208 209.22 205.555 209.22C205.901 209.22 206.188 209.333 206.415 209.56C206.641 209.787 206.755 210.08 206.755 210.44C206.755 210.787 206.641 211.073 206.415 211.3C206.188 211.527 205.901 211.64 205.555 211.64ZM219.878 215.44H216.138V224H213.638V215.44H209.878V213.32H219.878V215.44ZM221.692 213.32H224.192V217.66H229.572V213.32H232.072V224H229.572V219.78H224.192V224H221.692V213.32ZM240.182 224.14C239.102 224.14 238.129 223.907 237.262 223.44C236.396 222.973 235.716 222.327 235.222 221.5C234.742 220.66 234.502 219.713 234.502 218.66C234.502 217.607 234.742 216.667 235.222 215.84C235.716 215.013 236.396 214.367 237.262 213.9C238.129 213.433 239.102 213.2 240.182 213.2C241.276 213.2 242.256 213.433 243.122 213.9C243.989 214.367 244.662 215.013 245.142 215.84C245.636 216.667 245.882 217.607 245.882 218.66C245.882 219.713 245.636 220.66 245.142 221.5C244.662 222.327 243.989 222.973 243.122 223.44C242.256 223.907 241.276 224.14 240.182 224.14ZM240.182 222C241.102 222 241.862 221.693 242.462 221.08C243.062 220.467 243.362 219.66 243.362 218.66C243.362 217.66 243.062 216.853 242.462 216.24C241.862 215.627 241.102 215.32 240.182 215.32C239.262 215.32 238.502 215.627 237.902 216.24C237.316 216.853 237.022 217.66 237.022 218.66C237.022 219.66 237.316 220.467 237.902 221.08C238.502 221.693 239.262 222 240.182 222ZM253.212 224.14C252.105 224.14 251.112 223.907 250.232 223.44C249.352 222.973 248.665 222.327 248.172 221.5C247.679 220.66 247.432 219.713 247.432 218.66C247.432 217.607 247.679 216.667 248.172 215.84C248.665 215.013 249.345 214.367 250.212 213.9C251.092 213.433 252.092 213.2 253.212 213.2C254.265 213.2 255.185 213.413 255.972 213.84C256.772 214.267 257.372 214.88 257.772 215.68L255.852 216.8C255.545 216.307 255.159 215.94 254.692 215.7C254.239 215.447 253.739 215.32 253.192 215.32C252.259 215.32 251.485 215.627 250.872 216.24C250.259 216.84 249.952 217.647 249.952 218.66C249.952 219.673 250.252 220.487 250.852 221.1C251.465 221.7 252.245 222 253.192 222C253.739 222 254.239 221.88 254.692 221.64C255.159 221.387 255.545 221.013 255.852 220.52L257.772 221.64C257.359 222.44 256.752 223.06 255.952 223.5C255.165 223.927 254.252 224.14 253.212 224.14ZM268.335 215.44H264.595V224H262.095V215.44H258.335V213.32H268.335V215.44ZM275.509 216.84C276.869 216.84 277.909 217.147 278.629 217.76C279.362 218.373 279.729 219.24 279.729 220.36C279.729 221.533 279.329 222.44 278.529 223.08C277.729 223.72 276.602 224.033 275.149 224.02L270.149 224V213.32H272.649V216.82L275.509 216.84ZM274.929 222.18C275.662 222.193 276.222 222.04 276.609 221.72C276.995 221.4 277.189 220.933 277.189 220.32C277.189 219.72 277.002 219.28 276.629 219C276.255 218.72 275.689 218.573 274.929 218.56L272.649 218.54V222.16L274.929 222.18Z" fill="#D6D6D6"/>
</svg>
