<svg width="346" height="787" viewBox="0 0 346 787" fill="none" xmlns="http://www.w3.org/2000/svg">
<path d="M22.4323 1.19163L14.4345 1.19044C7.80635 1.18946 2.43268 6.56233 2.43268 13.1904L2.43269 28.8493C2.43269 35.4767 7.80529 40.8493 14.4327 40.8493L46.4108 40.8492M47.4337 196.194L47.4337 165.193M47.4337 165.193L332.932 165.193C339.56 165.193 344.932 159.82 344.932 153.193L344.932 52.8492C344.932 46.2218 339.56 40.8492 332.932 40.8492L46.4108 40.8492M47.4337 165.193L13.4323 165.193C6.80485 165.193 1.43228 170.566 1.43228 177.193L1.43228 317.193C1.43228 323.82 6.80486 329.193 13.4323 329.193L332.932 329.193C339.56 329.193 344.933 334.565 344.933 341.193L344.932 443.193C344.932 449.82 339.56 455.193 332.932 455.193L273.933 455.193L46.933 455.193M46.933 486.194L46.933 455.193M46.933 455.193L13.4323 455.193C6.8049 455.193 1.43231 460.566 1.43236 467.193L1.43326 596.194C1.43331 602.822 6.80587 608.194 13.4333 608.194L47.4337 608.194M47.4337 608.194L47.4337 641.194M47.4337 608.194L332.933 608.194C339.56 608.194 344.933 613.567 344.933 620.194L344.932 734.499C344.932 741.127 339.56 746.499 332.932 746.499L13.4327 746.499C6.80556 746.499 1.43308 751.871 1.43275 758.499L1.43228 768L1.43253 774.5C1.43279 781.127 6.80529 786.499 13.4325 786.499L20.9101 786.499M46.4108 40.8492L46.4108 70.4992" stroke="#515151"/>
</svg>
