<svg width="258" height="159" viewBox="0 0 258 159" fill="none" xmlns="http://www.w3.org/2000/svg">
<path d="M258 119C258 125.627 252.627 131 246 131L226.75 131L176.125 131L170.855 131C158.178 131 146.179 136.726 138.205 146.581L129.827 156.935C128.77 158.241 127.18 159 125.5 159C123.82 159 122.23 158.241 121.173 156.935L112.795 146.581C104.821 136.726 92.8218 131 80.1447 131L74.875 131L24.25 131L12 131C5.37259 131 2.91752e-06 125.627 3.49691e-06 119L1.28511e-05 12C1.34305e-05 5.37257 5.3726 -2.20854e-05 12 -2.1506e-05L246 -1.04907e-06C252.627 -4.69687e-07 258 5.37259 258 12L258 119Z" fill="#2A2A2A"/>
</svg>
