<svg width="196" height="92" viewBox="0 0 196 92" fill="none" xmlns="http://www.w3.org/2000/svg">
<path d="M14.6236 8.07545H22.2164V41.3015H12.7956V17.9483L2.20312 22.8848V13.8663L14.6236 8.07545ZM35.3468 37.2669C32.066 34.1975 30.4255 30.0046 30.4255 24.6885C30.4255 19.3723 32.066 15.1795 35.3468 12.11C38.659 9.04061 43.0647 7.50586 48.5641 7.50586C54.0634 7.50586 58.4535 9.04061 61.7342 12.11C65.0467 15.1795 66.7023 19.3723 66.7023 24.6885C66.7023 30.0046 65.0467 34.1975 61.7342 37.2669C58.4535 40.3363 54.0634 41.8711 48.5641 41.8711C43.0647 41.8711 38.659 40.3363 35.3468 37.2669ZM42.2367 17.8059C40.6431 19.4198 39.8463 21.714 39.8463 24.6885C39.8463 27.663 40.6431 29.973 42.2367 31.6185C43.8302 33.2323 45.9394 34.0392 48.5641 34.0392C51.1888 34.0392 53.2979 33.2323 54.8914 31.6185C56.485 29.973 57.2818 27.663 57.2818 24.6885C57.2818 21.714 56.485 19.4198 54.8914 17.8059C53.2979 16.1605 51.1888 15.3377 48.5641 15.3377C45.9394 15.3377 43.8302 16.1605 42.2367 17.8059Z" fill="#D6D6D6"/>
<path d="M87.824 9.86328H117.522V40.0688H108.66V17.1989H95.8345C95.7778 18.0044 95.7066 19.1838 95.6214 20.7373C95.4796 23.24 95.3518 25.0955 95.2379 26.3037C95.1527 27.4831 94.9683 28.9934 94.684 30.8345C94.4284 32.6756 94.0589 34.042 93.5762 34.9338C93.1215 35.7968 92.497 36.7174 91.7014 37.6955C90.9344 38.6736 89.9545 39.3496 88.7614 39.7236C87.5684 40.0976 86.1623 40.2845 84.5431 40.2845C83.4067 40.2845 81.8728 40.2126 79.9414 40.0688V32.7763C80.8502 32.8914 81.6031 32.9489 82.1997 32.9489C82.8248 32.9489 83.3641 32.8626 83.8188 32.69C84.3015 32.4886 84.7136 32.1578 85.0544 31.6975C85.4239 31.2372 85.7222 30.7482 85.9492 30.2304C86.2049 29.7126 86.4179 29.0078 86.5884 28.116C86.7588 27.2242 86.8866 26.3756 86.9718 25.5701C87.0857 24.7359 87.1709 23.6571 87.2275 22.3338C87.3127 21.0105 87.3693 19.8023 87.3979 18.7092C87.4545 17.616 87.5118 16.2208 87.5684 14.5236C87.6536 12.7975 87.7388 11.2441 87.824 9.86328ZM125.548 40.0688V9.86328H155.928V16.8537H134.411V21.4277H151.198V27.9866H134.411V33.0784H156.737V40.0688H125.548ZM160.585 17.1989V9.86328H194.587V17.1989H182.017V40.0688H173.155V17.1989H160.585Z" fill="#D6D6D6"/>
<path d="M28.11 79.26C32.27 79.64 34.35 81.34 34.35 84.36C34.35 86.14 33.62 87.53 32.16 88.53C30.72 89.51 28.65 90 25.95 90H11.85V69H25.98C28.26 69 30.09 69.5 31.47 70.5C32.87 71.5 33.57 72.82 33.57 74.46C33.57 75.82 33.07 76.91 32.07 77.73C31.07 78.53 29.75 79.04 28.11 79.26ZM15.63 71.94V77.94H25.8C26.96 77.94 27.91 77.68 28.65 77.16C29.41 76.62 29.79 75.88 29.79 74.94C29.79 74 29.41 73.27 28.65 72.75C27.91 72.21 26.96 71.94 25.8 71.94H15.63ZM25.59 87.06C28.91 87.06 30.57 86 30.57 83.88C30.57 81.82 29.01 80.79 25.89 80.79H15.63V87.06H25.59ZM60.0302 69C64.0702 69 67.2202 69.94 69.4802 71.82C71.7402 73.7 72.8702 76.26 72.8702 79.5C72.8702 82.74 71.7402 85.3 69.4802 87.18C67.2202 89.06 64.0702 90 60.0302 90H49.2902V69H60.0302ZM59.6402 86.91C62.7002 86.91 65.0402 86.24 66.6602 84.9C68.2802 83.56 69.0902 81.76 69.0902 79.5C69.0902 77.24 68.2802 75.44 66.6602 74.1C65.0402 72.76 62.7002 72.09 59.6402 72.09H53.0702V86.91H59.6402ZM77.8102 90V69H81.5902V90H77.8102ZM99.6923 79.02H111.272V88.35C107.772 89.69 104.142 90.36 100.382 90.36C95.9823 90.36 92.5723 89.38 90.1523 87.42C87.7523 85.46 86.5523 82.82 86.5523 79.5C86.5523 76.22 87.6523 73.59 89.8523 71.61C92.0723 69.63 95.1823 68.64 99.1823 68.64C102.282 68.64 104.862 69.23 106.922 70.41C108.982 71.57 110.272 73.16 110.792 75.18L107.132 75.45C106.692 74.31 105.752 73.41 104.312 72.75C102.872 72.07 101.162 71.73 99.1823 71.73C96.3823 71.73 94.2023 72.46 92.6423 73.92C91.1023 75.36 90.3323 77.22 90.3323 79.5C90.3323 81.82 91.2123 83.7 92.9723 85.14C94.7323 86.56 97.2423 87.27 100.502 87.27C103.022 87.27 105.452 86.94 107.792 86.28V81.6H99.6923V79.02ZM116.393 90V69H120.173V90H116.393ZM124.475 72.09V69H146.795V72.09H137.525V90H133.745V72.09H124.475ZM167.67 90L165.21 84.93H151.29L148.83 90H145.05L155.43 69H161.16L171.57 90H167.67ZM152.7 82.05H163.8L158.25 70.62L152.7 82.05ZM175.615 90V69H179.395V86.91H193.735V90H175.615Z" fill="#D6D6D6"/>
</svg>
