<svg width="461" height="246" viewBox="0 0 461 246" fill="none" xmlns="http://www.w3.org/2000/svg">
<path d="M118 17.5H268.5H435.5C448.755 17.5 459.5 28.2452 459.5 41.5V62.5C459.5 75.7548 448.755 86.5 435.5 86.5H318.5H35C21.7452 86.5 11 97.2452 11 110.5V130C11 143.255 21.7452 154 35 154H268.5H339.5C352.755 154 363.5 164.745 363.5 178V193.5C363.5 206.755 352.755 217.5 339.5 217.5H183.5" stroke="#515151" stroke-width="2" stroke-dasharray="11 11"/>
<rect x="1" y="1" width="271" height="42" rx="21" fill="#282828"/>
<rect x="1" y="1" width="271" height="42" rx="21" stroke="#515151" stroke-width="2"/>
<path d="M27.12 23.1H24.52V29H21.96V15H24.52V20.86H27.2L31.22 15H33.98L29.2 21.78L34.16 29H31.22L27.12 23.1ZM40.2681 29.14C39.1881 29.14 38.2148 28.9067 37.3481 28.44C36.4815 27.9733 35.8015 27.3267 35.3081 26.5C34.8281 25.66 34.5881 24.7133 34.5881 23.66C34.5881 22.6067 34.8281 21.6667 35.3081 20.84C35.8015 20.0133 36.4815 19.3667 37.3481 18.9C38.2148 18.4333 39.1881 18.2 40.2681 18.2C41.3615 18.2 42.3415 18.4333 43.2081 18.9C44.0748 19.3667 44.7481 20.0133 45.2281 20.84C45.7215 21.6667 45.9681 22.6067 45.9681 23.66C45.9681 24.7133 45.7215 25.66 45.2281 26.5C44.7481 27.3267 44.0748 27.9733 43.2081 28.44C42.3415 28.9067 41.3615 29.14 40.2681 29.14ZM40.2681 27C41.1881 27 41.9481 26.6933 42.5481 26.08C43.1481 25.4667 43.4481 24.66 43.4481 23.66C43.4481 22.66 43.1481 21.8533 42.5481 21.24C41.9481 20.6267 41.1881 20.32 40.2681 20.32C39.3481 20.32 38.5881 20.6267 37.9881 21.24C37.4015 21.8533 37.1081 22.66 37.1081 23.66C37.1081 24.66 37.4015 25.4667 37.9881 26.08C38.5881 26.6933 39.3481 27 40.2681 27ZM48.4378 18.32H50.9378V22.66H56.3178V18.32H58.8178V29H56.3178V24.78H50.9378V29H48.4378V18.32ZM70.6283 20.44H66.8883V29H64.3883V20.44H60.6283V18.32H70.6283V20.44ZM81.973 23.72C81.973 23.8933 81.9596 24.14 81.933 24.46H73.553C73.6996 25.2467 74.0796 25.8733 74.693 26.34C75.3196 26.7933 76.093 27.02 77.013 27.02C78.1863 27.02 79.153 26.6333 79.913 25.86L81.253 27.4C80.773 27.9733 80.1663 28.4067 79.433 28.7C78.6996 28.9933 77.873 29.14 76.953 29.14C75.7796 29.14 74.7463 28.9067 73.853 28.44C72.9596 27.9733 72.2663 27.3267 71.773 26.5C71.293 25.66 71.053 24.7133 71.053 23.66C71.053 22.62 71.2863 21.6867 71.753 20.86C72.233 20.02 72.893 19.3667 73.733 18.9C74.573 18.4333 75.5196 18.2 76.573 18.2C77.613 18.2 78.5396 18.4333 79.353 18.9C80.1796 19.3533 80.8196 20 81.273 20.84C81.7396 21.6667 81.973 22.6267 81.973 23.72ZM76.573 20.2C75.773 20.2 75.093 20.44 74.533 20.92C73.9863 21.3867 73.653 22.0133 73.533 22.8H79.593C79.4863 22.0267 79.1596 21.4 78.613 20.92C78.0663 20.44 77.3863 20.2 76.573 20.2ZM89.1473 24.72H87.2073V29H84.7073V18.32H87.2073V22.64H89.2073L92.3673 18.32H95.0473L91.1673 23.46L95.3073 29H92.3673L89.1473 24.72ZM101.579 29.14C100.472 29.14 99.4791 28.9067 98.5991 28.44C97.7191 27.9733 97.0324 27.3267 96.5391 26.5C96.0457 25.66 95.7991 24.7133 95.7991 23.66C95.7991 22.6067 96.0457 21.6667 96.5391 20.84C97.0324 20.0133 97.7124 19.3667 98.5791 18.9C99.4591 18.4333 100.459 18.2 101.579 18.2C102.632 18.2 103.552 18.4133 104.339 18.84C105.139 19.2667 105.739 19.88 106.139 20.68L104.219 21.8C103.912 21.3067 103.526 20.94 103.059 20.7C102.606 20.4467 102.106 20.32 101.559 20.32C100.626 20.32 99.8524 20.6267 99.2391 21.24C98.6257 21.84 98.3191 22.6467 98.3191 23.66C98.3191 24.6733 98.6191 25.4867 99.2191 26.1C99.8324 26.7 100.612 27 101.559 27C102.106 27 102.606 26.88 103.059 26.64C103.526 26.3867 103.912 26.0133 104.219 25.52L106.139 26.64C105.726 27.44 105.119 28.06 104.319 28.5C103.532 28.9267 102.619 29.14 101.579 29.14ZM116.703 20.44H112.963V29H110.463V20.44H106.703V18.32H116.703V20.44ZM118.516 18.32H121.016V22.66H126.396V18.32H128.896V29H126.396V24.78H121.016V29H118.516V18.32ZM136.226 18.2C137.8 18.2 139 18.58 139.826 19.34C140.666 20.0867 141.086 21.22 141.086 22.74V29H138.726V27.7C138.42 28.1667 137.98 28.5267 137.406 28.78C136.846 29.02 136.166 29.14 135.366 29.14C134.566 29.14 133.866 29.0067 133.266 28.74C132.666 28.46 132.2 28.08 131.866 27.6C131.546 27.1067 131.386 26.5533 131.386 25.94C131.386 24.98 131.74 24.2133 132.446 23.64C133.166 23.0533 134.293 22.76 135.826 22.76H138.586V22.6C138.586 21.8533 138.36 21.28 137.906 20.88C137.466 20.48 136.806 20.28 135.926 20.28C135.326 20.28 134.733 20.3733 134.146 20.56C133.573 20.7467 133.086 21.0067 132.686 21.34L131.706 19.52C132.266 19.0933 132.94 18.7667 133.726 18.54C134.513 18.3133 135.346 18.2 136.226 18.2ZM135.886 27.32C136.513 27.32 137.066 27.18 137.546 26.9C138.04 26.6067 138.386 26.1933 138.586 25.66V24.42H136.006C134.566 24.42 133.846 24.8933 133.846 25.84C133.846 26.2933 134.026 26.6533 134.386 26.92C134.746 27.1867 135.246 27.32 135.886 27.32ZM153.2 18.32V29H150.96V25.78H148.14L145.96 29H143.28L145.8 25.44C145.027 25.1733 144.433 24.7667 144.02 24.22C143.62 23.66 143.42 22.9733 143.42 22.16C143.42 20.9333 143.853 19.9867 144.72 19.32C145.587 18.6533 146.78 18.32 148.3 18.32H153.2ZM148.38 20.42C146.767 20.42 145.96 21.0267 145.96 22.24C145.96 23.44 146.74 24.04 148.3 24.04H150.96V20.42H148.38ZM168.01 18.2C169.05 18.2 169.977 18.4267 170.79 18.88C171.617 19.3333 172.263 19.9733 172.73 20.8C173.197 21.6267 173.43 22.58 173.43 23.66C173.43 24.74 173.197 25.7 172.73 26.54C172.263 27.3667 171.617 28.0067 170.79 28.46C169.977 28.9133 169.05 29.14 168.01 29.14C166.57 29.14 165.43 28.66 164.59 27.7V32.88H162.09V18.32H164.47V19.72C164.883 19.2133 165.39 18.8333 165.99 18.58C166.603 18.3267 167.277 18.2 168.01 18.2ZM167.73 27C168.65 27 169.403 26.6933 169.99 26.08C170.59 25.4667 170.89 24.66 170.89 23.66C170.89 22.66 170.59 21.8533 169.99 21.24C169.403 20.6267 168.65 20.32 167.73 20.32C167.13 20.32 166.59 20.46 166.11 20.74C165.63 21.0067 165.25 21.3933 164.97 21.9C164.69 22.4067 164.55 22.9933 164.55 23.66C164.55 24.3267 164.69 24.9133 164.97 25.42C165.25 25.9267 165.63 26.32 166.11 26.6C166.59 26.8667 167.13 27 167.73 27ZM185.918 23.72C185.918 23.8933 185.905 24.14 185.878 24.46H177.498C177.645 25.2467 178.025 25.8733 178.638 26.34C179.265 26.7933 180.038 27.02 180.958 27.02C182.132 27.02 183.098 26.6333 183.858 25.86L185.198 27.4C184.718 27.9733 184.112 28.4067 183.378 28.7C182.645 28.9933 181.818 29.14 180.898 29.14C179.725 29.14 178.692 28.9067 177.798 28.44C176.905 27.9733 176.212 27.3267 175.718 26.5C175.238 25.66 174.998 24.7133 174.998 23.66C174.998 22.62 175.232 21.6867 175.698 20.86C176.178 20.02 176.838 19.3667 177.678 18.9C178.518 18.4333 179.465 18.2 180.518 18.2C181.558 18.2 182.485 18.4333 183.298 18.9C184.125 19.3533 184.765 20 185.218 20.84C185.685 21.6667 185.918 22.6267 185.918 23.72ZM180.518 20.2C179.718 20.2 179.038 20.44 178.478 20.92C177.932 21.3867 177.598 22.0133 177.478 22.8H183.538C183.432 22.0267 183.105 21.4 182.558 20.92C182.012 20.44 181.332 20.2 180.518 20.2ZM193.093 24.72H191.153V29H188.653V18.32H191.153V22.64H193.153L196.313 18.32H198.993L195.113 23.46L199.253 29H196.313L193.093 24.72ZM210.696 18.32V29H208.196V20.44H204.196L204.096 22.56C204.029 23.9733 203.896 25.16 203.696 26.12C203.509 27.0667 203.183 27.82 202.716 28.38C202.263 28.9267 201.636 29.2 200.836 29.2C200.463 29.2 200.003 29.1267 199.456 28.98L199.576 26.88C199.763 26.92 199.923 26.94 200.056 26.94C200.563 26.94 200.943 26.74 201.196 26.34C201.449 25.9267 201.609 25.44 201.676 24.88C201.756 24.3067 201.823 23.4933 201.876 22.44L202.056 18.32H210.696ZM218.043 18.2C219.616 18.2 220.816 18.58 221.643 19.34C222.483 20.0867 222.903 21.22 222.903 22.74V29H220.543V27.7C220.236 28.1667 219.796 28.5267 219.223 28.78C218.663 29.02 217.983 29.14 217.183 29.14C216.383 29.14 215.683 29.0067 215.083 28.74C214.483 28.46 214.016 28.08 213.683 27.6C213.363 27.1067 213.203 26.5533 213.203 25.94C213.203 24.98 213.556 24.2133 214.263 23.64C214.983 23.0533 216.109 22.76 217.643 22.76H220.403V22.6C220.403 21.8533 220.176 21.28 219.723 20.88C219.283 20.48 218.623 20.28 217.743 20.28C217.143 20.28 216.549 20.3733 215.963 20.56C215.389 20.7467 214.903 21.0067 214.503 21.34L213.523 19.52C214.083 19.0933 214.756 18.7667 215.543 18.54C216.329 18.3133 217.163 18.2 218.043 18.2ZM217.703 27.32C218.329 27.32 218.883 27.18 219.363 26.9C219.856 26.6067 220.203 26.1933 220.403 25.66V24.42H217.823C216.383 24.42 215.663 24.8933 215.663 25.84C215.663 26.2933 215.843 26.6533 216.203 26.92C216.563 27.1867 217.063 27.32 217.703 27.32ZM236.496 29V21.92L232.896 27.88H231.816L228.276 21.9V29H225.996V18.32H228.616L232.416 25L236.396 18.32H238.736L238.756 29H236.496ZM246.09 18.2C247.663 18.2 248.863 18.58 249.69 19.34C250.53 20.0867 250.95 21.22 250.95 22.74V29H248.59V27.7C248.283 28.1667 247.843 28.5267 247.27 28.78C246.71 29.02 246.03 29.14 245.23 29.14C244.43 29.14 243.73 29.0067 243.13 28.74C242.53 28.46 242.063 28.08 241.73 27.6C241.41 27.1067 241.25 26.5533 241.25 25.94C241.25 24.98 241.603 24.2133 242.31 23.64C243.03 23.0533 244.156 22.76 245.69 22.76H248.45V22.6C248.45 21.8533 248.223 21.28 247.77 20.88C247.33 20.48 246.67 20.28 245.79 20.28C245.19 20.28 244.596 20.3733 244.01 20.56C243.436 20.7467 242.95 21.0067 242.55 21.34L241.57 19.52C242.13 19.0933 242.803 18.7667 243.59 18.54C244.376 18.3133 245.21 18.2 246.09 18.2ZM245.75 27.32C246.376 27.32 246.93 27.18 247.41 26.9C247.903 26.6067 248.25 26.1933 248.45 25.66V24.42H245.87C244.43 24.42 243.71 24.8933 243.71 25.84C243.71 26.2933 243.89 26.6533 244.25 26.92C244.61 27.1867 245.11 27.32 245.75 27.32Z" fill="white"/>
<path d="M27.12 23.1H24.52V29H21.96V15H24.52V20.86H27.2L31.22 15H33.98L29.2 21.78L34.16 29H31.22L27.12 23.1ZM40.2681 29.14C39.1881 29.14 38.2148 28.9067 37.3481 28.44C36.4815 27.9733 35.8015 27.3267 35.3081 26.5C34.8281 25.66 34.5881 24.7133 34.5881 23.66C34.5881 22.6067 34.8281 21.6667 35.3081 20.84C35.8015 20.0133 36.4815 19.3667 37.3481 18.9C38.2148 18.4333 39.1881 18.2 40.2681 18.2C41.3615 18.2 42.3415 18.4333 43.2081 18.9C44.0748 19.3667 44.7481 20.0133 45.2281 20.84C45.7215 21.6667 45.9681 22.6067 45.9681 23.66C45.9681 24.7133 45.7215 25.66 45.2281 26.5C44.7481 27.3267 44.0748 27.9733 43.2081 28.44C42.3415 28.9067 41.3615 29.14 40.2681 29.14ZM40.2681 27C41.1881 27 41.9481 26.6933 42.5481 26.08C43.1481 25.4667 43.4481 24.66 43.4481 23.66C43.4481 22.66 43.1481 21.8533 42.5481 21.24C41.9481 20.6267 41.1881 20.32 40.2681 20.32C39.3481 20.32 38.5881 20.6267 37.9881 21.24C37.4015 21.8533 37.1081 22.66 37.1081 23.66C37.1081 24.66 37.4015 25.4667 37.9881 26.08C38.5881 26.6933 39.3481 27 40.2681 27ZM48.4378 18.32H50.9378V22.66H56.3178V18.32H58.8178V29H56.3178V24.78H50.9378V29H48.4378V18.32ZM70.6283 20.44H66.8883V29H64.3883V20.44H60.6283V18.32H70.6283V20.44ZM81.973 23.72C81.973 23.8933 81.9596 24.14 81.933 24.46H73.553C73.6996 25.2467 74.0796 25.8733 74.693 26.34C75.3196 26.7933 76.093 27.02 77.013 27.02C78.1863 27.02 79.153 26.6333 79.913 25.86L81.253 27.4C80.773 27.9733 80.1663 28.4067 79.433 28.7C78.6996 28.9933 77.873 29.14 76.953 29.14C75.7796 29.14 74.7463 28.9067 73.853 28.44C72.9596 27.9733 72.2663 27.3267 71.773 26.5C71.293 25.66 71.053 24.7133 71.053 23.66C71.053 22.62 71.2863 21.6867 71.753 20.86C72.233 20.02 72.893 19.3667 73.733 18.9C74.573 18.4333 75.5196 18.2 76.573 18.2C77.613 18.2 78.5396 18.4333 79.353 18.9C80.1796 19.3533 80.8196 20 81.273 20.84C81.7396 21.6667 81.973 22.6267 81.973 23.72ZM76.573 20.2C75.773 20.2 75.093 20.44 74.533 20.92C73.9863 21.3867 73.653 22.0133 73.533 22.8H79.593C79.4863 22.0267 79.1596 21.4 78.613 20.92C78.0663 20.44 77.3863 20.2 76.573 20.2ZM89.1473 24.72H87.2073V29H84.7073V18.32H87.2073V22.64H89.2073L92.3673 18.32H95.0473L91.1673 23.46L95.3073 29H92.3673L89.1473 24.72ZM101.579 29.14C100.472 29.14 99.4791 28.9067 98.5991 28.44C97.7191 27.9733 97.0324 27.3267 96.5391 26.5C96.0457 25.66 95.7991 24.7133 95.7991 23.66C95.7991 22.6067 96.0457 21.6667 96.5391 20.84C97.0324 20.0133 97.7124 19.3667 98.5791 18.9C99.4591 18.4333 100.459 18.2 101.579 18.2C102.632 18.2 103.552 18.4133 104.339 18.84C105.139 19.2667 105.739 19.88 106.139 20.68L104.219 21.8C103.912 21.3067 103.526 20.94 103.059 20.7C102.606 20.4467 102.106 20.32 101.559 20.32C100.626 20.32 99.8524 20.6267 99.2391 21.24C98.6257 21.84 98.3191 22.6467 98.3191 23.66C98.3191 24.6733 98.6191 25.4867 99.2191 26.1C99.8324 26.7 100.612 27 101.559 27C102.106 27 102.606 26.88 103.059 26.64C103.526 26.3867 103.912 26.0133 104.219 25.52L106.139 26.64C105.726 27.44 105.119 28.06 104.319 28.5C103.532 28.9267 102.619 29.14 101.579 29.14ZM116.703 20.44H112.963V29H110.463V20.44H106.703V18.32H116.703V20.44ZM118.516 18.32H121.016V22.66H126.396V18.32H128.896V29H126.396V24.78H121.016V29H118.516V18.32ZM136.226 18.2C137.8 18.2 139 18.58 139.826 19.34C140.666 20.0867 141.086 21.22 141.086 22.74V29H138.726V27.7C138.42 28.1667 137.98 28.5267 137.406 28.78C136.846 29.02 136.166 29.14 135.366 29.14C134.566 29.14 133.866 29.0067 133.266 28.74C132.666 28.46 132.2 28.08 131.866 27.6C131.546 27.1067 131.386 26.5533 131.386 25.94C131.386 24.98 131.74 24.2133 132.446 23.64C133.166 23.0533 134.293 22.76 135.826 22.76H138.586V22.6C138.586 21.8533 138.36 21.28 137.906 20.88C137.466 20.48 136.806 20.28 135.926 20.28C135.326 20.28 134.733 20.3733 134.146 20.56C133.573 20.7467 133.086 21.0067 132.686 21.34L131.706 19.52C132.266 19.0933 132.94 18.7667 133.726 18.54C134.513 18.3133 135.346 18.2 136.226 18.2ZM135.886 27.32C136.513 27.32 137.066 27.18 137.546 26.9C138.04 26.6067 138.386 26.1933 138.586 25.66V24.42H136.006C134.566 24.42 133.846 24.8933 133.846 25.84C133.846 26.2933 134.026 26.6533 134.386 26.92C134.746 27.1867 135.246 27.32 135.886 27.32ZM153.2 18.32V29H150.96V25.78H148.14L145.96 29H143.28L145.8 25.44C145.027 25.1733 144.433 24.7667 144.02 24.22C143.62 23.66 143.42 22.9733 143.42 22.16C143.42 20.9333 143.853 19.9867 144.72 19.32C145.587 18.6533 146.78 18.32 148.3 18.32H153.2ZM148.38 20.42C146.767 20.42 145.96 21.0267 145.96 22.24C145.96 23.44 146.74 24.04 148.3 24.04H150.96V20.42H148.38ZM168.01 18.2C169.05 18.2 169.977 18.4267 170.79 18.88C171.617 19.3333 172.263 19.9733 172.73 20.8C173.197 21.6267 173.43 22.58 173.43 23.66C173.43 24.74 173.197 25.7 172.73 26.54C172.263 27.3667 171.617 28.0067 170.79 28.46C169.977 28.9133 169.05 29.14 168.01 29.14C166.57 29.14 165.43 28.66 164.59 27.7V32.88H162.09V18.32H164.47V19.72C164.883 19.2133 165.39 18.8333 165.99 18.58C166.603 18.3267 167.277 18.2 168.01 18.2ZM167.73 27C168.65 27 169.403 26.6933 169.99 26.08C170.59 25.4667 170.89 24.66 170.89 23.66C170.89 22.66 170.59 21.8533 169.99 21.24C169.403 20.6267 168.65 20.32 167.73 20.32C167.13 20.32 166.59 20.46 166.11 20.74C165.63 21.0067 165.25 21.3933 164.97 21.9C164.69 22.4067 164.55 22.9933 164.55 23.66C164.55 24.3267 164.69 24.9133 164.97 25.42C165.25 25.9267 165.63 26.32 166.11 26.6C166.59 26.8667 167.13 27 167.73 27ZM185.918 23.72C185.918 23.8933 185.905 24.14 185.878 24.46H177.498C177.645 25.2467 178.025 25.8733 178.638 26.34C179.265 26.7933 180.038 27.02 180.958 27.02C182.132 27.02 183.098 26.6333 183.858 25.86L185.198 27.4C184.718 27.9733 184.112 28.4067 183.378 28.7C182.645 28.9933 181.818 29.14 180.898 29.14C179.725 29.14 178.692 28.9067 177.798 28.44C176.905 27.9733 176.212 27.3267 175.718 26.5C175.238 25.66 174.998 24.7133 174.998 23.66C174.998 22.62 175.232 21.6867 175.698 20.86C176.178 20.02 176.838 19.3667 177.678 18.9C178.518 18.4333 179.465 18.2 180.518 18.2C181.558 18.2 182.485 18.4333 183.298 18.9C184.125 19.3533 184.765 20 185.218 20.84C185.685 21.6667 185.918 22.6267 185.918 23.72ZM180.518 20.2C179.718 20.2 179.038 20.44 178.478 20.92C177.932 21.3867 177.598 22.0133 177.478 22.8H183.538C183.432 22.0267 183.105 21.4 182.558 20.92C182.012 20.44 181.332 20.2 180.518 20.2ZM193.093 24.72H191.153V29H188.653V18.32H191.153V22.64H193.153L196.313 18.32H198.993L195.113 23.46L199.253 29H196.313L193.093 24.72ZM210.696 18.32V29H208.196V20.44H204.196L204.096 22.56C204.029 23.9733 203.896 25.16 203.696 26.12C203.509 27.0667 203.183 27.82 202.716 28.38C202.263 28.9267 201.636 29.2 200.836 29.2C200.463 29.2 200.003 29.1267 199.456 28.98L199.576 26.88C199.763 26.92 199.923 26.94 200.056 26.94C200.563 26.94 200.943 26.74 201.196 26.34C201.449 25.9267 201.609 25.44 201.676 24.88C201.756 24.3067 201.823 23.4933 201.876 22.44L202.056 18.32H210.696ZM218.043 18.2C219.616 18.2 220.816 18.58 221.643 19.34C222.483 20.0867 222.903 21.22 222.903 22.74V29H220.543V27.7C220.236 28.1667 219.796 28.5267 219.223 28.78C218.663 29.02 217.983 29.14 217.183 29.14C216.383 29.14 215.683 29.0067 215.083 28.74C214.483 28.46 214.016 28.08 213.683 27.6C213.363 27.1067 213.203 26.5533 213.203 25.94C213.203 24.98 213.556 24.2133 214.263 23.64C214.983 23.0533 216.109 22.76 217.643 22.76H220.403V22.6C220.403 21.8533 220.176 21.28 219.723 20.88C219.283 20.48 218.623 20.28 217.743 20.28C217.143 20.28 216.549 20.3733 215.963 20.56C215.389 20.7467 214.903 21.0067 214.503 21.34L213.523 19.52C214.083 19.0933 214.756 18.7667 215.543 18.54C216.329 18.3133 217.163 18.2 218.043 18.2ZM217.703 27.32C218.329 27.32 218.883 27.18 219.363 26.9C219.856 26.6067 220.203 26.1933 220.403 25.66V24.42H217.823C216.383 24.42 215.663 24.8933 215.663 25.84C215.663 26.2933 215.843 26.6533 216.203 26.92C216.563 27.1867 217.063 27.32 217.703 27.32ZM236.496 29V21.92L232.896 27.88H231.816L228.276 21.9V29H225.996V18.32H228.616L232.416 25L236.396 18.32H238.736L238.756 29H236.496ZM246.09 18.2C247.663 18.2 248.863 18.58 249.69 19.34C250.53 20.0867 250.95 21.22 250.95 22.74V29H248.59V27.7C248.283 28.1667 247.843 28.5267 247.27 28.78C246.71 29.02 246.03 29.14 245.23 29.14C244.43 29.14 243.73 29.0067 243.13 28.74C242.53 28.46 242.063 28.08 241.73 27.6C241.41 27.1067 241.25 26.5533 241.25 25.94C241.25 24.98 241.603 24.2133 242.31 23.64C243.03 23.0533 244.156 22.76 245.69 22.76H248.45V22.6C248.45 21.8533 248.223 21.28 247.77 20.88C247.33 20.48 246.67 20.28 245.79 20.28C245.19 20.28 244.596 20.3733 244.01 20.56C243.436 20.7467 242.95 21.0067 242.55 21.34L241.57 19.52C242.13 19.0933 242.803 18.7667 243.59 18.54C244.376 18.3133 245.21 18.2 246.09 18.2ZM245.75 27.32C246.376 27.32 246.93 27.18 247.41 26.9C247.903 26.6067 248.25 26.1933 248.45 25.66V24.42H245.87C244.43 24.42 243.71 24.8933 243.71 25.84C243.71 26.2933 243.89 26.6533 244.25 26.92C244.61 27.1867 245.11 27.32 245.75 27.32Z" fill="#D6D6D6"/>
<rect x="97.5" y="66" width="323" height="42" rx="21" fill="#282828"/>
<rect x="97.5" y="66" width="323" height="42" rx="21" stroke="#515151" stroke-width="2"/>
<path d="M128.62 82.2H123.98V94H121.4V82.2H116.78V80H128.62V82.2ZM133.996 83.2C135.569 83.2 136.769 83.58 137.596 84.34C138.436 85.0867 138.856 86.22 138.856 87.74V94H136.496V92.7C136.189 93.1667 135.749 93.5267 135.176 93.78C134.616 94.02 133.936 94.14 133.136 94.14C132.336 94.14 131.636 94.0067 131.036 93.74C130.436 93.46 129.969 93.08 129.636 92.6C129.316 92.1067 129.156 91.5533 129.156 90.94C129.156 89.98 129.509 89.2133 130.216 88.64C130.936 88.0533 132.063 87.76 133.596 87.76H136.356V87.6C136.356 86.8533 136.129 86.28 135.676 85.88C135.236 85.48 134.576 85.28 133.696 85.28C133.096 85.28 132.503 85.3733 131.916 85.56C131.343 85.7467 130.856 86.0067 130.456 86.34L129.476 84.52C130.036 84.0933 130.709 83.7667 131.496 83.54C132.283 83.3133 133.116 83.2 133.996 83.2ZM133.656 92.32C134.283 92.32 134.836 92.18 135.316 91.9C135.809 91.6067 136.156 91.1933 136.356 90.66V89.42H133.776C132.336 89.42 131.616 89.8933 131.616 90.84C131.616 91.2933 131.796 91.6533 132.156 91.92C132.516 92.1867 133.016 92.32 133.656 92.32ZM147.87 83.2C148.91 83.2 149.836 83.4267 150.65 83.88C151.476 84.3333 152.123 84.9733 152.59 85.8C153.056 86.6267 153.29 87.58 153.29 88.66C153.29 89.74 153.056 90.7 152.59 91.54C152.123 92.3667 151.476 93.0067 150.65 93.46C149.836 93.9133 148.91 94.14 147.87 94.14C146.43 94.14 145.29 93.66 144.45 92.7V97.88H141.95V83.32H144.33V84.72C144.743 84.2133 145.25 83.8333 145.85 83.58C146.463 83.3267 147.136 83.2 147.87 83.2ZM147.59 92C148.51 92 149.263 91.6933 149.85 91.08C150.45 90.4667 150.75 89.66 150.75 88.66C150.75 87.66 150.45 86.8533 149.85 86.24C149.263 85.6267 148.51 85.32 147.59 85.32C146.99 85.32 146.45 85.46 145.97 85.74C145.49 86.0067 145.11 86.3933 144.83 86.9C144.55 87.4067 144.41 87.9933 144.41 88.66C144.41 89.3267 144.55 89.9133 144.83 90.42C145.11 90.9267 145.49 91.32 145.97 91.6C146.45 91.8667 146.99 92 147.59 92ZM163.978 85.44H158.278V94H155.778V83.32H163.978V85.44ZM175.328 88.72C175.328 88.8933 175.315 89.14 175.288 89.46H166.908C167.055 90.2467 167.435 90.8733 168.048 91.34C168.675 91.7933 169.448 92.02 170.368 92.02C171.542 92.02 172.508 91.6333 173.268 90.86L174.608 92.4C174.128 92.9733 173.522 93.4067 172.788 93.7C172.055 93.9933 171.228 94.14 170.308 94.14C169.135 94.14 168.102 93.9067 167.208 93.44C166.315 92.9733 165.622 92.3267 165.128 91.5C164.648 90.66 164.408 89.7133 164.408 88.66C164.408 87.62 164.642 86.6867 165.108 85.86C165.588 85.02 166.248 84.3667 167.088 83.9C167.928 83.4333 168.875 83.2 169.928 83.2C170.968 83.2 171.895 83.4333 172.708 83.9C173.535 84.3533 174.175 85 174.628 85.84C175.095 86.6667 175.328 87.6267 175.328 88.72ZM169.928 85.2C169.128 85.2 168.448 85.44 167.888 85.92C167.342 86.3867 167.008 87.0133 166.888 87.8H172.948C172.842 87.0267 172.515 86.4 171.968 85.92C171.422 85.44 170.742 85.2 169.928 85.2ZM186.132 85.44H182.392V94H179.892V85.44H176.132V83.32H186.132V85.44ZM187.946 83.32H190.446V90.36L196.346 83.32H198.626V94H196.126V86.96L190.246 94H187.946V83.32ZM207.909 83.2C208.949 83.2 209.875 83.4267 210.689 83.88C211.515 84.3333 212.162 84.9733 212.629 85.8C213.095 86.6267 213.329 87.58 213.329 88.66C213.329 89.74 213.095 90.7 212.629 91.54C212.162 92.3667 211.515 93.0067 210.689 93.46C209.875 93.9133 208.949 94.14 207.909 94.14C206.469 94.14 205.329 93.66 204.489 92.7V97.88H201.989V83.32H204.369V84.72C204.782 84.2133 205.289 83.8333 205.889 83.58C206.502 83.3267 207.175 83.2 207.909 83.2ZM207.629 92C208.549 92 209.302 91.6933 209.889 91.08C210.489 90.4667 210.789 89.66 210.789 88.66C210.789 87.66 210.489 86.8533 209.889 86.24C209.302 85.6267 208.549 85.32 207.629 85.32C207.029 85.32 206.489 85.46 206.009 85.74C205.529 86.0067 205.149 86.3933 204.869 86.9C204.589 87.4067 204.449 87.9933 204.449 88.66C204.449 89.3267 204.589 89.9133 204.869 90.42C205.149 90.9267 205.529 91.32 206.009 91.6C206.489 91.8667 207.029 92 207.629 92ZM220.577 94.14C219.497 94.14 218.523 93.9067 217.657 93.44C216.79 92.9733 216.11 92.3267 215.617 91.5C215.137 90.66 214.897 89.7133 214.897 88.66C214.897 87.6067 215.137 86.6667 215.617 85.84C216.11 85.0133 216.79 84.3667 217.657 83.9C218.523 83.4333 219.497 83.2 220.577 83.2C221.67 83.2 222.65 83.4333 223.517 83.9C224.383 84.3667 225.057 85.0133 225.537 85.84C226.03 86.6667 226.277 87.6067 226.277 88.66C226.277 89.7133 226.03 90.66 225.537 91.5C225.057 92.3267 224.383 92.9733 223.517 93.44C222.65 93.9067 221.67 94.14 220.577 94.14ZM220.577 92C221.497 92 222.257 91.6933 222.857 91.08C223.457 90.4667 223.757 89.66 223.757 88.66C223.757 87.66 223.457 86.8533 222.857 86.24C222.257 85.6267 221.497 85.32 220.577 85.32C219.657 85.32 218.897 85.6267 218.297 86.24C217.71 86.8533 217.417 87.66 217.417 88.66C217.417 89.66 217.71 90.4667 218.297 91.08C218.897 91.6933 219.657 92 220.577 92ZM236.486 88.44C237.806 88.84 238.466 89.6933 238.466 91C238.466 91.96 238.106 92.7 237.386 93.22C236.666 93.74 235.6 94 234.186 94H228.746V83.32H233.966C235.273 83.32 236.293 83.56 237.026 84.04C237.76 84.52 238.126 85.2 238.126 86.08C238.126 86.6267 237.98 87.1 237.686 87.5C237.406 87.9 237.006 88.2133 236.486 88.44ZM231.126 87.78H233.746C235.04 87.78 235.686 87.3333 235.686 86.44C235.686 85.5733 235.04 85.14 233.746 85.14H231.126V87.78ZM233.986 92.18C235.36 92.18 236.046 91.7333 236.046 90.84C236.046 90.3733 235.886 90.0267 235.566 89.8C235.246 89.56 234.746 89.44 234.066 89.44H231.126V92.18H233.986ZM245.109 83.2C246.683 83.2 247.883 83.58 248.709 84.34C249.549 85.0867 249.969 86.22 249.969 87.74V94H247.609V92.7C247.303 93.1667 246.863 93.5267 246.289 93.78C245.729 94.02 245.049 94.14 244.249 94.14C243.449 94.14 242.749 94.0067 242.149 93.74C241.549 93.46 241.083 93.08 240.749 92.6C240.429 92.1067 240.269 91.5533 240.269 90.94C240.269 89.98 240.623 89.2133 241.329 88.64C242.049 88.0533 243.176 87.76 244.709 87.76H247.469V87.6C247.469 86.8533 247.243 86.28 246.789 85.88C246.349 85.48 245.689 85.28 244.809 85.28C244.209 85.28 243.616 85.3733 243.029 85.56C242.456 85.7467 241.969 86.0067 241.569 86.34L240.589 84.52C241.149 84.0933 241.823 83.7667 242.609 83.54C243.396 83.3133 244.229 83.2 245.109 83.2ZM244.769 92.32C245.396 92.32 245.949 92.18 246.429 91.9C246.923 91.6067 247.269 91.1933 247.469 90.66V89.42H244.889C243.449 89.42 242.729 89.8933 242.729 90.84C242.729 91.2933 242.909 91.6533 243.269 91.92C243.629 92.1867 244.129 92.32 244.769 92.32ZM253.063 83.32H255.563V87.66H260.943V83.32H263.443V94H260.943V89.78H255.563V94H253.063V83.32ZM266.793 83.32H269.293V87.66H274.673V83.32H277.173V94H274.673V89.78H269.293V94H266.793V83.32ZM284.504 83.2C286.077 83.2 287.277 83.58 288.104 84.34C288.944 85.0867 289.364 86.22 289.364 87.74V94H287.004V92.7C286.697 93.1667 286.257 93.5267 285.684 93.78C285.124 94.02 284.444 94.14 283.644 94.14C282.844 94.14 282.144 94.0067 281.544 93.74C280.944 93.46 280.477 93.08 280.144 92.6C279.824 92.1067 279.664 91.5533 279.664 90.94C279.664 89.98 280.017 89.2133 280.724 88.64C281.444 88.0533 282.57 87.76 284.104 87.76H286.864V87.6C286.864 86.8533 286.637 86.28 286.184 85.88C285.744 85.48 285.084 85.28 284.204 85.28C283.604 85.28 283.01 85.3733 282.424 85.56C281.85 85.7467 281.364 86.0067 280.964 86.34L279.984 84.52C280.544 84.0933 281.217 83.7667 282.004 83.54C282.79 83.3133 283.624 83.2 284.504 83.2ZM284.164 92.32C284.79 92.32 285.344 92.18 285.824 91.9C286.317 91.6067 286.664 91.1933 286.864 90.66V89.42H284.284C282.844 89.42 282.124 89.8933 282.124 90.84C282.124 91.2933 282.304 91.6533 282.664 91.92C283.024 92.1867 283.524 92.32 284.164 92.32ZM301.477 83.32V94H299.237V90.78H296.417L294.237 94H291.557L294.077 90.44C293.304 90.1733 292.711 89.7667 292.297 89.22C291.897 88.66 291.697 87.9733 291.697 87.16C291.697 85.9333 292.131 84.9867 292.997 84.32C293.864 83.6533 295.057 83.32 296.577 83.32H301.477ZM296.657 85.42C295.044 85.42 294.237 86.0267 294.237 87.24C294.237 88.44 295.017 89.04 296.577 89.04H299.237V85.42H296.657ZM316.288 83.2C317.328 83.2 318.254 83.4267 319.068 83.88C319.894 84.3333 320.541 84.9733 321.008 85.8C321.474 86.6267 321.708 87.58 321.708 88.66C321.708 89.74 321.474 90.7 321.008 91.54C320.541 92.3667 319.894 93.0067 319.068 93.46C318.254 93.9133 317.328 94.14 316.288 94.14C314.848 94.14 313.708 93.66 312.868 92.7V97.88H310.368V83.32H312.748V84.72C313.161 84.2133 313.668 83.8333 314.268 83.58C314.881 83.3267 315.554 83.2 316.288 83.2ZM316.008 92C316.928 92 317.681 91.6933 318.268 91.08C318.868 90.4667 319.168 89.66 319.168 88.66C319.168 87.66 318.868 86.8533 318.268 86.24C317.681 85.6267 316.928 85.32 316.008 85.32C315.408 85.32 314.868 85.46 314.388 85.74C313.908 86.0067 313.528 86.3933 313.248 86.9C312.968 87.4067 312.828 87.9933 312.828 88.66C312.828 89.3267 312.968 89.9133 313.248 90.42C313.528 90.9267 313.908 91.32 314.388 91.6C314.868 91.8667 315.408 92 316.008 92ZM334.196 88.72C334.196 88.8933 334.182 89.14 334.156 89.46H325.776C325.922 90.2467 326.302 90.8733 326.916 91.34C327.542 91.7933 328.316 92.02 329.236 92.02C330.409 92.02 331.376 91.6333 332.136 90.86L333.476 92.4C332.996 92.9733 332.389 93.4067 331.656 93.7C330.922 93.9933 330.096 94.14 329.176 94.14C328.002 94.14 326.969 93.9067 326.076 93.44C325.182 92.9733 324.489 92.3267 323.996 91.5C323.516 90.66 323.276 89.7133 323.276 88.66C323.276 87.62 323.509 86.6867 323.976 85.86C324.456 85.02 325.116 84.3667 325.956 83.9C326.796 83.4333 327.742 83.2 328.796 83.2C329.836 83.2 330.762 83.4333 331.576 83.9C332.402 84.3533 333.042 85 333.496 85.84C333.962 86.6667 334.196 87.6267 334.196 88.72ZM328.796 85.2C327.996 85.2 327.316 85.44 326.756 85.92C326.209 86.3867 325.876 87.0133 325.756 87.8H331.816C331.709 87.0267 331.382 86.4 330.836 85.92C330.289 85.44 329.609 85.2 328.796 85.2ZM341.37 89.72H339.43V94H336.93V83.32H339.43V87.64H341.43L344.59 83.32H347.27L343.39 88.46L347.53 94H344.59L341.37 89.72ZM358.973 83.32V94H356.473V85.44H352.473L352.373 87.56C352.307 88.9733 352.173 90.16 351.973 91.12C351.787 92.0667 351.46 92.82 350.993 93.38C350.54 93.9267 349.913 94.2 349.113 94.2C348.74 94.2 348.28 94.1267 347.733 93.98L347.853 91.88C348.04 91.92 348.2 91.94 348.333 91.94C348.84 91.94 349.22 91.74 349.473 91.34C349.727 90.9267 349.887 90.44 349.953 89.88C350.033 89.3067 350.1 88.4933 350.153 87.44L350.333 83.32H358.973ZM366.32 83.2C367.893 83.2 369.093 83.58 369.92 84.34C370.76 85.0867 371.18 86.22 371.18 87.74V94H368.82V92.7C368.513 93.1667 368.073 93.5267 367.5 93.78C366.94 94.02 366.26 94.14 365.46 94.14C364.66 94.14 363.96 94.0067 363.36 93.74C362.76 93.46 362.293 93.08 361.96 92.6C361.64 92.1067 361.48 91.5533 361.48 90.94C361.48 89.98 361.833 89.2133 362.54 88.64C363.26 88.0533 364.387 87.76 365.92 87.76H368.68V87.6C368.68 86.8533 368.453 86.28 368 85.88C367.56 85.48 366.9 85.28 366.02 85.28C365.42 85.28 364.827 85.3733 364.24 85.56C363.667 85.7467 363.18 86.0067 362.78 86.34L361.8 84.52C362.36 84.0933 363.033 83.7667 363.82 83.54C364.607 83.3133 365.44 83.2 366.32 83.2ZM365.98 92.32C366.607 92.32 367.16 92.18 367.64 91.9C368.133 91.6067 368.48 91.1933 368.68 90.66V89.42H366.1C364.66 89.42 363.94 89.8933 363.94 90.84C363.94 91.2933 364.12 91.6533 364.48 91.92C364.84 92.1867 365.34 92.32 365.98 92.32ZM384.774 94V86.92L381.174 92.88H380.094L376.554 86.9V94H374.274V83.32H376.894L380.694 90L384.674 83.32H387.014L387.034 94H384.774ZM394.367 83.2C395.94 83.2 397.14 83.58 397.967 84.34C398.807 85.0867 399.227 86.22 399.227 87.74V94H396.867V92.7C396.56 93.1667 396.12 93.5267 395.547 93.78C394.987 94.02 394.307 94.14 393.507 94.14C392.707 94.14 392.007 94.0067 391.407 93.74C390.807 93.46 390.34 93.08 390.007 92.6C389.687 92.1067 389.527 91.5533 389.527 90.94C389.527 89.98 389.88 89.2133 390.587 88.64C391.307 88.0533 392.434 87.76 393.967 87.76H396.727V87.6C396.727 86.8533 396.5 86.28 396.047 85.88C395.607 85.48 394.947 85.28 394.067 85.28C393.467 85.28 392.874 85.3733 392.287 85.56C391.714 85.7467 391.227 86.0067 390.827 86.34L389.847 84.52C390.407 84.0933 391.08 83.7667 391.867 83.54C392.654 83.3133 393.487 83.2 394.367 83.2ZM394.027 92.32C394.654 92.32 395.207 92.18 395.687 91.9C396.18 91.6067 396.527 91.1933 396.727 90.66V89.42H394.147C392.707 89.42 391.987 89.8933 391.987 90.84C391.987 91.2933 392.167 91.6533 392.527 91.92C392.887 92.1867 393.387 92.32 394.027 92.32Z" fill="white"/>
<path d="M128.62 82.2H123.98V94H121.4V82.2H116.78V80H128.62V82.2ZM133.996 83.2C135.569 83.2 136.769 83.58 137.596 84.34C138.436 85.0867 138.856 86.22 138.856 87.74V94H136.496V92.7C136.189 93.1667 135.749 93.5267 135.176 93.78C134.616 94.02 133.936 94.14 133.136 94.14C132.336 94.14 131.636 94.0067 131.036 93.74C130.436 93.46 129.969 93.08 129.636 92.6C129.316 92.1067 129.156 91.5533 129.156 90.94C129.156 89.98 129.509 89.2133 130.216 88.64C130.936 88.0533 132.063 87.76 133.596 87.76H136.356V87.6C136.356 86.8533 136.129 86.28 135.676 85.88C135.236 85.48 134.576 85.28 133.696 85.28C133.096 85.28 132.503 85.3733 131.916 85.56C131.343 85.7467 130.856 86.0067 130.456 86.34L129.476 84.52C130.036 84.0933 130.709 83.7667 131.496 83.54C132.283 83.3133 133.116 83.2 133.996 83.2ZM133.656 92.32C134.283 92.32 134.836 92.18 135.316 91.9C135.809 91.6067 136.156 91.1933 136.356 90.66V89.42H133.776C132.336 89.42 131.616 89.8933 131.616 90.84C131.616 91.2933 131.796 91.6533 132.156 91.92C132.516 92.1867 133.016 92.32 133.656 92.32ZM147.87 83.2C148.91 83.2 149.836 83.4267 150.65 83.88C151.476 84.3333 152.123 84.9733 152.59 85.8C153.056 86.6267 153.29 87.58 153.29 88.66C153.29 89.74 153.056 90.7 152.59 91.54C152.123 92.3667 151.476 93.0067 150.65 93.46C149.836 93.9133 148.91 94.14 147.87 94.14C146.43 94.14 145.29 93.66 144.45 92.7V97.88H141.95V83.32H144.33V84.72C144.743 84.2133 145.25 83.8333 145.85 83.58C146.463 83.3267 147.136 83.2 147.87 83.2ZM147.59 92C148.51 92 149.263 91.6933 149.85 91.08C150.45 90.4667 150.75 89.66 150.75 88.66C150.75 87.66 150.45 86.8533 149.85 86.24C149.263 85.6267 148.51 85.32 147.59 85.32C146.99 85.32 146.45 85.46 145.97 85.74C145.49 86.0067 145.11 86.3933 144.83 86.9C144.55 87.4067 144.41 87.9933 144.41 88.66C144.41 89.3267 144.55 89.9133 144.83 90.42C145.11 90.9267 145.49 91.32 145.97 91.6C146.45 91.8667 146.99 92 147.59 92ZM163.978 85.44H158.278V94H155.778V83.32H163.978V85.44ZM175.328 88.72C175.328 88.8933 175.315 89.14 175.288 89.46H166.908C167.055 90.2467 167.435 90.8733 168.048 91.34C168.675 91.7933 169.448 92.02 170.368 92.02C171.542 92.02 172.508 91.6333 173.268 90.86L174.608 92.4C174.128 92.9733 173.522 93.4067 172.788 93.7C172.055 93.9933 171.228 94.14 170.308 94.14C169.135 94.14 168.102 93.9067 167.208 93.44C166.315 92.9733 165.622 92.3267 165.128 91.5C164.648 90.66 164.408 89.7133 164.408 88.66C164.408 87.62 164.642 86.6867 165.108 85.86C165.588 85.02 166.248 84.3667 167.088 83.9C167.928 83.4333 168.875 83.2 169.928 83.2C170.968 83.2 171.895 83.4333 172.708 83.9C173.535 84.3533 174.175 85 174.628 85.84C175.095 86.6667 175.328 87.6267 175.328 88.72ZM169.928 85.2C169.128 85.2 168.448 85.44 167.888 85.92C167.342 86.3867 167.008 87.0133 166.888 87.8H172.948C172.842 87.0267 172.515 86.4 171.968 85.92C171.422 85.44 170.742 85.2 169.928 85.2ZM186.132 85.44H182.392V94H179.892V85.44H176.132V83.32H186.132V85.44ZM187.946 83.32H190.446V90.36L196.346 83.32H198.626V94H196.126V86.96L190.246 94H187.946V83.32ZM207.909 83.2C208.949 83.2 209.875 83.4267 210.689 83.88C211.515 84.3333 212.162 84.9733 212.629 85.8C213.095 86.6267 213.329 87.58 213.329 88.66C213.329 89.74 213.095 90.7 212.629 91.54C212.162 92.3667 211.515 93.0067 210.689 93.46C209.875 93.9133 208.949 94.14 207.909 94.14C206.469 94.14 205.329 93.66 204.489 92.7V97.88H201.989V83.32H204.369V84.72C204.782 84.2133 205.289 83.8333 205.889 83.58C206.502 83.3267 207.175 83.2 207.909 83.2ZM207.629 92C208.549 92 209.302 91.6933 209.889 91.08C210.489 90.4667 210.789 89.66 210.789 88.66C210.789 87.66 210.489 86.8533 209.889 86.24C209.302 85.6267 208.549 85.32 207.629 85.32C207.029 85.32 206.489 85.46 206.009 85.74C205.529 86.0067 205.149 86.3933 204.869 86.9C204.589 87.4067 204.449 87.9933 204.449 88.66C204.449 89.3267 204.589 89.9133 204.869 90.42C205.149 90.9267 205.529 91.32 206.009 91.6C206.489 91.8667 207.029 92 207.629 92ZM220.577 94.14C219.497 94.14 218.523 93.9067 217.657 93.44C216.79 92.9733 216.11 92.3267 215.617 91.5C215.137 90.66 214.897 89.7133 214.897 88.66C214.897 87.6067 215.137 86.6667 215.617 85.84C216.11 85.0133 216.79 84.3667 217.657 83.9C218.523 83.4333 219.497 83.2 220.577 83.2C221.67 83.2 222.65 83.4333 223.517 83.9C224.383 84.3667 225.057 85.0133 225.537 85.84C226.03 86.6667 226.277 87.6067 226.277 88.66C226.277 89.7133 226.03 90.66 225.537 91.5C225.057 92.3267 224.383 92.9733 223.517 93.44C222.65 93.9067 221.67 94.14 220.577 94.14ZM220.577 92C221.497 92 222.257 91.6933 222.857 91.08C223.457 90.4667 223.757 89.66 223.757 88.66C223.757 87.66 223.457 86.8533 222.857 86.24C222.257 85.6267 221.497 85.32 220.577 85.32C219.657 85.32 218.897 85.6267 218.297 86.24C217.71 86.8533 217.417 87.66 217.417 88.66C217.417 89.66 217.71 90.4667 218.297 91.08C218.897 91.6933 219.657 92 220.577 92ZM236.486 88.44C237.806 88.84 238.466 89.6933 238.466 91C238.466 91.96 238.106 92.7 237.386 93.22C236.666 93.74 235.6 94 234.186 94H228.746V83.32H233.966C235.273 83.32 236.293 83.56 237.026 84.04C237.76 84.52 238.126 85.2 238.126 86.08C238.126 86.6267 237.98 87.1 237.686 87.5C237.406 87.9 237.006 88.2133 236.486 88.44ZM231.126 87.78H233.746C235.04 87.78 235.686 87.3333 235.686 86.44C235.686 85.5733 235.04 85.14 233.746 85.14H231.126V87.78ZM233.986 92.18C235.36 92.18 236.046 91.7333 236.046 90.84C236.046 90.3733 235.886 90.0267 235.566 89.8C235.246 89.56 234.746 89.44 234.066 89.44H231.126V92.18H233.986ZM245.109 83.2C246.683 83.2 247.883 83.58 248.709 84.34C249.549 85.0867 249.969 86.22 249.969 87.74V94H247.609V92.7C247.303 93.1667 246.863 93.5267 246.289 93.78C245.729 94.02 245.049 94.14 244.249 94.14C243.449 94.14 242.749 94.0067 242.149 93.74C241.549 93.46 241.083 93.08 240.749 92.6C240.429 92.1067 240.269 91.5533 240.269 90.94C240.269 89.98 240.623 89.2133 241.329 88.64C242.049 88.0533 243.176 87.76 244.709 87.76H247.469V87.6C247.469 86.8533 247.243 86.28 246.789 85.88C246.349 85.48 245.689 85.28 244.809 85.28C244.209 85.28 243.616 85.3733 243.029 85.56C242.456 85.7467 241.969 86.0067 241.569 86.34L240.589 84.52C241.149 84.0933 241.823 83.7667 242.609 83.54C243.396 83.3133 244.229 83.2 245.109 83.2ZM244.769 92.32C245.396 92.32 245.949 92.18 246.429 91.9C246.923 91.6067 247.269 91.1933 247.469 90.66V89.42H244.889C243.449 89.42 242.729 89.8933 242.729 90.84C242.729 91.2933 242.909 91.6533 243.269 91.92C243.629 92.1867 244.129 92.32 244.769 92.32ZM253.063 83.32H255.563V87.66H260.943V83.32H263.443V94H260.943V89.78H255.563V94H253.063V83.32ZM266.793 83.32H269.293V87.66H274.673V83.32H277.173V94H274.673V89.78H269.293V94H266.793V83.32ZM284.504 83.2C286.077 83.2 287.277 83.58 288.104 84.34C288.944 85.0867 289.364 86.22 289.364 87.74V94H287.004V92.7C286.697 93.1667 286.257 93.5267 285.684 93.78C285.124 94.02 284.444 94.14 283.644 94.14C282.844 94.14 282.144 94.0067 281.544 93.74C280.944 93.46 280.477 93.08 280.144 92.6C279.824 92.1067 279.664 91.5533 279.664 90.94C279.664 89.98 280.017 89.2133 280.724 88.64C281.444 88.0533 282.57 87.76 284.104 87.76H286.864V87.6C286.864 86.8533 286.637 86.28 286.184 85.88C285.744 85.48 285.084 85.28 284.204 85.28C283.604 85.28 283.01 85.3733 282.424 85.56C281.85 85.7467 281.364 86.0067 280.964 86.34L279.984 84.52C280.544 84.0933 281.217 83.7667 282.004 83.54C282.79 83.3133 283.624 83.2 284.504 83.2ZM284.164 92.32C284.79 92.32 285.344 92.18 285.824 91.9C286.317 91.6067 286.664 91.1933 286.864 90.66V89.42H284.284C282.844 89.42 282.124 89.8933 282.124 90.84C282.124 91.2933 282.304 91.6533 282.664 91.92C283.024 92.1867 283.524 92.32 284.164 92.32ZM301.477 83.32V94H299.237V90.78H296.417L294.237 94H291.557L294.077 90.44C293.304 90.1733 292.711 89.7667 292.297 89.22C291.897 88.66 291.697 87.9733 291.697 87.16C291.697 85.9333 292.131 84.9867 292.997 84.32C293.864 83.6533 295.057 83.32 296.577 83.32H301.477ZM296.657 85.42C295.044 85.42 294.237 86.0267 294.237 87.24C294.237 88.44 295.017 89.04 296.577 89.04H299.237V85.42H296.657ZM316.288 83.2C317.328 83.2 318.254 83.4267 319.068 83.88C319.894 84.3333 320.541 84.9733 321.008 85.8C321.474 86.6267 321.708 87.58 321.708 88.66C321.708 89.74 321.474 90.7 321.008 91.54C320.541 92.3667 319.894 93.0067 319.068 93.46C318.254 93.9133 317.328 94.14 316.288 94.14C314.848 94.14 313.708 93.66 312.868 92.7V97.88H310.368V83.32H312.748V84.72C313.161 84.2133 313.668 83.8333 314.268 83.58C314.881 83.3267 315.554 83.2 316.288 83.2ZM316.008 92C316.928 92 317.681 91.6933 318.268 91.08C318.868 90.4667 319.168 89.66 319.168 88.66C319.168 87.66 318.868 86.8533 318.268 86.24C317.681 85.6267 316.928 85.32 316.008 85.32C315.408 85.32 314.868 85.46 314.388 85.74C313.908 86.0067 313.528 86.3933 313.248 86.9C312.968 87.4067 312.828 87.9933 312.828 88.66C312.828 89.3267 312.968 89.9133 313.248 90.42C313.528 90.9267 313.908 91.32 314.388 91.6C314.868 91.8667 315.408 92 316.008 92ZM334.196 88.72C334.196 88.8933 334.182 89.14 334.156 89.46H325.776C325.922 90.2467 326.302 90.8733 326.916 91.34C327.542 91.7933 328.316 92.02 329.236 92.02C330.409 92.02 331.376 91.6333 332.136 90.86L333.476 92.4C332.996 92.9733 332.389 93.4067 331.656 93.7C330.922 93.9933 330.096 94.14 329.176 94.14C328.002 94.14 326.969 93.9067 326.076 93.44C325.182 92.9733 324.489 92.3267 323.996 91.5C323.516 90.66 323.276 89.7133 323.276 88.66C323.276 87.62 323.509 86.6867 323.976 85.86C324.456 85.02 325.116 84.3667 325.956 83.9C326.796 83.4333 327.742 83.2 328.796 83.2C329.836 83.2 330.762 83.4333 331.576 83.9C332.402 84.3533 333.042 85 333.496 85.84C333.962 86.6667 334.196 87.6267 334.196 88.72ZM328.796 85.2C327.996 85.2 327.316 85.44 326.756 85.92C326.209 86.3867 325.876 87.0133 325.756 87.8H331.816C331.709 87.0267 331.382 86.4 330.836 85.92C330.289 85.44 329.609 85.2 328.796 85.2ZM341.37 89.72H339.43V94H336.93V83.32H339.43V87.64H341.43L344.59 83.32H347.27L343.39 88.46L347.53 94H344.59L341.37 89.72ZM358.973 83.32V94H356.473V85.44H352.473L352.373 87.56C352.307 88.9733 352.173 90.16 351.973 91.12C351.787 92.0667 351.46 92.82 350.993 93.38C350.54 93.9267 349.913 94.2 349.113 94.2C348.74 94.2 348.28 94.1267 347.733 93.98L347.853 91.88C348.04 91.92 348.2 91.94 348.333 91.94C348.84 91.94 349.22 91.74 349.473 91.34C349.727 90.9267 349.887 90.44 349.953 89.88C350.033 89.3067 350.1 88.4933 350.153 87.44L350.333 83.32H358.973ZM366.32 83.2C367.893 83.2 369.093 83.58 369.92 84.34C370.76 85.0867 371.18 86.22 371.18 87.74V94H368.82V92.7C368.513 93.1667 368.073 93.5267 367.5 93.78C366.94 94.02 366.26 94.14 365.46 94.14C364.66 94.14 363.96 94.0067 363.36 93.74C362.76 93.46 362.293 93.08 361.96 92.6C361.64 92.1067 361.48 91.5533 361.48 90.94C361.48 89.98 361.833 89.2133 362.54 88.64C363.26 88.0533 364.387 87.76 365.92 87.76H368.68V87.6C368.68 86.8533 368.453 86.28 368 85.88C367.56 85.48 366.9 85.28 366.02 85.28C365.42 85.28 364.827 85.3733 364.24 85.56C363.667 85.7467 363.18 86.0067 362.78 86.34L361.8 84.52C362.36 84.0933 363.033 83.7667 363.82 83.54C364.607 83.3133 365.44 83.2 366.32 83.2ZM365.98 92.32C366.607 92.32 367.16 92.18 367.64 91.9C368.133 91.6067 368.48 91.1933 368.68 90.66V89.42H366.1C364.66 89.42 363.94 89.8933 363.94 90.84C363.94 91.2933 364.12 91.6533 364.48 91.92C364.84 92.1867 365.34 92.32 365.98 92.32ZM384.774 94V86.92L381.174 92.88H380.094L376.554 86.9V94H374.274V83.32H376.894L380.694 90L384.674 83.32H387.014L387.034 94H384.774ZM394.367 83.2C395.94 83.2 397.14 83.58 397.967 84.34C398.807 85.0867 399.227 86.22 399.227 87.74V94H396.867V92.7C396.56 93.1667 396.12 93.5267 395.547 93.78C394.987 94.02 394.307 94.14 393.507 94.14C392.707 94.14 392.007 94.0067 391.407 93.74C390.807 93.46 390.34 93.08 390.007 92.6C389.687 92.1067 389.527 91.5533 389.527 90.94C389.527 89.98 389.88 89.2133 390.587 88.64C391.307 88.0533 392.434 87.76 393.967 87.76H396.727V87.6C396.727 86.8533 396.5 86.28 396.047 85.88C395.607 85.48 394.947 85.28 394.067 85.28C393.467 85.28 392.874 85.3733 392.287 85.56C391.714 85.7467 391.227 86.0067 390.827 86.34L389.847 84.52C390.407 84.0933 391.08 83.7667 391.867 83.54C392.654 83.3133 393.487 83.2 394.367 83.2ZM394.027 92.32C394.654 92.32 395.207 92.18 395.687 91.9C396.18 91.6067 396.527 91.1933 396.727 90.66V89.42H394.147C392.707 89.42 391.987 89.8933 391.987 90.84C391.987 91.2933 392.167 91.6533 392.527 91.92C392.887 92.1867 393.387 92.32 394.027 92.32Z" fill="#D6D6D6"/>
<rect x="52" y="131" width="151" height="42" rx="21" fill="#282828"/>
<rect x="52" y="131" width="151" height="42" rx="21" stroke="#515151" stroke-width="2"/>
<path d="M77.22 159.2C76.14 159.2 75.0933 159.047 74.08 158.74C73.08 158.433 72.2867 158.027 71.7 157.52L72.6 155.5C73.1733 155.953 73.8733 156.327 74.7 156.62C75.54 156.9 76.38 157.04 77.22 157.04C78.26 157.04 79.0333 156.873 79.54 156.54C80.06 156.207 80.32 155.767 80.32 155.22C80.32 154.82 80.1733 154.493 79.88 154.24C79.6 153.973 79.24 153.767 78.8 153.62C78.36 153.473 77.76 153.307 77 153.12C75.9333 152.867 75.0667 152.613 74.4 152.36C73.7467 152.107 73.18 151.713 72.7 151.18C72.2333 150.633 72 149.9 72 148.98C72 148.207 72.2067 147.507 72.62 146.88C73.0467 146.24 73.68 145.733 74.52 145.36C75.3733 144.987 76.4133 144.8 77.64 144.8C78.4933 144.8 79.3333 144.907 80.16 145.12C80.9867 145.333 81.7 145.64 82.3 146.04L81.48 148.06C80.8667 147.7 80.2267 147.427 79.56 147.24C78.8933 147.053 78.2467 146.96 77.62 146.96C76.5933 146.96 75.8267 147.133 75.32 147.48C74.8267 147.827 74.58 148.287 74.58 148.86C74.58 149.26 74.72 149.587 75 149.84C75.2933 150.093 75.66 150.293 76.1 150.44C76.54 150.587 77.14 150.753 77.9 150.94C78.94 151.18 79.7933 151.433 80.46 151.7C81.1267 151.953 81.6933 152.347 82.16 152.88C82.64 153.413 82.88 154.133 82.88 155.04C82.88 155.813 82.6667 156.513 82.24 157.14C81.8267 157.767 81.1933 158.267 80.34 158.64C79.4867 159.013 78.4467 159.2 77.22 159.2ZM95.9581 156.82V159H85.4581V145H95.6781V147.18H88.0581V150.82H94.8181V152.96H88.0581V156.82H95.9581ZM105.338 159.2C103.911 159.2 102.625 158.893 101.478 158.28C100.331 157.653 99.4313 156.793 98.778 155.7C98.1246 154.593 97.798 153.36 97.798 152C97.798 150.64 98.1246 149.413 98.778 148.32C99.4313 147.213 100.331 146.353 101.478 145.74C102.625 145.113 103.911 144.8 105.338 144.8C106.765 144.8 108.051 145.113 109.198 145.74C110.345 146.353 111.245 147.207 111.898 148.3C112.551 149.393 112.878 150.627 112.878 152C112.878 153.373 112.551 154.607 111.898 155.7C111.245 156.793 110.345 157.653 109.198 158.28C108.051 158.893 106.765 159.2 105.338 159.2ZM105.338 156.92C106.271 156.92 107.111 156.713 107.858 156.3C108.605 155.873 109.191 155.287 109.618 154.54C110.045 153.78 110.258 152.933 110.258 152C110.258 151.067 110.045 150.227 109.618 149.48C109.191 148.72 108.605 148.133 107.858 147.72C107.111 147.293 106.271 147.08 105.338 147.08C104.405 147.08 103.565 147.293 102.818 147.72C102.071 148.133 101.485 148.72 101.058 149.48C100.631 150.227 100.418 151.067 100.418 152C100.418 152.933 100.631 153.78 101.058 154.54C101.485 155.287 102.071 155.873 102.818 156.3C103.565 156.713 104.405 156.92 105.338 156.92ZM130.521 155.76H123.521L122.141 159H119.461L125.761 145H128.321L134.641 159H131.921L130.521 155.76ZM129.661 153.72L127.021 147.6L124.401 153.72H129.661ZM146.041 148.32L141.041 159.86C140.575 161.02 140.008 161.833 139.341 162.3C138.675 162.78 137.868 163.02 136.921 163.02C136.388 163.02 135.861 162.933 135.341 162.76C134.821 162.587 134.395 162.347 134.061 162.04L135.061 160.2C135.301 160.427 135.581 160.607 135.901 160.74C136.235 160.873 136.568 160.94 136.901 160.94C137.341 160.94 137.701 160.827 137.981 160.6C138.275 160.373 138.541 159.993 138.781 159.46L138.961 159.04L134.301 148.32H136.901L140.261 156.22L143.641 148.32H146.041ZM158.514 156.88V161.38H156.174V159H147.934V161.38H145.614V156.88H146.114C146.794 156.853 147.254 156.42 147.494 155.58C147.747 154.727 147.914 153.527 147.994 151.98L148.134 148.32H156.934V156.88H158.514ZM150.274 152.16C150.22 153.387 150.12 154.387 149.974 155.16C149.827 155.933 149.56 156.507 149.174 156.88H154.434V150.44H150.334L150.274 152.16ZM160.746 148.32H163.246V155.36L169.146 148.32H171.426V159H168.926V151.96L163.046 159H160.746V148.32ZM183.249 150.44H179.509V159H177.009V150.44H173.249V148.32H183.249V150.44Z" fill="white"/>
<path d="M77.22 159.2C76.14 159.2 75.0933 159.047 74.08 158.74C73.08 158.433 72.2867 158.027 71.7 157.52L72.6 155.5C73.1733 155.953 73.8733 156.327 74.7 156.62C75.54 156.9 76.38 157.04 77.22 157.04C78.26 157.04 79.0333 156.873 79.54 156.54C80.06 156.207 80.32 155.767 80.32 155.22C80.32 154.82 80.1733 154.493 79.88 154.24C79.6 153.973 79.24 153.767 78.8 153.62C78.36 153.473 77.76 153.307 77 153.12C75.9333 152.867 75.0667 152.613 74.4 152.36C73.7467 152.107 73.18 151.713 72.7 151.18C72.2333 150.633 72 149.9 72 148.98C72 148.207 72.2067 147.507 72.62 146.88C73.0467 146.24 73.68 145.733 74.52 145.36C75.3733 144.987 76.4133 144.8 77.64 144.8C78.4933 144.8 79.3333 144.907 80.16 145.12C80.9867 145.333 81.7 145.64 82.3 146.04L81.48 148.06C80.8667 147.7 80.2267 147.427 79.56 147.24C78.8933 147.053 78.2467 146.96 77.62 146.96C76.5933 146.96 75.8267 147.133 75.32 147.48C74.8267 147.827 74.58 148.287 74.58 148.86C74.58 149.26 74.72 149.587 75 149.84C75.2933 150.093 75.66 150.293 76.1 150.44C76.54 150.587 77.14 150.753 77.9 150.94C78.94 151.18 79.7933 151.433 80.46 151.7C81.1267 151.953 81.6933 152.347 82.16 152.88C82.64 153.413 82.88 154.133 82.88 155.04C82.88 155.813 82.6667 156.513 82.24 157.14C81.8267 157.767 81.1933 158.267 80.34 158.64C79.4867 159.013 78.4467 159.2 77.22 159.2ZM95.9581 156.82V159H85.4581V145H95.6781V147.18H88.0581V150.82H94.8181V152.96H88.0581V156.82H95.9581ZM105.338 159.2C103.911 159.2 102.625 158.893 101.478 158.28C100.331 157.653 99.4313 156.793 98.778 155.7C98.1246 154.593 97.798 153.36 97.798 152C97.798 150.64 98.1246 149.413 98.778 148.32C99.4313 147.213 100.331 146.353 101.478 145.74C102.625 145.113 103.911 144.8 105.338 144.8C106.765 144.8 108.051 145.113 109.198 145.74C110.345 146.353 111.245 147.207 111.898 148.3C112.551 149.393 112.878 150.627 112.878 152C112.878 153.373 112.551 154.607 111.898 155.7C111.245 156.793 110.345 157.653 109.198 158.28C108.051 158.893 106.765 159.2 105.338 159.2ZM105.338 156.92C106.271 156.92 107.111 156.713 107.858 156.3C108.605 155.873 109.191 155.287 109.618 154.54C110.045 153.78 110.258 152.933 110.258 152C110.258 151.067 110.045 150.227 109.618 149.48C109.191 148.72 108.605 148.133 107.858 147.72C107.111 147.293 106.271 147.08 105.338 147.08C104.405 147.08 103.565 147.293 102.818 147.72C102.071 148.133 101.485 148.72 101.058 149.48C100.631 150.227 100.418 151.067 100.418 152C100.418 152.933 100.631 153.78 101.058 154.54C101.485 155.287 102.071 155.873 102.818 156.3C103.565 156.713 104.405 156.92 105.338 156.92ZM130.521 155.76H123.521L122.141 159H119.461L125.761 145H128.321L134.641 159H131.921L130.521 155.76ZM129.661 153.72L127.021 147.6L124.401 153.72H129.661ZM146.041 148.32L141.041 159.86C140.575 161.02 140.008 161.833 139.341 162.3C138.675 162.78 137.868 163.02 136.921 163.02C136.388 163.02 135.861 162.933 135.341 162.76C134.821 162.587 134.395 162.347 134.061 162.04L135.061 160.2C135.301 160.427 135.581 160.607 135.901 160.74C136.235 160.873 136.568 160.94 136.901 160.94C137.341 160.94 137.701 160.827 137.981 160.6C138.275 160.373 138.541 159.993 138.781 159.46L138.961 159.04L134.301 148.32H136.901L140.261 156.22L143.641 148.32H146.041ZM158.514 156.88V161.38H156.174V159H147.934V161.38H145.614V156.88H146.114C146.794 156.853 147.254 156.42 147.494 155.58C147.747 154.727 147.914 153.527 147.994 151.98L148.134 148.32H156.934V156.88H158.514ZM150.274 152.16C150.22 153.387 150.12 154.387 149.974 155.16C149.827 155.933 149.56 156.507 149.174 156.88H154.434V150.44H150.334L150.274 152.16ZM160.746 148.32H163.246V155.36L169.146 148.32H171.426V159H168.926V151.96L163.046 159H160.746V148.32ZM183.249 150.44H179.509V159H177.009V150.44H173.249V148.32H183.249V150.44Z" fill="#D6D6D6"/>
<rect x="30.5" y="203" width="381" height="42" rx="21" fill="#282828"/>
<rect x="30.5" y="203" width="381" height="42" rx="21" stroke="#D4DEEF" stroke-width="2"/>
<path d="M63.9 217V231H61.3V225H54.06V231H51.46V217H54.06V222.78H61.3V217H63.9ZM71.5272 220.2C73.1005 220.2 74.3005 220.58 75.1272 221.34C75.9672 222.087 76.3872 223.22 76.3872 224.74V231H74.0272V229.7C73.7205 230.167 73.2805 230.527 72.7072 230.78C72.1472 231.02 71.4672 231.14 70.6672 231.14C69.8672 231.14 69.1672 231.007 68.5672 230.74C67.9672 230.46 67.5005 230.08 67.1672 229.6C66.8472 229.107 66.6872 228.553 66.6872 227.94C66.6872 226.98 67.0405 226.213 67.7472 225.64C68.4672 225.053 69.5939 224.76 71.1272 224.76H73.8872V224.6C73.8872 223.853 73.6605 223.28 73.2072 222.88C72.7672 222.48 72.1072 222.28 71.2272 222.28C70.6272 222.28 70.0339 222.373 69.4472 222.56C68.8739 222.747 68.3872 223.007 67.9872 223.34L67.0072 221.52C67.5672 221.093 68.2405 220.767 69.0272 220.54C69.8139 220.313 70.6472 220.2 71.5272 220.2ZM71.1872 229.32C71.8139 229.32 72.3672 229.18 72.8472 228.9C73.3405 228.607 73.6872 228.193 73.8872 227.66V226.42H71.3072C69.8672 226.42 69.1472 226.893 69.1472 227.84C69.1472 228.293 69.3272 228.653 69.6872 228.92C70.0472 229.187 70.5472 229.32 71.1872 229.32ZM84.3408 231.14C83.2341 231.14 82.2408 230.907 81.3608 230.44C80.4808 229.973 79.7941 229.327 79.3008 228.5C78.8074 227.66 78.5608 226.713 78.5608 225.66C78.5608 224.607 78.8074 223.667 79.3008 222.84C79.7941 222.013 80.4741 221.367 81.3408 220.9C82.2208 220.433 83.2208 220.2 84.3408 220.2C85.3941 220.2 86.3141 220.413 87.1008 220.84C87.9008 221.267 88.5008 221.88 88.9008 222.68L86.9808 223.8C86.6741 223.307 86.2874 222.94 85.8208 222.7C85.3674 222.447 84.8674 222.32 84.3208 222.32C83.3874 222.32 82.6141 222.627 82.0008 223.24C81.3874 223.84 81.0808 224.647 81.0808 225.66C81.0808 226.673 81.3808 227.487 81.9808 228.1C82.5941 228.7 83.3741 229 84.3208 229C84.8674 229 85.3674 228.88 85.8208 228.64C86.2874 228.387 86.6741 228.013 86.9808 227.52L88.9008 228.64C88.4874 229.44 87.8808 230.06 87.0808 230.5C86.2941 230.927 85.3808 231.14 84.3408 231.14ZM99.4642 222.44H95.7242V231H93.2242V222.44H89.4642V220.32H99.4642V222.44ZM107.198 220.2C108.238 220.2 109.164 220.427 109.978 220.88C110.804 221.333 111.451 221.973 111.918 222.8C112.384 223.627 112.618 224.58 112.618 225.66C112.618 226.74 112.384 227.7 111.918 228.54C111.451 229.367 110.804 230.007 109.978 230.46C109.164 230.913 108.238 231.14 107.198 231.14C105.758 231.14 104.618 230.66 103.778 229.7V234.88H101.278V220.32H103.658V221.72C104.071 221.213 104.578 220.833 105.178 220.58C105.791 220.327 106.464 220.2 107.198 220.2ZM106.918 229C107.838 229 108.591 228.693 109.178 228.08C109.778 227.467 110.078 226.66 110.078 225.66C110.078 224.66 109.778 223.853 109.178 223.24C108.591 222.627 107.838 222.32 106.918 222.32C106.318 222.32 105.778 222.46 105.298 222.74C104.818 223.007 104.438 223.393 104.158 223.9C103.878 224.407 103.738 224.993 103.738 225.66C103.738 226.327 103.878 226.913 104.158 227.42C104.438 227.927 104.818 228.32 105.298 228.6C105.778 228.867 106.318 229 106.918 229ZM119.866 231.14C118.786 231.14 117.812 230.907 116.946 230.44C116.079 229.973 115.399 229.327 114.906 228.5C114.426 227.66 114.186 226.713 114.186 225.66C114.186 224.607 114.426 223.667 114.906 222.84C115.399 222.013 116.079 221.367 116.946 220.9C117.812 220.433 118.786 220.2 119.866 220.2C120.959 220.2 121.939 220.433 122.806 220.9C123.672 221.367 124.346 222.013 124.826 222.84C125.319 223.667 125.566 224.607 125.566 225.66C125.566 226.713 125.319 227.66 124.826 228.5C124.346 229.327 123.672 229.973 122.806 230.44C121.939 230.907 120.959 231.14 119.866 231.14ZM119.866 229C120.786 229 121.546 228.693 122.146 228.08C122.746 227.467 123.046 226.66 123.046 225.66C123.046 224.66 122.746 223.853 122.146 223.24C121.546 222.627 120.786 222.32 119.866 222.32C118.946 222.32 118.186 222.627 117.586 223.24C116.999 223.853 116.706 224.66 116.706 225.66C116.706 226.66 116.999 227.467 117.586 228.08C118.186 228.693 118.946 229 119.866 229ZM128.035 220.32H130.535V227.36L136.435 220.32H138.715V231H136.215V223.96L130.335 231H128.035V220.32ZM133.215 219.06C132.135 219.06 131.309 218.813 130.735 218.32C130.175 217.813 129.889 217.08 129.875 216.12H131.535C131.549 216.6 131.695 216.98 131.975 217.26C132.269 217.54 132.675 217.68 133.195 217.68C133.702 217.68 134.102 217.54 134.395 217.26C134.702 216.98 134.862 216.6 134.875 216.12H136.575C136.562 217.08 136.269 217.813 135.695 218.32C135.122 218.813 134.295 219.06 133.215 219.06ZM146.518 226.72H144.578V231H142.078V220.32H144.578V224.64H146.578L149.738 220.32H152.418L148.538 225.46L152.678 231H149.738L146.518 226.72ZM158.226 220.2C159.8 220.2 161 220.58 161.826 221.34C162.666 222.087 163.086 223.22 163.086 224.74V231H160.726V229.7C160.42 230.167 159.98 230.527 159.406 230.78C158.846 231.02 158.166 231.14 157.366 231.14C156.566 231.14 155.866 231.007 155.266 230.74C154.666 230.46 154.2 230.08 153.866 229.6C153.546 229.107 153.386 228.553 153.386 227.94C153.386 226.98 153.74 226.213 154.446 225.64C155.166 225.053 156.293 224.76 157.826 224.76H160.586V224.6C160.586 223.853 160.36 223.28 159.906 222.88C159.466 222.48 158.806 222.28 157.926 222.28C157.326 222.28 156.733 222.373 156.146 222.56C155.573 222.747 155.086 223.007 154.686 223.34L153.706 221.52C154.266 221.093 154.94 220.767 155.726 220.54C156.513 220.313 157.346 220.2 158.226 220.2ZM157.886 229.32C158.513 229.32 159.066 229.18 159.546 228.9C160.04 228.607 160.386 228.193 160.586 227.66V226.42H158.006C156.566 226.42 155.846 226.893 155.846 227.84C155.846 228.293 156.026 228.653 156.386 228.92C156.746 229.187 157.246 229.32 157.886 229.32ZM176.567 231.14C175.461 231.14 174.467 230.907 173.587 230.44C172.707 229.973 172.021 229.327 171.527 228.5C171.034 227.66 170.787 226.713 170.787 225.66C170.787 224.607 171.034 223.667 171.527 222.84C172.021 222.013 172.701 221.367 173.567 220.9C174.447 220.433 175.447 220.2 176.567 220.2C177.621 220.2 178.541 220.413 179.327 220.84C180.127 221.267 180.727 221.88 181.127 222.68L179.207 223.8C178.901 223.307 178.514 222.94 178.047 222.7C177.594 222.447 177.094 222.32 176.547 222.32C175.614 222.32 174.841 222.627 174.227 223.24C173.614 223.84 173.307 224.647 173.307 225.66C173.307 226.673 173.607 227.487 174.207 228.1C174.821 228.7 175.601 229 176.547 229C177.094 229 177.594 228.88 178.047 228.64C178.514 228.387 178.901 228.013 179.207 227.52L181.127 228.64C180.714 229.44 180.107 230.06 179.307 230.5C178.521 230.927 177.607 231.14 176.567 231.14ZM187.768 226.72H185.828V231H183.328V220.32H185.828V224.64H187.828L190.988 220.32H193.668L189.788 225.46L193.928 231H190.988L187.768 226.72ZM203.432 225.44C204.752 225.84 205.412 226.693 205.412 228C205.412 228.96 205.052 229.7 204.332 230.22C203.612 230.74 202.545 231 201.132 231H195.692V220.32H200.912C202.218 220.32 203.238 220.56 203.972 221.04C204.705 221.52 205.072 222.2 205.072 223.08C205.072 223.627 204.925 224.1 204.632 224.5C204.352 224.9 203.952 225.213 203.432 225.44ZM198.072 224.78H200.692C201.985 224.78 202.632 224.333 202.632 223.44C202.632 222.573 201.985 222.14 200.692 222.14H198.072V224.78ZM200.932 229.18C202.305 229.18 202.992 228.733 202.992 227.84C202.992 227.373 202.832 227.027 202.512 226.8C202.192 226.56 201.692 226.44 201.012 226.44H198.072V229.18H200.932ZM212.835 231.14C211.755 231.14 210.781 230.907 209.915 230.44C209.048 229.973 208.368 229.327 207.875 228.5C207.395 227.66 207.155 226.713 207.155 225.66C207.155 224.607 207.395 223.667 207.875 222.84C208.368 222.013 209.048 221.367 209.915 220.9C210.781 220.433 211.755 220.2 212.835 220.2C213.928 220.2 214.908 220.433 215.775 220.9C216.641 221.367 217.315 222.013 217.795 222.84C218.288 223.667 218.535 224.607 218.535 225.66C218.535 226.713 218.288 227.66 217.795 228.5C217.315 229.327 216.641 229.973 215.775 230.44C214.908 230.907 213.928 231.14 212.835 231.14ZM212.835 229C213.755 229 214.515 228.693 215.115 228.08C215.715 227.467 216.015 226.66 216.015 225.66C216.015 224.66 215.715 223.853 215.115 223.24C214.515 222.627 213.755 222.32 212.835 222.32C211.915 222.32 211.155 222.627 210.555 223.24C209.968 223.853 209.675 224.66 209.675 225.66C209.675 226.66 209.968 227.467 210.555 228.08C211.155 228.693 211.915 229 212.835 229ZM227.228 225.44C227.895 225.627 228.408 225.933 228.768 226.36C229.141 226.773 229.328 227.273 229.328 227.86C229.328 228.513 229.108 229.093 228.668 229.6C228.228 230.093 227.621 230.48 226.848 230.76C226.075 231.04 225.195 231.18 224.208 231.18C223.381 231.18 222.575 231.087 221.788 230.9C221.001 230.7 220.288 230.42 219.648 230.06L220.368 228.2C220.888 228.493 221.475 228.72 222.128 228.88C222.781 229.04 223.435 229.12 224.088 229.12C224.928 229.12 225.581 228.993 226.048 228.74C226.528 228.473 226.768 228.113 226.768 227.66C226.768 227.247 226.581 226.927 226.208 226.7C225.848 226.473 225.335 226.36 224.668 226.36H222.588V224.68H224.468C225.095 224.68 225.581 224.573 225.928 224.36C226.288 224.147 226.468 223.847 226.468 223.46C226.468 223.073 226.255 222.767 225.828 222.54C225.401 222.313 224.815 222.2 224.068 222.2C223.001 222.2 221.875 222.46 220.688 222.98L220.048 221.14C221.448 220.487 222.861 220.16 224.288 220.16C225.195 220.16 226.008 220.287 226.728 220.54C227.448 220.78 228.008 221.127 228.408 221.58C228.821 222.02 229.028 222.527 229.028 223.1C229.028 223.62 228.868 224.087 228.548 224.5C228.228 224.9 227.788 225.213 227.228 225.44ZM231.922 220.32H234.422V224.66H239.802V220.32H242.302V231H239.802V226.78H234.422V231H231.922V220.32ZM250.413 231.14C249.333 231.14 248.359 230.907 247.493 230.44C246.626 229.973 245.946 229.327 245.453 228.5C244.973 227.66 244.733 226.713 244.733 225.66C244.733 224.607 244.973 223.667 245.453 222.84C245.946 222.013 246.626 221.367 247.493 220.9C248.359 220.433 249.333 220.2 250.413 220.2C251.506 220.2 252.486 220.433 253.353 220.9C254.219 221.367 254.893 222.013 255.373 222.84C255.866 223.667 256.113 224.607 256.113 225.66C256.113 226.713 255.866 227.66 255.373 228.5C254.893 229.327 254.219 229.973 253.353 230.44C252.486 230.907 251.506 231.14 250.413 231.14ZM250.413 229C251.333 229 252.093 228.693 252.693 228.08C253.293 227.467 253.593 226.66 253.593 225.66C253.593 224.66 253.293 223.853 252.693 223.24C252.093 222.627 251.333 222.32 250.413 222.32C249.493 222.32 248.733 222.627 248.133 223.24C247.546 223.853 247.253 224.66 247.253 225.66C247.253 226.66 247.546 227.467 248.133 228.08C248.733 228.693 249.493 229 250.413 229ZM258.582 220.32H261.082V227.36L266.982 220.32H269.262V231H266.762V223.96L260.882 231H258.582V220.32ZM263.762 219.06C262.682 219.06 261.856 218.813 261.282 218.32C260.722 217.813 260.436 217.08 260.422 216.12H262.082C262.096 216.6 262.242 216.98 262.522 217.26C262.816 217.54 263.222 217.68 263.742 217.68C264.249 217.68 264.649 217.54 264.942 217.26C265.249 216.98 265.409 216.6 265.422 216.12H267.122C267.109 217.08 266.816 217.813 266.242 218.32C265.669 218.813 264.842 219.06 263.762 219.06ZM282.133 220.2C283.706 220.2 284.906 220.58 285.733 221.34C286.573 222.087 286.993 223.22 286.993 224.74V231H284.633V229.7C284.326 230.167 283.886 230.527 283.313 230.78C282.753 231.02 282.073 231.14 281.273 231.14C280.473 231.14 279.773 231.007 279.173 230.74C278.573 230.46 278.106 230.08 277.773 229.6C277.453 229.107 277.293 228.553 277.293 227.94C277.293 226.98 277.646 226.213 278.353 225.64C279.073 225.053 280.199 224.76 281.733 224.76H284.493V224.6C284.493 223.853 284.266 223.28 283.813 222.88C283.373 222.48 282.713 222.28 281.833 222.28C281.233 222.28 280.639 222.373 280.053 222.56C279.479 222.747 278.993 223.007 278.593 223.34L277.613 221.52C278.173 221.093 278.846 220.767 279.633 220.54C280.419 220.313 281.253 220.2 282.133 220.2ZM281.793 229.32C282.419 229.32 282.973 229.18 283.453 228.9C283.946 228.607 284.293 228.193 284.493 227.66V226.42H281.913C280.473 226.42 279.753 226.893 279.753 227.84C279.753 228.293 279.933 228.653 280.293 228.92C280.653 229.187 281.153 229.32 281.793 229.32ZM290.086 220.32H292.586V224.66H297.966V220.32H300.466V231H297.966V226.78H292.586V231H290.086V220.32ZM307.797 220.2C309.37 220.2 310.57 220.58 311.397 221.34C312.237 222.087 312.657 223.22 312.657 224.74V231H310.297V229.7C309.99 230.167 309.55 230.527 308.977 230.78C308.417 231.02 307.737 231.14 306.937 231.14C306.137 231.14 305.437 231.007 304.837 230.74C304.237 230.46 303.77 230.08 303.437 229.6C303.117 229.107 302.957 228.553 302.957 227.94C302.957 226.98 303.31 226.213 304.017 225.64C304.737 225.053 305.863 224.76 307.397 224.76H310.157V224.6C310.157 223.853 309.93 223.28 309.477 222.88C309.037 222.48 308.377 222.28 307.497 222.28C306.897 222.28 306.303 222.373 305.717 222.56C305.143 222.747 304.657 223.007 304.257 223.34L303.277 221.52C303.837 221.093 304.51 220.767 305.297 220.54C306.083 220.313 306.917 220.2 307.797 220.2ZM307.457 229.32C308.083 229.32 308.637 229.18 309.117 228.9C309.61 228.607 309.957 228.193 310.157 227.66V226.42H307.577C306.137 226.42 305.417 226.893 305.417 227.84C305.417 228.293 305.597 228.653 305.957 228.92C306.317 229.187 306.817 229.32 307.457 229.32ZM325.43 220.32V231H322.93V222.44H318.93L318.83 224.56C318.764 225.973 318.63 227.16 318.43 228.12C318.244 229.067 317.917 229.82 317.45 230.38C316.997 230.927 316.37 231.2 315.57 231.2C315.197 231.2 314.737 231.127 314.19 230.98L314.31 228.88C314.497 228.92 314.657 228.94 314.79 228.94C315.297 228.94 315.677 228.74 315.93 228.34C316.184 227.927 316.344 227.44 316.41 226.88C316.49 226.307 316.557 225.493 316.61 224.44L316.79 220.32H325.43ZM328.797 220.32H331.297V227.36L337.197 220.32H339.477V231H336.977V223.96L331.097 231H328.797V220.32ZM351.3 222.44H347.56V231H345.06V222.44H341.3V220.32H351.3V222.44ZM353.114 220.32H355.614V227.36L361.514 220.32H363.794V231H361.294V223.96L355.414 231H353.114V220.32ZM371.597 226.72H369.657V231H367.157V220.32H369.657V224.64H371.657L374.817 220.32H377.497L373.617 225.46L377.757 231H374.817L371.597 226.72ZM379.52 220.32H382.02V227.36L387.92 220.32H390.2V231H387.7V223.96L381.82 231H379.52V220.32Z" fill="white"/>
<path d="M63.9 217V231H61.3V225H54.06V231H51.46V217H54.06V222.78H61.3V217H63.9ZM71.5272 220.2C73.1005 220.2 74.3005 220.58 75.1272 221.34C75.9672 222.087 76.3872 223.22 76.3872 224.74V231H74.0272V229.7C73.7205 230.167 73.2805 230.527 72.7072 230.78C72.1472 231.02 71.4672 231.14 70.6672 231.14C69.8672 231.14 69.1672 231.007 68.5672 230.74C67.9672 230.46 67.5005 230.08 67.1672 229.6C66.8472 229.107 66.6872 228.553 66.6872 227.94C66.6872 226.98 67.0405 226.213 67.7472 225.64C68.4672 225.053 69.5939 224.76 71.1272 224.76H73.8872V224.6C73.8872 223.853 73.6605 223.28 73.2072 222.88C72.7672 222.48 72.1072 222.28 71.2272 222.28C70.6272 222.28 70.0339 222.373 69.4472 222.56C68.8739 222.747 68.3872 223.007 67.9872 223.34L67.0072 221.52C67.5672 221.093 68.2405 220.767 69.0272 220.54C69.8139 220.313 70.6472 220.2 71.5272 220.2ZM71.1872 229.32C71.8139 229.32 72.3672 229.18 72.8472 228.9C73.3405 228.607 73.6872 228.193 73.8872 227.66V226.42H71.3072C69.8672 226.42 69.1472 226.893 69.1472 227.84C69.1472 228.293 69.3272 228.653 69.6872 228.92C70.0472 229.187 70.5472 229.32 71.1872 229.32ZM84.3408 231.14C83.2341 231.14 82.2408 230.907 81.3608 230.44C80.4808 229.973 79.7941 229.327 79.3008 228.5C78.8074 227.66 78.5608 226.713 78.5608 225.66C78.5608 224.607 78.8074 223.667 79.3008 222.84C79.7941 222.013 80.4741 221.367 81.3408 220.9C82.2208 220.433 83.2208 220.2 84.3408 220.2C85.3941 220.2 86.3141 220.413 87.1008 220.84C87.9008 221.267 88.5008 221.88 88.9008 222.68L86.9808 223.8C86.6741 223.307 86.2874 222.94 85.8208 222.7C85.3674 222.447 84.8674 222.32 84.3208 222.32C83.3874 222.32 82.6141 222.627 82.0008 223.24C81.3874 223.84 81.0808 224.647 81.0808 225.66C81.0808 226.673 81.3808 227.487 81.9808 228.1C82.5941 228.7 83.3741 229 84.3208 229C84.8674 229 85.3674 228.88 85.8208 228.64C86.2874 228.387 86.6741 228.013 86.9808 227.52L88.9008 228.64C88.4874 229.44 87.8808 230.06 87.0808 230.5C86.2941 230.927 85.3808 231.14 84.3408 231.14ZM99.4642 222.44H95.7242V231H93.2242V222.44H89.4642V220.32H99.4642V222.44ZM107.198 220.2C108.238 220.2 109.164 220.427 109.978 220.88C110.804 221.333 111.451 221.973 111.918 222.8C112.384 223.627 112.618 224.58 112.618 225.66C112.618 226.74 112.384 227.7 111.918 228.54C111.451 229.367 110.804 230.007 109.978 230.46C109.164 230.913 108.238 231.14 107.198 231.14C105.758 231.14 104.618 230.66 103.778 229.7V234.88H101.278V220.32H103.658V221.72C104.071 221.213 104.578 220.833 105.178 220.58C105.791 220.327 106.464 220.2 107.198 220.2ZM106.918 229C107.838 229 108.591 228.693 109.178 228.08C109.778 227.467 110.078 226.66 110.078 225.66C110.078 224.66 109.778 223.853 109.178 223.24C108.591 222.627 107.838 222.32 106.918 222.32C106.318 222.32 105.778 222.46 105.298 222.74C104.818 223.007 104.438 223.393 104.158 223.9C103.878 224.407 103.738 224.993 103.738 225.66C103.738 226.327 103.878 226.913 104.158 227.42C104.438 227.927 104.818 228.32 105.298 228.6C105.778 228.867 106.318 229 106.918 229ZM119.866 231.14C118.786 231.14 117.812 230.907 116.946 230.44C116.079 229.973 115.399 229.327 114.906 228.5C114.426 227.66 114.186 226.713 114.186 225.66C114.186 224.607 114.426 223.667 114.906 222.84C115.399 222.013 116.079 221.367 116.946 220.9C117.812 220.433 118.786 220.2 119.866 220.2C120.959 220.2 121.939 220.433 122.806 220.9C123.672 221.367 124.346 222.013 124.826 222.84C125.319 223.667 125.566 224.607 125.566 225.66C125.566 226.713 125.319 227.66 124.826 228.5C124.346 229.327 123.672 229.973 122.806 230.44C121.939 230.907 120.959 231.14 119.866 231.14ZM119.866 229C120.786 229 121.546 228.693 122.146 228.08C122.746 227.467 123.046 226.66 123.046 225.66C123.046 224.66 122.746 223.853 122.146 223.24C121.546 222.627 120.786 222.32 119.866 222.32C118.946 222.32 118.186 222.627 117.586 223.24C116.999 223.853 116.706 224.66 116.706 225.66C116.706 226.66 116.999 227.467 117.586 228.08C118.186 228.693 118.946 229 119.866 229ZM128.035 220.32H130.535V227.36L136.435 220.32H138.715V231H136.215V223.96L130.335 231H128.035V220.32ZM133.215 219.06C132.135 219.06 131.309 218.813 130.735 218.32C130.175 217.813 129.889 217.08 129.875 216.12H131.535C131.549 216.6 131.695 216.98 131.975 217.26C132.269 217.54 132.675 217.68 133.195 217.68C133.702 217.68 134.102 217.54 134.395 217.26C134.702 216.98 134.862 216.6 134.875 216.12H136.575C136.562 217.08 136.269 217.813 135.695 218.32C135.122 218.813 134.295 219.06 133.215 219.06ZM146.518 226.72H144.578V231H142.078V220.32H144.578V224.64H146.578L149.738 220.32H152.418L148.538 225.46L152.678 231H149.738L146.518 226.72ZM158.226 220.2C159.8 220.2 161 220.58 161.826 221.34C162.666 222.087 163.086 223.22 163.086 224.74V231H160.726V229.7C160.42 230.167 159.98 230.527 159.406 230.78C158.846 231.02 158.166 231.14 157.366 231.14C156.566 231.14 155.866 231.007 155.266 230.74C154.666 230.46 154.2 230.08 153.866 229.6C153.546 229.107 153.386 228.553 153.386 227.94C153.386 226.98 153.74 226.213 154.446 225.64C155.166 225.053 156.293 224.76 157.826 224.76H160.586V224.6C160.586 223.853 160.36 223.28 159.906 222.88C159.466 222.48 158.806 222.28 157.926 222.28C157.326 222.28 156.733 222.373 156.146 222.56C155.573 222.747 155.086 223.007 154.686 223.34L153.706 221.52C154.266 221.093 154.94 220.767 155.726 220.54C156.513 220.313 157.346 220.2 158.226 220.2ZM157.886 229.32C158.513 229.32 159.066 229.18 159.546 228.9C160.04 228.607 160.386 228.193 160.586 227.66V226.42H158.006C156.566 226.42 155.846 226.893 155.846 227.84C155.846 228.293 156.026 228.653 156.386 228.92C156.746 229.187 157.246 229.32 157.886 229.32ZM176.567 231.14C175.461 231.14 174.467 230.907 173.587 230.44C172.707 229.973 172.021 229.327 171.527 228.5C171.034 227.66 170.787 226.713 170.787 225.66C170.787 224.607 171.034 223.667 171.527 222.84C172.021 222.013 172.701 221.367 173.567 220.9C174.447 220.433 175.447 220.2 176.567 220.2C177.621 220.2 178.541 220.413 179.327 220.84C180.127 221.267 180.727 221.88 181.127 222.68L179.207 223.8C178.901 223.307 178.514 222.94 178.047 222.7C177.594 222.447 177.094 222.32 176.547 222.32C175.614 222.32 174.841 222.627 174.227 223.24C173.614 223.84 173.307 224.647 173.307 225.66C173.307 226.673 173.607 227.487 174.207 228.1C174.821 228.7 175.601 229 176.547 229C177.094 229 177.594 228.88 178.047 228.64C178.514 228.387 178.901 228.013 179.207 227.52L181.127 228.64C180.714 229.44 180.107 230.06 179.307 230.5C178.521 230.927 177.607 231.14 176.567 231.14ZM187.768 226.72H185.828V231H183.328V220.32H185.828V224.64H187.828L190.988 220.32H193.668L189.788 225.46L193.928 231H190.988L187.768 226.72ZM203.432 225.44C204.752 225.84 205.412 226.693 205.412 228C205.412 228.96 205.052 229.7 204.332 230.22C203.612 230.74 202.545 231 201.132 231H195.692V220.32H200.912C202.218 220.32 203.238 220.56 203.972 221.04C204.705 221.52 205.072 222.2 205.072 223.08C205.072 223.627 204.925 224.1 204.632 224.5C204.352 224.9 203.952 225.213 203.432 225.44ZM198.072 224.78H200.692C201.985 224.78 202.632 224.333 202.632 223.44C202.632 222.573 201.985 222.14 200.692 222.14H198.072V224.78ZM200.932 229.18C202.305 229.18 202.992 228.733 202.992 227.84C202.992 227.373 202.832 227.027 202.512 226.8C202.192 226.56 201.692 226.44 201.012 226.44H198.072V229.18H200.932ZM212.835 231.14C211.755 231.14 210.781 230.907 209.915 230.44C209.048 229.973 208.368 229.327 207.875 228.5C207.395 227.66 207.155 226.713 207.155 225.66C207.155 224.607 207.395 223.667 207.875 222.84C208.368 222.013 209.048 221.367 209.915 220.9C210.781 220.433 211.755 220.2 212.835 220.2C213.928 220.2 214.908 220.433 215.775 220.9C216.641 221.367 217.315 222.013 217.795 222.84C218.288 223.667 218.535 224.607 218.535 225.66C218.535 226.713 218.288 227.66 217.795 228.5C217.315 229.327 216.641 229.973 215.775 230.44C214.908 230.907 213.928 231.14 212.835 231.14ZM212.835 229C213.755 229 214.515 228.693 215.115 228.08C215.715 227.467 216.015 226.66 216.015 225.66C216.015 224.66 215.715 223.853 215.115 223.24C214.515 222.627 213.755 222.32 212.835 222.32C211.915 222.32 211.155 222.627 210.555 223.24C209.968 223.853 209.675 224.66 209.675 225.66C209.675 226.66 209.968 227.467 210.555 228.08C211.155 228.693 211.915 229 212.835 229ZM227.228 225.44C227.895 225.627 228.408 225.933 228.768 226.36C229.141 226.773 229.328 227.273 229.328 227.86C229.328 228.513 229.108 229.093 228.668 229.6C228.228 230.093 227.621 230.48 226.848 230.76C226.075 231.04 225.195 231.18 224.208 231.18C223.381 231.18 222.575 231.087 221.788 230.9C221.001 230.7 220.288 230.42 219.648 230.06L220.368 228.2C220.888 228.493 221.475 228.72 222.128 228.88C222.781 229.04 223.435 229.12 224.088 229.12C224.928 229.12 225.581 228.993 226.048 228.74C226.528 228.473 226.768 228.113 226.768 227.66C226.768 227.247 226.581 226.927 226.208 226.7C225.848 226.473 225.335 226.36 224.668 226.36H222.588V224.68H224.468C225.095 224.68 225.581 224.573 225.928 224.36C226.288 224.147 226.468 223.847 226.468 223.46C226.468 223.073 226.255 222.767 225.828 222.54C225.401 222.313 224.815 222.2 224.068 222.2C223.001 222.2 221.875 222.46 220.688 222.98L220.048 221.14C221.448 220.487 222.861 220.16 224.288 220.16C225.195 220.16 226.008 220.287 226.728 220.54C227.448 220.78 228.008 221.127 228.408 221.58C228.821 222.02 229.028 222.527 229.028 223.1C229.028 223.62 228.868 224.087 228.548 224.5C228.228 224.9 227.788 225.213 227.228 225.44ZM231.922 220.32H234.422V224.66H239.802V220.32H242.302V231H239.802V226.78H234.422V231H231.922V220.32ZM250.413 231.14C249.333 231.14 248.359 230.907 247.493 230.44C246.626 229.973 245.946 229.327 245.453 228.5C244.973 227.66 244.733 226.713 244.733 225.66C244.733 224.607 244.973 223.667 245.453 222.84C245.946 222.013 246.626 221.367 247.493 220.9C248.359 220.433 249.333 220.2 250.413 220.2C251.506 220.2 252.486 220.433 253.353 220.9C254.219 221.367 254.893 222.013 255.373 222.84C255.866 223.667 256.113 224.607 256.113 225.66C256.113 226.713 255.866 227.66 255.373 228.5C254.893 229.327 254.219 229.973 253.353 230.44C252.486 230.907 251.506 231.14 250.413 231.14ZM250.413 229C251.333 229 252.093 228.693 252.693 228.08C253.293 227.467 253.593 226.66 253.593 225.66C253.593 224.66 253.293 223.853 252.693 223.24C252.093 222.627 251.333 222.32 250.413 222.32C249.493 222.32 248.733 222.627 248.133 223.24C247.546 223.853 247.253 224.66 247.253 225.66C247.253 226.66 247.546 227.467 248.133 228.08C248.733 228.693 249.493 229 250.413 229ZM258.582 220.32H261.082V227.36L266.982 220.32H269.262V231H266.762V223.96L260.882 231H258.582V220.32ZM263.762 219.06C262.682 219.06 261.856 218.813 261.282 218.32C260.722 217.813 260.436 217.08 260.422 216.12H262.082C262.096 216.6 262.242 216.98 262.522 217.26C262.816 217.54 263.222 217.68 263.742 217.68C264.249 217.68 264.649 217.54 264.942 217.26C265.249 216.98 265.409 216.6 265.422 216.12H267.122C267.109 217.08 266.816 217.813 266.242 218.32C265.669 218.813 264.842 219.06 263.762 219.06ZM282.133 220.2C283.706 220.2 284.906 220.58 285.733 221.34C286.573 222.087 286.993 223.22 286.993 224.74V231H284.633V229.7C284.326 230.167 283.886 230.527 283.313 230.78C282.753 231.02 282.073 231.14 281.273 231.14C280.473 231.14 279.773 231.007 279.173 230.74C278.573 230.46 278.106 230.08 277.773 229.6C277.453 229.107 277.293 228.553 277.293 227.94C277.293 226.98 277.646 226.213 278.353 225.64C279.073 225.053 280.199 224.76 281.733 224.76H284.493V224.6C284.493 223.853 284.266 223.28 283.813 222.88C283.373 222.48 282.713 222.28 281.833 222.28C281.233 222.28 280.639 222.373 280.053 222.56C279.479 222.747 278.993 223.007 278.593 223.34L277.613 221.52C278.173 221.093 278.846 220.767 279.633 220.54C280.419 220.313 281.253 220.2 282.133 220.2ZM281.793 229.32C282.419 229.32 282.973 229.18 283.453 228.9C283.946 228.607 284.293 228.193 284.493 227.66V226.42H281.913C280.473 226.42 279.753 226.893 279.753 227.84C279.753 228.293 279.933 228.653 280.293 228.92C280.653 229.187 281.153 229.32 281.793 229.32ZM290.086 220.32H292.586V224.66H297.966V220.32H300.466V231H297.966V226.78H292.586V231H290.086V220.32ZM307.797 220.2C309.37 220.2 310.57 220.58 311.397 221.34C312.237 222.087 312.657 223.22 312.657 224.74V231H310.297V229.7C309.99 230.167 309.55 230.527 308.977 230.78C308.417 231.02 307.737 231.14 306.937 231.14C306.137 231.14 305.437 231.007 304.837 230.74C304.237 230.46 303.77 230.08 303.437 229.6C303.117 229.107 302.957 228.553 302.957 227.94C302.957 226.98 303.31 226.213 304.017 225.64C304.737 225.053 305.863 224.76 307.397 224.76H310.157V224.6C310.157 223.853 309.93 223.28 309.477 222.88C309.037 222.48 308.377 222.28 307.497 222.28C306.897 222.28 306.303 222.373 305.717 222.56C305.143 222.747 304.657 223.007 304.257 223.34L303.277 221.52C303.837 221.093 304.51 220.767 305.297 220.54C306.083 220.313 306.917 220.2 307.797 220.2ZM307.457 229.32C308.083 229.32 308.637 229.18 309.117 228.9C309.61 228.607 309.957 228.193 310.157 227.66V226.42H307.577C306.137 226.42 305.417 226.893 305.417 227.84C305.417 228.293 305.597 228.653 305.957 228.92C306.317 229.187 306.817 229.32 307.457 229.32ZM325.43 220.32V231H322.93V222.44H318.93L318.83 224.56C318.764 225.973 318.63 227.16 318.43 228.12C318.244 229.067 317.917 229.82 317.45 230.38C316.997 230.927 316.37 231.2 315.57 231.2C315.197 231.2 314.737 231.127 314.19 230.98L314.31 228.88C314.497 228.92 314.657 228.94 314.79 228.94C315.297 228.94 315.677 228.74 315.93 228.34C316.184 227.927 316.344 227.44 316.41 226.88C316.49 226.307 316.557 225.493 316.61 224.44L316.79 220.32H325.43ZM328.797 220.32H331.297V227.36L337.197 220.32H339.477V231H336.977V223.96L331.097 231H328.797V220.32ZM351.3 222.44H347.56V231H345.06V222.44H341.3V220.32H351.3V222.44ZM353.114 220.32H355.614V227.36L361.514 220.32H363.794V231H361.294V223.96L355.414 231H353.114V220.32ZM371.597 226.72H369.657V231H367.157V220.32H369.657V224.64H371.657L374.817 220.32H377.497L373.617 225.46L377.757 231H374.817L371.597 226.72ZM379.52 220.32H382.02V227.36L387.92 220.32H390.2V231H387.7V223.96L381.82 231H379.52V220.32Z" fill="#D6D6D6"/>
</svg>
